SplineFontDB: 3.2
FontName: Lato-Regular
FullName: Lato Regular
FamilyName: Lato
Weight: Book
Copyright: Copyright (c) 2010-2011 by tyPoland Lukasz Dziedzic with Reserved Font Name "Lato". Licensed under the SIL Open Font License, Version 1.1.
Version: 1.104; Western+Polish opensource
ItalicAngle: 0
UnderlinePosition: -200
UnderlineWidth: 120
Ascent: 1610
Descent: 390
InvalidEm: 0
sfntRevision: 0x00011aa0
LayerCount: 2
Layer: 0 1 "Back" 1
Layer: 1 1 "Fore" 0
XUID: [1021 467 -1121320856 6001233]
StyleMap: 0x0040
FSType: 0
OS2Version: 3
OS2_WeightWidthSlopeOnly: 0
OS2_UseTypoMetrics: 0
CreationTime: 1315810800
ModificationTime: 1634526194
PfmFamily: 17
TTFWeight: 400
TTFWidth: 5
LineGap: 0
VLineGap: 0
Panose: 2 15 5 2 2 2 4 3 2 3
OS2TypoAscent: 1610
OS2TypoAOffset: 0
OS2TypoDescent: -390
OS2TypoDOffset: 0
OS2TypoLinegap: 400
OS2WinAscent: 1974
OS2WinAOffset: 0
OS2WinDescent: 426
OS2WinDOffset: 0
HheadAscent: 1974
HheadAOffset: 0
HheadDescent: -426
HheadDOffset: 0
OS2SubXSize: 1400
OS2SubYSize: 1300
OS2SubXOff: 0
OS2SubYOff: 280
OS2SupXSize: 1400
OS2SupYSize: 1300
OS2SupXOff: 0
OS2SupYOff: 954
OS2StrikeYSize: 120
OS2StrikeYPos: 500
OS2CapHeight: 1433
OS2XHeight: 1013
OS2FamilyClass: 2051
OS2Vendor: 'tyPL'
OS2CodePages: 20000093.00000000
OS2UnicodeRanges: 800000af.4000604a.00000000.00000000
Lookup: 1 0 0 "'case' Case-Sensitive Forms in Latin lookup 0" { "'case' Case-Sensitive Forms in Latin lookup 0 subtable"  } ['case' ('DFLT' <'dflt' > 'latn' <'dflt' > ) ]
Lookup: 4 0 1 "'liga' Standard Ligatures in Latin lookup 1" { "'liga' Standard Ligatures in Latin lookup 1 subtable"  } ['liga' ('DFLT' <'dflt' > 'latn' <'dflt' > ) ]
Lookup: 1 0 0 "'sups' Superscript in Latin lookup 2" { "'sups' Superscript in Latin lookup 2 subtable" ("superior") } ['sups' ('DFLT' <'dflt' > 'latn' <'dflt' > ) ]
Lookup: 258 0 0 "'kern' Horizontal Kerning in Latin lookup 0" { "'kern' Horizontal Kerning in Latin lookup 0 subtable"  } ['kern' ('DFLT' <'dflt' > 'latn' <'dflt' > ) ]
DEI: 91125

StartChar: .notdef
Encoding: 65536 -1 0
Width: 1063
Flags: W
LayerCount: 2
Fore
SplineSet
250 1141 m 1,0,1
 275 1163 275 1163 303.5 1182 c 128,-1,2
 332 1201 332 1201 366 1215.5 c 128,-1,3
 400 1230 400 1230 439.5 1238.5 c 128,-1,4
 479 1247 479 1247 525 1247 c 0,5,6
 588 1247 588 1247 639.5 1229.5 c 128,-1,7
 691 1212 691 1212 727.5 1180 c 128,-1,8
 764 1148 764 1148 784.5 1102.5 c 128,-1,9
 805 1057 805 1057 805 1001 c 0,10,11
 805 946 805 946 790 906 c 128,-1,12
 775 866 775 866 752.5 836.5 c 128,-1,13
 730 807 730 807 703 785.5 c 128,-1,14
 676 764 676 764 652 745 c 128,-1,15
 628 726 628 726 610.5 707.5 c 128,-1,16
 593 689 593 689 589 666 c 2,17,-1
 572 561 l 1,18,-1
 450 561 l 1,19,-1
 438 678 l 2,20,21
 434 712 434 712 447 737.5 c 128,-1,22
 460 763 460 763 482.5 784.5 c 128,-1,23
 505 806 505 806 532.5 826 c 128,-1,24
 560 846 560 846 584 869 c 128,-1,25
 608 892 608 892 624 921 c 128,-1,26
 640 950 640 950 640 990 c 0,27,28
 640 1041 640 1041 603.5 1071 c 128,-1,29
 567 1101 567 1101 510 1101 c 0,30,31
 469 1101 469 1101 441 1092 c 128,-1,32
 413 1083 413 1083 393 1072 c 128,-1,33
 373 1061 373 1061 359 1052 c 128,-1,34
 345 1043 345 1043 334 1043 c 0,35,36
 309 1043 309 1043 297 1065 c 2,37,-1
 250 1141 l 1,0,1
396 292 m 256,38,39
 396 339 396 339 427 371 c 128,-1,40
 458 403 458 403 506 403 c 0,41,42
 528 403 528 403 548 394.5 c 128,-1,43
 568 386 568 386 582.5 371 c 128,-1,44
 597 356 597 356 605.5 335.5 c 128,-1,45
 614 315 614 315 614 292 c 256,46,47
 614 269 614 269 605.5 249 c 128,-1,48
 597 229 597 229 582.5 214 c 128,-1,49
 568 199 568 199 548 190.5 c 128,-1,50
 528 182 528 182 506 182 c 0,51,52
 458 182 458 182 427 213.5 c 128,-1,53
 396 245 396 245 396 292 c 256,38,39
45 1433 m 1,54,-1
 1019 1433 l 1,55,-1
 1019 0 l 1,56,-1
 45 0 l 1,57,-1
 45 1433 l 1,54,-1
95 54 m 1,58,-1
 962 54 l 1,59,-1
 962 1378 l 1,60,-1
 95 1378 l 1,61,-1
 95 54 l 1,58,-1
EndSplineSet
EndChar

StartChar: exclam
Encoding: 33 33 4
Width: 686
Flags: W
LayerCount: 2
Fore
SplineSet
430 1433 m 1,0,-1
 430 861 l 2,1,2
 430 816 430 816 428.5 773 c 128,-1,3
 427 730 427 730 424 686.5 c 128,-1,4
 421 643 421 643 416.5 597.5 c 128,-1,5
 412 552 412 552 406 500 c 1,6,-1
 285 500 l 1,7,8
 279 552 279 552 274.5 597.5 c 128,-1,9
 270 643 270 643 267 686.5 c 128,-1,10
 264 730 264 730 262.5 773 c 128,-1,11
 261 816 261 816 261 861 c 2,12,-1
 261 1433 l 1,13,-1
 430 1433 l 1,0,-1
218 110 m 0,14,15
 218 136 218 136 227.5 159 c 128,-1,16
 237 182 237 182 253.5 199 c 128,-1,17
 270 216 270 216 293 226 c 128,-1,18
 316 236 316 236 342 236 c 256,19,20
 368 236 368 236 391 226 c 128,-1,21
 414 216 414 216 431 199 c 128,-1,22
 448 182 448 182 457.5 159 c 128,-1,23
 467 136 467 136 467 110 c 0,24,25
 467 83 467 83 457.5 60.5 c 128,-1,26
 448 38 448 38 431 21 c 128,-1,27
 414 4 414 4 391 -5.5 c 128,-1,28
 368 -15 368 -15 342 -15 c 256,29,30
 316 -15 316 -15 293 -5.5 c 128,-1,31
 270 4 270 4 253.5 21 c 128,-1,32
 237 38 237 38 227.5 60.5 c 128,-1,33
 218 83 218 83 218 110 c 0,14,15
EndSplineSet
EndChar

StartChar: quotedbl
Encoding: 34 34 5
Width: 794
Flags: W
LayerCount: 2
Fore
SplineSet
307 1433 m 1,0,-1
 307 1143 l 1,1,-1
 291 988 l 2,2,3
 288 956 288 956 274 938.5 c 128,-1,4
 260 921 260 921 229 921 c 0,5,6
 203 921 203 921 188.5 938.5 c 128,-1,7
 174 956 174 956 168 988 c 2,8,-1
 152 1143 l 1,9,-1
 152 1433 l 1,10,-1
 307 1433 l 1,0,-1
640 1433 m 1,11,-1
 640 1143 l 1,12,-1
 624 988 l 2,13,14
 621 956 621 956 607 938.5 c 128,-1,15
 593 921 593 921 562 921 c 0,16,17
 536 921 536 921 521.5 938.5 c 128,-1,18
 507 956 507 956 501 988 c 2,19,-1
 485 1143 l 1,20,-1
 485 1433 l 1,21,-1
 640 1433 l 1,11,-1
EndSplineSet
EndChar

StartChar: numbersign
Encoding: 35 35 6
Width: 1160
Flags: W
LayerCount: 2
Fore
SplineSet
790 423 m 1,0,-1
 706 0 l 1,1,-1
 625 0 l 2,2,3
 602 0 602 0 586 17 c 128,-1,4
 570 34 570 34 570 61 c 0,5,6
 570 65 570 65 570.5 68.5 c 128,-1,7
 571 72 571 72 572 77 c 2,8,-1
 643 423 l 1,9,-1
 396 423 l 1,10,-1
 325 68 l 2,11,12
 317 31 317 31 294.5 15.5 c 128,-1,13
 272 0 272 0 243 0 c 2,14,-1
 164 0 l 1,15,-1
 249 423 l 1,16,-1
 103 423 l 2,17,18
 80 423 80 423 67 434.5 c 128,-1,19
 54 446 54 446 54 474 c 0,20,21
 54 479 54 479 54.5 485 c 128,-1,22
 55 491 55 491 56 497 c 2,23,-1
 64 554 l 1,24,-1
 268 554 l 1,25,-1
 333 880 l 1,26,-1
 101 880 l 1,27,-1
 114 954 l 2,28,29
 119 983 119 983 137 997 c 128,-1,30
 155 1011 155 1011 194 1011 c 2,31,-1
 352 1011 l 1,32,-1
 424 1369 l 2,33,34
 430 1399 430 1399 451.5 1416 c 128,-1,35
 473 1433 473 1433 503 1433 c 2,36,-1
 583 1433 l 1,37,-1
 499 1011 l 1,38,-1
 746 1011 l 1,39,-1
 830 1433 l 1,40,-1
 909 1433 l 2,41,42
 934 1433 934 1433 950.5 1418 c 128,-1,43
 967 1403 967 1403 967 1379 c 0,44,45
 967 1371 967 1371 966 1366 c 2,46,-1
 893 1011 l 1,47,-1
 1105 1011 l 1,48,-1
 1092 936 l 2,49,50
 1087 907 1087 907 1068.5 893.5 c 128,-1,51
 1050 880 1050 880 1012 880 c 2,52,-1
 874 880 l 1,53,-1
 809 554 l 1,54,-1
 988 554 l 2,55,56
 1012 554 1012 554 1025 542.5 c 128,-1,57
 1038 531 1038 531 1038 502 c 0,58,59
 1038 497 1038 497 1037.5 491.5 c 128,-1,60
 1037 486 1037 486 1036 480 c 2,61,-1
 1027 423 l 1,62,-1
 790 423 l 1,0,-1
415 554 m 1,63,-1
 662 554 l 1,64,-1
 727 880 l 1,65,-1
 480 880 l 1,66,-1
 415 554 l 1,63,-1
EndSplineSet
EndChar

StartChar: dollar
Encoding: 36 36 7
Width: 1160
Flags: W
LayerCount: 2
Fore
SplineSet
498 -12 m 1,0,1
 377 -1 377 -1 277.5 47.5 c 128,-1,2
 178 96 178 96 106 171 c 1,3,-1
 159 253 l 2,4,5
 166 264 166 264 179 271 c 128,-1,6
 192 278 192 278 206 278 c 0,7,8
 225 278 225 278 249 259 c 128,-1,9
 273 240 273 240 308 215.5 c 128,-1,10
 343 191 343 191 391.5 168 c 128,-1,11
 440 145 440 145 508 137 c 1,12,-1
 545 668 l 1,13,14
 475 689 475 689 407.5 715.5 c 128,-1,15
 340 742 340 742 286.5 784.5 c 128,-1,16
 233 827 233 827 200.5 891.5 c 128,-1,17
 168 956 168 956 168 1053 c 0,18,19
 168 1126 168 1126 196.5 1195.5 c 128,-1,20
 225 1265 225 1265 279.5 1319 c 128,-1,21
 334 1373 334 1373 414 1407.5 c 128,-1,22
 494 1442 494 1442 598 1446 c 1,23,-1
 608 1590 l 2,24,25
 610 1609 610 1609 623 1624 c 128,-1,26
 636 1639 636 1639 658 1639 c 2,27,-1
 724 1639 l 1,28,-1
 710 1441 l 1,29,30
 815 1428 815 1428 891 1387 c 128,-1,31
 967 1346 967 1346 1027 1288 c 1,32,-1
 984 1222 l 2,33,34
 964 1192 964 1192 938 1192 c 0,35,36
 924 1192 924 1192 903.5 1204.5 c 128,-1,37
 883 1217 883 1217 854 1233.5 c 128,-1,38
 825 1250 825 1250 787 1266.5 c 128,-1,39
 749 1283 749 1283 700 1290 c 1,40,-1
 667 806 l 1,41,42
 739 784 739 784 809 758 c 128,-1,43
 879 732 879 732 935 691 c 128,-1,44
 991 650 991 650 1025.5 588.5 c 128,-1,45
 1060 527 1060 527 1060 435 c 0,46,47
 1060 345 1060 345 1030 266 c 128,-1,48
 1000 187 1000 187 942.5 127 c 128,-1,49
 885 67 885 67 801.5 29.5 c 128,-1,50
 718 -8 718 -8 611 -14 c 1,51,-1
 599 -190 l 2,52,53
 597 -209 597 -209 583.5 -223.5 c 128,-1,54
 570 -238 570 -238 549 -238 c 2,55,-1
 483 -238 l 1,56,-1
 498 -12 l 1,0,1
891 407 m 0,57,58
 891 457 891 457 872.5 493 c 128,-1,59
 854 529 854 529 822 555 c 128,-1,60
 790 581 790 581 747 600 c 128,-1,61
 704 619 704 619 655 635 c 1,62,-1
 621 137 l 1,63,64
 686 143 686 143 736.5 165.5 c 128,-1,65
 787 188 787 188 821.5 223 c 128,-1,66
 856 258 856 258 873.5 304.5 c 128,-1,67
 891 351 891 351 891 407 c 0,57,58
336 1071 m 0,68,69
 336 1023 336 1023 353 987.5 c 128,-1,70
 370 952 370 952 400 925 c 128,-1,71
 430 898 430 898 470 878 c 128,-1,72
 510 858 510 858 557 842 c 1,73,-1
 587 1293 l 1,74,75
 522 1287 522 1287 474.5 1267 c 128,-1,76
 427 1247 427 1247 396.5 1217 c 128,-1,77
 366 1187 366 1187 351 1149.5 c 128,-1,78
 336 1112 336 1112 336 1071 c 0,68,69
EndSplineSet
EndChar

StartChar: percent
Encoding: 37 37 8
Width: 1572
Flags: W
LayerCount: 2
Fore
SplineSet
707 1087 m 0,0,1
 707 1003 707 1003 681 936.5 c 128,-1,2
 655 870 655 870 611.5 824.5 c 128,-1,3
 568 779 568 779 510 755 c 128,-1,4
 452 731 452 731 389 731 c 0,5,6
 321 731 321 731 263.5 755 c 128,-1,7
 206 779 206 779 163 824.5 c 128,-1,8
 120 870 120 870 96 936.5 c 128,-1,9
 72 1003 72 1003 72 1087 c 0,10,11
 72 1173 72 1173 96 1240 c 128,-1,12
 120 1307 120 1307 163 1353 c 128,-1,13
 206 1399 206 1399 263.5 1423 c 128,-1,14
 321 1447 321 1447 389 1447 c 0,15,16
 456 1447 456 1447 514.5 1423 c 128,-1,17
 573 1399 573 1399 615.5 1353 c 128,-1,18
 658 1307 658 1307 682.5 1240 c 128,-1,19
 707 1173 707 1173 707 1087 c 0,0,1
568 1087 m 0,20,21
 568 1153 568 1153 554 1199 c 128,-1,22
 540 1245 540 1245 515.5 1274.5 c 128,-1,23
 491 1304 491 1304 458.5 1317 c 128,-1,24
 426 1330 426 1330 389 1330 c 256,25,26
 352 1330 352 1330 319.5 1317 c 128,-1,27
 287 1304 287 1304 263 1274.5 c 128,-1,28
 239 1245 239 1245 225.5 1199 c 128,-1,29
 212 1153 212 1153 212 1087 c 0,30,31
 212 1022 212 1022 225.5 976.5 c 128,-1,32
 239 931 239 931 263 902.5 c 128,-1,33
 287 874 287 874 319.5 861.5 c 128,-1,34
 352 849 352 849 389 849 c 256,35,36
 426 849 426 849 458.5 861.5 c 128,-1,37
 491 874 491 874 515.5 902.5 c 128,-1,38
 540 931 540 931 554 976.5 c 128,-1,39
 568 1022 568 1022 568 1087 c 0,20,21
1208 1397 m 2,40,41
 1221 1414 1221 1414 1235.5 1423.5 c 128,-1,42
 1250 1433 1250 1433 1274 1433 c 2,43,-1
 1402 1433 l 1,44,-1
 355 29 l 2,45,46
 345 16 345 16 331 8 c 128,-1,47
 317 0 317 0 298 0 c 2,48,-1
 166 0 l 1,49,-1
 1208 1397 l 2,40,41
1499 338 m 0,50,51
 1499 254 1499 254 1473 188 c 128,-1,52
 1447 122 1447 122 1403.5 76.5 c 128,-1,53
 1360 31 1360 31 1302.5 7 c 128,-1,54
 1245 -17 1245 -17 1182 -17 c 0,55,56
 1114 -17 1114 -17 1056.5 7 c 128,-1,57
 999 31 999 31 956 76.5 c 128,-1,58
 913 122 913 122 889 188 c 128,-1,59
 865 254 865 254 865 338 c 0,60,61
 865 424 865 424 889 491.5 c 128,-1,62
 913 559 913 559 956 605 c 128,-1,63
 999 651 999 651 1056.5 675 c 128,-1,64
 1114 699 1114 699 1182 699 c 0,65,66
 1249 699 1249 699 1307 675 c 128,-1,67
 1365 651 1365 651 1408 605 c 128,-1,68
 1451 559 1451 559 1475 491.5 c 128,-1,69
 1499 424 1499 424 1499 338 c 0,50,51
1361 338 m 0,70,71
 1361 404 1361 404 1347 450.5 c 128,-1,72
 1333 497 1333 497 1308.5 526 c 128,-1,73
 1284 555 1284 555 1251.5 568 c 128,-1,74
 1219 581 1219 581 1182 581 c 256,75,76
 1145 581 1145 581 1112.5 568 c 128,-1,77
 1080 555 1080 555 1056 526 c 128,-1,78
 1032 497 1032 497 1018.5 450.5 c 128,-1,79
 1005 404 1005 404 1005 338 c 0,80,81
 1005 273 1005 273 1018.5 228 c 128,-1,82
 1032 183 1032 183 1056 154.5 c 128,-1,83
 1080 126 1080 126 1112.5 113.5 c 128,-1,84
 1145 101 1145 101 1182 101 c 256,85,86
 1219 101 1219 101 1251.5 113.5 c 128,-1,87
 1284 126 1284 126 1308.5 154.5 c 128,-1,88
 1333 183 1333 183 1347 228 c 128,-1,89
 1361 273 1361 273 1361 338 c 0,70,71
EndSplineSet
EndChar

StartChar: ampersand
Encoding: 38 38 9
Width: 1406
Flags: W
LayerCount: 2
Fore
SplineSet
660 1449 m 0,0,1
 739 1449 739 1449 804 1423.5 c 128,-1,2
 869 1398 869 1398 916.5 1356 c 128,-1,3
 964 1314 964 1314 991.5 1258.5 c 128,-1,4
 1019 1203 1019 1203 1023 1143 c 1,5,-1
 912 1121 l 2,6,7
 907 1120 907 1120 903 1120 c 0,8,9
 890 1120 890 1120 878.5 1127 c 128,-1,10
 867 1134 867 1134 862 1152 c 0,11,12
 855 1178 855 1178 839.5 1206 c 128,-1,13
 824 1234 824 1234 799.5 1257 c 128,-1,14
 775 1280 775 1280 740.5 1295 c 128,-1,15
 706 1310 706 1310 660 1310 c 0,16,17
 610 1310 610 1310 570 1294 c 128,-1,18
 530 1278 530 1278 501.5 1249.5 c 128,-1,19
 473 1221 473 1221 457.5 1182.5 c 128,-1,20
 442 1144 442 1144 442 1099 c 0,21,22
 442 1064 442 1064 450.5 1032 c 128,-1,23
 459 1000 459 1000 476 967.5 c 128,-1,24
 493 935 493 935 520 900.5 c 128,-1,25
 547 866 547 866 585 828 c 2,26,-1
 997 409 l 1,27,28
 1035 476 1035 476 1057.5 549.5 c 128,-1,29
 1080 623 1080 623 1088 697 c 0,30,31
 1090 716 1090 716 1100 727 c 128,-1,32
 1110 738 1110 738 1128 738 c 2,33,-1
 1238 738 l 1,34,35
 1236 623 1236 623 1201 512 c 128,-1,36
 1166 401 1166 401 1100 304 c 1,37,-1
 1400 0 l 1,38,-1
 1228 0 l 2,39,40
 1199 0 1199 0 1181 7 c 128,-1,41
 1163 14 1163 14 1141 36 c 2,42,-1
 997 181 l 1,43,44
 903 90 903 90 780.5 37 c 128,-1,45
 658 -16 658 -16 511 -16 c 0,46,47
 431 -16 431 -16 354 11 c 128,-1,48
 277 38 277 38 216.5 89.5 c 128,-1,49
 156 141 156 141 119 215 c 128,-1,50
 82 289 82 289 82 382 c 0,51,52
 82 452 82 452 105.5 514.5 c 128,-1,53
 129 577 129 577 170.5 630 c 128,-1,54
 212 683 212 683 269 725 c 128,-1,55
 326 767 326 767 394 797 c 1,56,57
 333 874 333 874 304 947 c 128,-1,58
 275 1020 275 1020 275 1098 c 0,59,60
 275 1171 275 1171 301.5 1235 c 128,-1,61
 328 1299 328 1299 378 1346.5 c 128,-1,62
 428 1394 428 1394 499.5 1421.5 c 128,-1,63
 571 1449 571 1449 660 1449 c 0,0,1
263 396 m 0,64,65
 263 331 263 331 287 281.5 c 128,-1,66
 311 232 311 232 350 198 c 128,-1,67
 389 164 389 164 439 146.5 c 128,-1,68
 489 129 489 129 541 129 c 0,69,70
 653 129 653 129 742 170 c 128,-1,71
 831 211 831 211 899 279 c 1,72,-1
 476 706 l 1,73,74
 370 649 370 649 316.5 569.5 c 128,-1,75
 263 490 263 490 263 396 c 0,64,65
EndSplineSet
EndChar

StartChar: quotesingle
Encoding: 39 39 10
Width: 460
Flags: W
LayerCount: 2
Fore
SplineSet
307 1433 m 1,0,-1
 307 1143 l 1,1,-1
 291 988 l 2,2,3
 288 956 288 956 274 938.5 c 128,-1,4
 260 921 260 921 229 921 c 0,5,6
 203 921 203 921 188.5 938.5 c 128,-1,7
 174 956 174 956 168 988 c 2,8,-1
 152 1143 l 1,9,-1
 152 1433 l 1,10,-1
 307 1433 l 1,0,-1
EndSplineSet
EndChar

StartChar: parenleft
Encoding: 40 40 11
Width: 600
Flags: W
LayerCount: 2
Fore
SplineSet
289 629 m 256,0,1
 289 415 289 415 344 213.5 c 128,-1,2
 399 12 399 12 503 -171 c 0,3,4
 509 -182 509 -182 511 -190 c 128,-1,5
 513 -198 513 -198 513 -206 c 0,6,7
 513 -220 513 -220 506 -229 c 128,-1,8
 499 -238 499 -238 488 -245 c 2,9,-1
 409 -293 l 1,10,11
 334 -178 334 -178 281.5 -65 c 128,-1,12
 229 48 229 48 196.5 162 c 128,-1,13
 164 276 164 276 149 391.5 c 128,-1,14
 134 507 134 507 134 629 c 0,15,16
 134 750 134 750 149 866 c 128,-1,17
 164 982 164 982 196.5 1095.5 c 128,-1,18
 229 1209 229 1209 281.5 1322 c 128,-1,19
 334 1435 334 1435 409 1551 c 1,20,-1
 488 1502 l 2,21,22
 499 1495 499 1495 506 1486 c 128,-1,23
 513 1477 513 1477 513 1463 c 0,24,25
 513 1448 513 1448 503 1429 c 0,26,27
 398 1247 398 1247 343.5 1045 c 128,-1,28
 289 843 289 843 289 629 c 256,0,1
EndSplineSet
EndChar

StartChar: parenright
Encoding: 41 41 12
Width: 600
Flags: W
LayerCount: 2
Fore
SplineSet
298 629 m 256,0,1
 298 843 298 843 243.5 1045 c 128,-1,2
 189 1247 189 1247 84 1429 c 0,3,4
 74 1448 74 1448 74 1463 c 0,5,6
 74 1477 74 1477 81 1486 c 128,-1,7
 88 1495 88 1495 99 1502 c 2,8,-1
 178 1551 l 1,9,10
 253 1435 253 1435 305.5 1322 c 128,-1,11
 358 1209 358 1209 390.5 1095.5 c 128,-1,12
 423 982 423 982 438 866 c 128,-1,13
 453 750 453 750 453 629 c 0,14,15
 453 507 453 507 438 391.5 c 128,-1,16
 423 276 423 276 390.5 162 c 128,-1,17
 358 48 358 48 305.5 -65 c 128,-1,18
 253 -178 253 -178 178 -293 c 1,19,-1
 99 -245 l 2,20,21
 88 -238 88 -238 81 -229 c 128,-1,22
 74 -220 74 -220 74 -206 c 0,23,24
 74 -198 74 -198 76 -190 c 128,-1,25
 78 -182 78 -182 84 -171 c 0,26,27
 188 12 188 12 243 213.5 c 128,-1,28
 298 415 298 415 298 629 c 256,0,1
EndSplineSet
EndChar

StartChar: asterisk
Encoding: 42 42 13
Width: 800
Flags: W
LayerCount: 2
Fore
SplineSet
354 863 m 1,0,-1
 354 1060 l 2,1,2
 354 1079 354 1079 356.5 1096 c 128,-1,3
 359 1113 359 1113 366 1129 c 1,4,5
 346 1104 346 1104 313 1084 c 2,6,-1
 141 985 l 1,7,-1
 97 1060 l 1,8,-1
 269 1160 l 2,9,10
 305 1181 305 1181 342 1184 c 1,11,12
 322 1186 322 1186 304.5 1191.5 c 128,-1,13
 287 1197 287 1197 269 1209 c 2,14,-1
 96 1310 l 1,15,-1
 140 1385 l 1,16,-1
 313 1285 l 2,17,18
 348 1265 348 1265 370 1233 c 1,19,20
 361 1251 361 1251 357.5 1269.5 c 128,-1,21
 354 1288 354 1288 354 1308 c 2,22,-1
 354 1506 l 1,23,-1
 442 1506 l 1,24,-1
 442 1309 l 2,25,26
 442 1268 442 1268 428 1237 c 1,27,28
 439 1252 439 1252 452.5 1263 c 128,-1,29
 466 1274 466 1274 483 1285 c 2,30,-1
 655 1384 l 1,31,-1
 699 1309 l 1,32,-1
 527 1209 l 2,33,34
 510 1198 510 1198 493.5 1192 c 128,-1,35
 477 1186 477 1186 459 1184 c 1,36,37
 477 1182 477 1182 493.5 1176.5 c 128,-1,38
 510 1171 510 1171 527 1160 c 2,39,-1
 700 1059 l 1,40,-1
 656 984 l 1,41,-1
 483 1084 l 2,42,43
 465 1095 465 1095 451 1106 c 128,-1,44
 437 1117 437 1117 426 1133 c 1,45,46
 442 1100 442 1100 442 1061 c 2,47,-1
 442 863 l 1,48,-1
 354 863 l 1,0,-1
EndSplineSet
EndChar

StartChar: plus
Encoding: 43 43 14
Width: 1160
Flags: W
LayerCount: 2
Fore
SplineSet
651 1166 m 1,0,-1
 651 739 l 1,1,-1
 1058 739 l 1,2,-1
 1058 604 l 1,3,-1
 651 604 l 1,4,-1
 651 174 l 1,5,-1
 505 174 l 1,6,-1
 505 604 l 1,7,-1
 100 604 l 1,8,-1
 100 739 l 1,9,-1
 505 739 l 1,10,-1
 505 1166 l 1,11,-1
 651 1166 l 1,0,-1
EndSplineSet
EndChar

StartChar: comma
Encoding: 44 44 15
Width: 424
Flags: W
LayerCount: 2
Fore
SplineSet
94 123 m 0,0,1
 94 146 94 146 102.5 166.5 c 128,-1,2
 111 187 111 187 126.5 202.5 c 128,-1,3
 142 218 142 218 164 227 c 128,-1,4
 186 236 186 236 212 236 c 0,5,6
 242 236 242 236 265.5 225 c 128,-1,7
 289 214 289 214 304.5 194.5 c 128,-1,8
 320 175 320 175 328 149.5 c 128,-1,9
 336 124 336 124 336 94 c 0,10,11
 336 49 336 49 323 0.5 c 128,-1,12
 310 -48 310 -48 286 -95.5 c 128,-1,13
 262 -143 262 -143 226.5 -188 c 128,-1,14
 191 -233 191 -233 146 -271 c 1,15,-1
 116 -242 l 2,16,17
 103 -230 103 -230 103 -214 c 0,18,19
 103 -201 103 -201 117 -187 c 0,20,21
 127 -176 127 -176 142.5 -157.5 c 128,-1,22
 158 -139 158 -139 174 -115 c 128,-1,23
 190 -91 190 -91 203.5 -62 c 128,-1,24
 217 -33 217 -33 223 0 c 1,25,-1
 210 0 l 2,26,27
 184 0 184 0 163 9 c 128,-1,28
 142 18 142 18 126.5 34.5 c 128,-1,29
 111 51 111 51 102.5 73.5 c 128,-1,30
 94 96 94 96 94 123 c 0,0,1
EndSplineSet
EndChar

StartChar: hyphen
Encoding: 45 45 16
Width: 694
Flags: W
LayerCount: 2
Fore
SplineSet
100 675 m 1,0,-1
 594 675 l 1,1,-1
 594 524 l 1,2,-1
 100 524 l 1,3,-1
 100 675 l 1,0,-1
EndSplineSet
EndChar

StartChar: period
Encoding: 46 46 17
Width: 424
Flags: W
LayerCount: 2
Fore
SplineSet
88 110 m 0,0,1
 88 136 88 136 97.5 159 c 128,-1,2
 107 182 107 182 123.5 199 c 128,-1,3
 140 216 140 216 163 226 c 128,-1,4
 186 236 186 236 212 236 c 256,5,6
 238 236 238 236 261 226 c 128,-1,7
 284 216 284 216 301 199 c 128,-1,8
 318 182 318 182 327.5 159 c 128,-1,9
 337 136 337 136 337 110 c 0,10,11
 337 83 337 83 327.5 60.5 c 128,-1,12
 318 38 318 38 301 21 c 128,-1,13
 284 4 284 4 261 -5.5 c 128,-1,14
 238 -15 238 -15 212 -15 c 256,15,16
 186 -15 186 -15 163 -5.5 c 128,-1,17
 140 4 140 4 123.5 21 c 128,-1,18
 107 38 107 38 97.5 60.5 c 128,-1,19
 88 83 88 83 88 110 c 0,0,1
EndSplineSet
EndChar

StartChar: slash
Encoding: 47 47 18
Width: 746
Flags: W
LayerCount: 2
Fore
SplineSet
161 -21 m 2,0,1
 147 -56 147 -56 119.5 -73 c 128,-1,2
 92 -90 92 -90 63 -90 c 2,3,-1
 -12 -90 l 1,4,-1
 589 1407 l 2,5,6
 602 1439 602 1439 626 1456 c 128,-1,7
 650 1473 650 1473 683 1473 c 2,8,-1
 758 1473 l 1,9,-1
 161 -21 l 2,0,1
EndSplineSet
EndChar

StartChar: zero
Encoding: 48 48 19
Width: 1160
Flags: W
LayerCount: 2
Fore
SplineSet
1100 716 m 256,0,1
 1100 528 1100 528 1059.5 390.5 c 128,-1,2
 1019 253 1019 253 949 163 c 128,-1,3
 879 73 879 73 783.5 29 c 128,-1,4
 688 -15 688 -15 579 -15 c 0,5,6
 469 -15 469 -15 374.5 29 c 128,-1,7
 280 73 280 73 210 163 c 128,-1,8
 140 253 140 253 100 390.5 c 128,-1,9
 60 528 60 528 60 716 c 256,10,11
 60 904 60 904 100 1042 c 128,-1,12
 140 1180 140 1180 210 1270.5 c 128,-1,13
 280 1361 280 1361 374.5 1405 c 128,-1,14
 469 1449 469 1449 579 1449 c 0,15,16
 688 1449 688 1449 783.5 1405 c 128,-1,17
 879 1361 879 1361 949 1270.5 c 128,-1,18
 1019 1180 1019 1180 1059.5 1042 c 128,-1,19
 1100 904 1100 904 1100 716 c 256,0,1
915 716 m 256,20,21
 915 880 915 880 887.5 991.5 c 128,-1,22
 860 1103 860 1103 813.5 1171 c 128,-1,23
 767 1239 767 1239 706 1268.5 c 128,-1,24
 645 1298 645 1298 579 1298 c 256,25,26
 513 1298 513 1298 452 1268.5 c 128,-1,27
 391 1239 391 1239 345 1171 c 128,-1,28
 299 1103 299 1103 271.5 991.5 c 128,-1,29
 244 880 244 880 244 716 c 256,30,31
 244 552 244 552 271.5 441 c 128,-1,32
 299 330 299 330 345 262 c 128,-1,33
 391 194 391 194 452 164.5 c 128,-1,34
 513 135 513 135 579 135 c 256,35,36
 645 135 645 135 706 164.5 c 128,-1,37
 767 194 767 194 813.5 262 c 128,-1,38
 860 330 860 330 887.5 441 c 128,-1,39
 915 552 915 552 915 716 c 256,20,21
EndSplineSet
EndChar

StartChar: one
Encoding: 49 49 20
Width: 1160
Flags: W
LayerCount: 2
Fore
SplineSet
287 136 m 1,0,-1
 595 136 l 1,1,-1
 595 1113 l 2,2,3
 595 1157 595 1157 598 1202 c 1,4,-1
 342 983 l 2,5,6
 332 975 332 975 322 971.5 c 128,-1,7
 312 968 312 968 303 968 c 0,8,9
 288 968 288 968 276 974.5 c 128,-1,10
 264 981 264 981 258 990 c 2,11,-1
 202 1067 l 1,12,-1
 628 1436 l 1,13,-1
 773 1436 l 1,14,-1
 773 136 l 1,15,-1
 1055 136 l 1,16,-1
 1055 0 l 1,17,-1
 287 0 l 1,18,-1
 287 136 l 1,0,-1
EndSplineSet
Substitution2: "'sups' Superscript in Latin lookup 2 subtable" onesuperior
EndChar

StartChar: two
Encoding: 50 50 21
Width: 1160
Flags: W
LayerCount: 2
Fore
SplineSet
601 1449 m 0,0,1
 692 1449 692 1449 771 1422 c 128,-1,2
 850 1395 850 1395 907.5 1343.5 c 128,-1,3
 965 1292 965 1292 998 1218 c 128,-1,4
 1031 1144 1031 1144 1031 1050 c 0,5,6
 1031 970 1031 970 1007 902 c 128,-1,7
 983 834 983 834 942 771.5 c 128,-1,8
 901 709 901 709 847.5 650.5 c 128,-1,9
 794 592 794 592 734 531 c 2,10,-1
 357 145 l 1,11,12
 397 156 397 156 438 162.5 c 128,-1,13
 479 169 479 169 517 169 c 2,14,-1
 997 169 l 2,15,16
 1026 169 1026 169 1043 152 c 128,-1,17
 1060 135 1060 135 1060 108 c 2,18,-1
 1060 0 l 1,19,-1
 104 0 l 1,20,-1
 104 61 l 2,21,22
 104 80 104 80 111.5 100 c 128,-1,23
 119 120 119 120 136 137 c 2,24,-1
 595 598 l 2,25,26
 652 656 652 656 699 709.5 c 128,-1,27
 746 763 746 763 779.5 817 c 128,-1,28
 813 871 813 871 831 926.5 c 128,-1,29
 849 982 849 982 849 1045 c 256,30,31
 849 1108 849 1108 829 1155.5 c 128,-1,32
 809 1203 809 1203 774 1234 c 128,-1,33
 739 1265 739 1265 692 1280.5 c 128,-1,34
 645 1296 645 1296 591 1296 c 256,35,36
 537 1296 537 1296 491 1280 c 128,-1,37
 445 1264 445 1264 409.5 1235.5 c 128,-1,38
 374 1207 374 1207 349.5 1168 c 128,-1,39
 325 1129 325 1129 315 1082 c 0,40,41
 307 1053 307 1053 291 1040 c 128,-1,42
 275 1027 275 1027 249 1027 c 0,43,44
 244 1027 244 1027 238.5 1027.5 c 128,-1,45
 233 1028 233 1028 226 1029 c 2,46,-1
 133 1045 l 1,47,48
 147 1143 147 1143 187 1218.5 c 128,-1,49
 227 1294 227 1294 288.5 1345 c 128,-1,50
 350 1396 350 1396 429.5 1422.5 c 128,-1,51
 509 1449 509 1449 601 1449 c 0,0,1
EndSplineSet
Substitution2: "'sups' Superscript in Latin lookup 2 subtable" twosuperior
EndChar

StartChar: three
Encoding: 51 51 22
Width: 1160
Flags: W
LayerCount: 2
Fore
SplineSet
620 1449 m 0,0,1
 711 1449 711 1449 788 1423 c 128,-1,2
 865 1397 865 1397 920.5 1349 c 128,-1,3
 976 1301 976 1301 1007 1233 c 128,-1,4
 1038 1165 1038 1165 1038 1082 c 0,5,6
 1038 1014 1038 1014 1020.5 960.5 c 128,-1,7
 1003 907 1003 907 970.5 866.5 c 128,-1,8
 938 826 938 826 892 798 c 128,-1,9
 846 770 846 770 789 753 c 1,10,11
 929 716 929 716 999.5 629 c 128,-1,12
 1070 542 1070 542 1070 411 c 0,13,14
 1070 312 1070 312 1032.5 233 c 128,-1,15
 995 154 995 154 930 98.5 c 128,-1,16
 865 43 865 43 778.5 13.5 c 128,-1,17
 692 -16 692 -16 593 -16 c 0,18,19
 479 -16 479 -16 398 12.5 c 128,-1,20
 317 41 317 41 261 91 c 128,-1,21
 205 141 205 141 169 209.5 c 128,-1,22
 133 278 133 278 108 358 c 1,23,-1
 184 390 l 2,24,25
 205 399 205 399 226 399 c 0,26,27
 246 399 246 399 261.5 390.5 c 128,-1,28
 277 382 277 382 285 364 c 0,29,30
 287 360 287 360 289 355.5 c 128,-1,31
 291 351 291 351 293 346 c 0,32,33
 307 317 307 317 327 280.5 c 128,-1,34
 347 244 347 244 381 212 c 128,-1,35
 415 180 415 180 465.5 158 c 128,-1,36
 516 136 516 136 591 136 c 256,37,38
 666 136 666 136 722.5 160.5 c 128,-1,39
 779 185 779 185 816.5 224 c 128,-1,40
 854 263 854 263 873 311 c 128,-1,41
 892 359 892 359 892 406 c 0,42,43
 892 464 892 464 876.5 512 c 128,-1,44
 861 560 861 560 820.5 595 c 128,-1,45
 780 630 780 630 708.5 650 c 128,-1,46
 637 670 637 670 525 670 c 1,47,-1
 525 799 l 1,48,49
 616 800 616 800 680.5 819 c 128,-1,50
 745 838 745 838 786 871 c 128,-1,51
 827 904 827 904 845.5 950 c 128,-1,52
 864 996 864 996 864 1052 c 0,53,54
 864 1114 864 1114 844.5 1160 c 128,-1,55
 825 1206 825 1206 791 1236 c 128,-1,56
 757 1266 757 1266 710.5 1281 c 128,-1,57
 664 1296 664 1296 610 1296 c 256,58,59
 556 1296 556 1296 510 1280 c 128,-1,60
 464 1264 464 1264 428.5 1235.5 c 128,-1,61
 393 1207 393 1207 369 1167.5 c 128,-1,62
 345 1128 345 1128 333 1082 c 0,63,64
 325 1053 325 1053 309 1040 c 128,-1,65
 293 1027 293 1027 268 1027 c 0,66,67
 263 1027 263 1027 257.5 1027.5 c 128,-1,68
 252 1028 252 1028 245 1029 c 2,69,-1
 152 1045 l 1,70,71
 166 1143 166 1143 206 1218.5 c 128,-1,72
 246 1294 246 1294 307.5 1345 c 128,-1,73
 369 1396 369 1396 448.5 1422.5 c 128,-1,74
 528 1449 528 1449 620 1449 c 0,0,1
EndSplineSet
Substitution2: "'sups' Superscript in Latin lookup 2 subtable" threesuperior
EndChar

StartChar: four
Encoding: 52 52 23
Width: 1160
Flags: W
LayerCount: 2
Fore
SplineSet
903 517 m 1,0,-1
 1120 517 l 1,1,-1
 1120 415 l 2,2,3
 1120 399 1120 399 1110.5 388 c 128,-1,4
 1101 377 1101 377 1081 377 c 2,5,-1
 903 377 l 1,6,-1
 903 0 l 1,7,-1
 746 0 l 1,8,-1
 746 377 l 1,9,-1
 111 377 l 2,10,11
 91 377 91 377 76.5 388.5 c 128,-1,12
 62 400 62 400 58 417 c 2,13,-1
 40 508 l 1,14,-1
 737 1433 l 1,15,-1
 903 1433 l 1,16,-1
 903 517 l 1,0,-1
746 1108 m 2,17,18
 746 1134 746 1134 747.5 1164 c 128,-1,19
 749 1194 749 1194 754 1226 c 1,20,-1
 233 517 l 1,21,-1
 746 517 l 1,22,-1
 746 1108 l 2,17,18
EndSplineSet
EndChar

StartChar: five
Encoding: 53 53 24
Width: 1160
Flags: W
LayerCount: 2
Fore
SplineSet
978 1355 m 2,0,1
 978 1317 978 1317 954 1292.5 c 128,-1,2
 930 1268 930 1268 873 1268 c 2,3,-1
 423 1268 l 1,4,-1
 357 892 l 1,5,6
 469 916 469 916 564 916 c 0,7,8
 676 916 676 916 761.5 883 c 128,-1,9
 847 850 847 850 905 792 c 128,-1,10
 963 734 963 734 992.5 655 c 128,-1,11
 1022 576 1022 576 1022 483 c 0,12,13
 1022 369 1022 369 982 277 c 128,-1,14
 942 185 942 185 872.5 119.5 c 128,-1,15
 803 54 803 54 709 19 c 128,-1,16
 615 -16 615 -16 506 -16 c 0,17,18
 443 -16 443 -16 385 -3.5 c 128,-1,19
 327 9 327 9 277 30 c 128,-1,20
 227 51 227 51 184 78 c 128,-1,21
 141 105 141 105 108 135 c 1,22,-1
 162 211 l 2,23,24
 180 237 180 237 210 237 c 0,25,26
 229 237 229 237 254.5 221.5 c 128,-1,27
 280 206 280 206 316 187 c 128,-1,28
 352 168 352 168 400.5 152.5 c 128,-1,29
 449 137 449 137 516 137 c 0,30,31
 591 137 591 137 651 161 c 128,-1,32
 711 185 711 185 753.5 229.5 c 128,-1,33
 796 274 796 274 819 336 c 128,-1,34
 842 398 842 398 842 475 c 0,35,36
 842 542 842 542 822.5 596 c 128,-1,37
 803 650 803 650 763.5 688 c 128,-1,38
 724 726 724 726 665 747 c 128,-1,39
 606 768 606 768 527 768 c 0,40,41
 473 768 473 768 415 759 c 128,-1,42
 357 750 357 750 295 730 c 1,43,-1
 183 763 l 1,44,-1
 299 1433 l 1,45,-1
 978 1433 l 1,46,-1
 978 1355 l 2,0,1
EndSplineSet
EndChar

StartChar: six
Encoding: 54 54 25
Width: 1160
Flags: W
LayerCount: 2
Fore
SplineSet
650 878 m 0,0,1
 736 878 736 878 813 849.5 c 128,-1,2
 890 821 890 821 948 766.5 c 128,-1,3
 1006 712 1006 712 1040 632.5 c 128,-1,4
 1074 553 1074 553 1074 451 c 0,5,6
 1074 352 1074 352 1038 267 c 128,-1,7
 1002 182 1002 182 937.5 119 c 128,-1,8
 873 56 873 56 782 20 c 128,-1,9
 691 -16 691 -16 582 -16 c 0,10,11
 474 -16 474 -16 386.5 18.5 c 128,-1,12
 299 53 299 53 237 116.5 c 128,-1,13
 175 180 175 180 141.5 270.5 c 128,-1,14
 108 361 108 361 108 473 c 0,15,16
 108 567 108 567 150 673 c 128,-1,17
 192 779 192 779 283 901 c 2,18,-1
 646 1390 l 2,19,20
 660 1408 660 1408 685 1420.5 c 128,-1,21
 710 1433 710 1433 742 1433 c 2,22,-1
 900 1433 l 1,23,-1
 403 804 l 1,24,25
 454 839 454 839 516 858.5 c 128,-1,26
 578 878 578 878 650 878 c 0,0,1
280 442 m 0,27,28
 280 373 280 373 300 316 c 128,-1,29
 320 259 320 259 358.5 218 c 128,-1,30
 397 177 397 177 452.5 154.5 c 128,-1,31
 508 132 508 132 579 132 c 0,32,33
 651 132 651 132 709 155 c 128,-1,34
 767 178 767 178 808.5 219 c 128,-1,35
 850 260 850 260 872.5 316 c 128,-1,36
 895 372 895 372 895 438 c 0,37,38
 895 508 895 508 873 564.5 c 128,-1,39
 851 621 851 621 811 660.5 c 128,-1,40
 771 700 771 700 715 721 c 128,-1,41
 659 742 659 742 592 742 c 0,42,43
 520 742 520 742 462 717.5 c 128,-1,44
 404 693 404 693 363.5 651.5 c 128,-1,45
 323 610 323 610 301.5 555.5 c 128,-1,46
 280 501 280 501 280 442 c 0,27,28
EndSplineSet
EndChar

StartChar: seven
Encoding: 55 55 26
Width: 1160
Flags: W
LayerCount: 2
Fore
SplineSet
1084 1433 m 1,0,-1
 1084 1353 l 2,1,2
 1084 1319 1084 1319 1076.5 1297 c 128,-1,3
 1069 1275 1069 1275 1061 1260 c 2,4,-1
 468 63 l 2,5,6
 455 37 455 37 432 18.5 c 128,-1,7
 409 0 409 0 370 0 c 2,8,-1
 243 0 l 1,9,-1
 845 1182 l 2,10,11
 858 1207 858 1207 871.5 1228 c 128,-1,12
 885 1249 885 1249 902 1268 c 1,13,-1
 154 1268 l 2,14,15
 137 1268 137 1268 123.5 1281.5 c 128,-1,16
 110 1295 110 1295 110 1312 c 2,17,-1
 110 1433 l 1,18,-1
 1084 1433 l 1,0,-1
EndSplineSet
EndChar

StartChar: eight
Encoding: 56 56 27
Width: 1160
Flags: W
LayerCount: 2
Fore
SplineSet
579 -16 m 256,0,1
 472 -16 472 -16 383 12.5 c 128,-1,2
 294 41 294 41 230 94 c 128,-1,3
 166 147 166 147 131 222.5 c 128,-1,4
 96 298 96 298 96 392 c 0,5,6
 96 530 96 530 168 619.5 c 128,-1,7
 240 709 240 709 374 747 c 1,8,9
 261 789 261 789 203.5 872.5 c 128,-1,10
 146 956 146 956 146 1072 c 0,11,12
 146 1151 146 1151 177 1220 c 128,-1,13
 208 1289 208 1289 265 1340 c 128,-1,14
 322 1391 322 1391 401.5 1420 c 128,-1,15
 481 1449 481 1449 579 1449 c 0,16,17
 676 1449 676 1449 756 1420 c 128,-1,18
 836 1391 836 1391 893 1340 c 128,-1,19
 950 1289 950 1289 981 1220 c 128,-1,20
 1012 1151 1012 1151 1012 1072 c 0,21,22
 1012 956 1012 956 954 872.5 c 128,-1,23
 896 789 896 789 784 747 c 1,24,25
 918 709 918 709 990 619.5 c 128,-1,26
 1062 530 1062 530 1062 392 c 0,27,28
 1062 298 1062 298 1026.5 222.5 c 128,-1,29
 991 147 991 147 927.5 94 c 128,-1,30
 864 41 864 41 775 12.5 c 128,-1,31
 686 -16 686 -16 579 -16 c 256,0,1
579 126 m 256,32,33
 649 126 649 126 704.5 145.5 c 128,-1,34
 760 165 760 165 798.5 200.5 c 128,-1,35
 837 236 837 236 857.5 285.5 c 128,-1,36
 878 335 878 335 878 395 c 0,37,38
 878 469 878 469 853.5 521.5 c 128,-1,39
 829 574 829 574 787.5 607 c 128,-1,40
 746 640 746 640 692 655.5 c 128,-1,41
 638 671 638 671 579 671 c 256,42,43
 520 671 520 671 466 655.5 c 128,-1,44
 412 640 412 640 370.5 607 c 128,-1,45
 329 574 329 574 304.5 521.5 c 128,-1,46
 280 469 280 469 280 395 c 0,47,48
 280 335 280 335 300.5 285.5 c 128,-1,49
 321 236 321 236 359.5 200.5 c 128,-1,50
 398 165 398 165 453.5 145.5 c 128,-1,51
 509 126 509 126 579 126 c 256,32,33
579 814 m 256,52,53
 649 814 649 814 698.5 835.5 c 128,-1,54
 748 857 748 857 779 892.5 c 128,-1,55
 810 928 810 928 824 974 c 128,-1,56
 838 1020 838 1020 838 1069 c 0,57,58
 838 1119 838 1119 821.5 1163 c 128,-1,59
 805 1207 805 1207 772.5 1240 c 128,-1,60
 740 1273 740 1273 691.5 1292 c 128,-1,61
 643 1311 643 1311 579 1311 c 256,62,63
 515 1311 515 1311 466.5 1292 c 128,-1,64
 418 1273 418 1273 385.5 1240 c 128,-1,65
 353 1207 353 1207 336.5 1163 c 128,-1,66
 320 1119 320 1119 320 1069 c 0,67,68
 320 1020 320 1020 334 974 c 128,-1,69
 348 928 348 928 379 892.5 c 128,-1,70
 410 857 410 857 459.5 835.5 c 128,-1,71
 509 814 509 814 579 814 c 256,52,53
EndSplineSet
EndChar

StartChar: nine
Encoding: 57 57 28
Width: 1160
Flags: W
LayerCount: 2
Fore
SplineSet
549 588 m 0,0,1
 468 588 468 588 395.5 615 c 128,-1,2
 323 642 323 642 268 694.5 c 128,-1,3
 213 747 213 747 180.5 823.5 c 128,-1,4
 148 900 148 900 148 999 c 0,5,6
 148 1093 148 1093 183 1175 c 128,-1,7
 218 1257 218 1257 281 1318 c 128,-1,8
 344 1379 344 1379 431 1414 c 128,-1,9
 518 1449 518 1449 622 1449 c 0,10,11
 725 1449 725 1449 809 1415 c 128,-1,12
 893 1381 893 1381 953 1320 c 128,-1,13
 1013 1259 1013 1259 1045.5 1174 c 128,-1,14
 1078 1089 1078 1089 1078 986 c 0,15,16
 1078 924 1078 924 1066.5 868.5 c 128,-1,17
 1055 813 1055 813 1033 760 c 128,-1,18
 1011 707 1011 707 980.5 654.5 c 128,-1,19
 950 602 950 602 911 546 c 2,20,-1
 562 42 l 2,21,22
 549 23 549 23 525 11.5 c 128,-1,23
 501 0 501 0 470 0 c 2,24,-1
 306 0 l 1,25,-1
 742 571 l 2,26,27
 764 600 764 600 783 626 c 128,-1,28
 802 652 802 652 819 678 c 1,29,30
 764 634 764 634 695 611 c 128,-1,31
 626 588 626 588 549 588 c 0,0,1
907 1007 m 0,32,33
 907 1074 907 1074 885.5 1128.5 c 128,-1,34
 864 1183 864 1183 826 1221 c 128,-1,35
 788 1259 788 1259 735.5 1279.5 c 128,-1,36
 683 1300 683 1300 620 1300 c 0,37,38
 554 1300 554 1300 499.5 1278.5 c 128,-1,39
 445 1257 445 1257 406.5 1219 c 128,-1,40
 368 1181 368 1181 347 1128 c 128,-1,41
 326 1075 326 1075 326 1012 c 0,42,43
 326 944 326 944 345.5 890.5 c 128,-1,44
 365 837 365 837 401.5 800 c 128,-1,45
 438 763 438 763 490.5 744 c 128,-1,46
 543 725 543 725 608 725 c 0,47,48
 680 725 680 725 735.5 748.5 c 128,-1,49
 791 772 791 772 829 811 c 128,-1,50
 867 850 867 850 887 901 c 128,-1,51
 907 952 907 952 907 1007 c 0,32,33
EndSplineSet
EndChar

StartChar: colon
Encoding: 58 58 29
Width: 504
Flags: W
LayerCount: 2
Fore
SplineSet
128 110 m 0,0,1
 128 136 128 136 137.5 159 c 128,-1,2
 147 182 147 182 163.5 199 c 128,-1,3
 180 216 180 216 203 226 c 128,-1,4
 226 236 226 236 252 236 c 256,5,6
 278 236 278 236 301 226 c 128,-1,7
 324 216 324 216 341 199 c 128,-1,8
 358 182 358 182 367.5 159 c 128,-1,9
 377 136 377 136 377 110 c 0,10,11
 377 83 377 83 367.5 60.5 c 128,-1,12
 358 38 358 38 341 21 c 128,-1,13
 324 4 324 4 301 -5.5 c 128,-1,14
 278 -15 278 -15 252 -15 c 256,15,16
 226 -15 226 -15 203 -5.5 c 128,-1,17
 180 4 180 4 163.5 21 c 128,-1,18
 147 38 147 38 137.5 60.5 c 128,-1,19
 128 83 128 83 128 110 c 0,0,1
128 860 m 0,20,21
 128 886 128 886 137.5 909 c 128,-1,22
 147 932 147 932 163.5 949 c 128,-1,23
 180 966 180 966 203 976 c 128,-1,24
 226 986 226 986 252 986 c 256,25,26
 278 986 278 986 301 976 c 128,-1,27
 324 966 324 966 341 949 c 128,-1,28
 358 932 358 932 367.5 909 c 128,-1,29
 377 886 377 886 377 860 c 0,30,31
 377 833 377 833 367.5 810.5 c 128,-1,32
 358 788 358 788 341 771 c 128,-1,33
 324 754 324 754 301 744.5 c 128,-1,34
 278 735 278 735 252 735 c 256,35,36
 226 735 226 735 203 744.5 c 128,-1,37
 180 754 180 754 163.5 771 c 128,-1,38
 147 788 147 788 137.5 810.5 c 128,-1,39
 128 833 128 833 128 860 c 0,20,21
EndSplineSet
EndChar

StartChar: semicolon
Encoding: 59 59 30
Width: 504
Flags: W
LayerCount: 2
Fore
SplineSet
134 123 m 0,0,1
 134 146 134 146 142.5 166.5 c 128,-1,2
 151 187 151 187 166.5 202.5 c 128,-1,3
 182 218 182 218 204 227 c 128,-1,4
 226 236 226 236 252 236 c 0,5,6
 282 236 282 236 305.5 225 c 128,-1,7
 329 214 329 214 344.5 194.5 c 128,-1,8
 360 175 360 175 368 149.5 c 128,-1,9
 376 124 376 124 376 94 c 0,10,11
 376 49 376 49 363 0.5 c 128,-1,12
 350 -48 350 -48 326 -95.5 c 128,-1,13
 302 -143 302 -143 266.5 -188 c 128,-1,14
 231 -233 231 -233 186 -271 c 1,15,-1
 156 -242 l 2,16,17
 143 -230 143 -230 143 -214 c 0,18,19
 143 -201 143 -201 157 -187 c 0,20,21
 167 -176 167 -176 182.5 -157.5 c 128,-1,22
 198 -139 198 -139 214 -115 c 128,-1,23
 230 -91 230 -91 243.5 -62 c 128,-1,24
 257 -33 257 -33 263 0 c 1,25,-1
 250 0 l 2,26,27
 224 0 224 0 203 9 c 128,-1,28
 182 18 182 18 166.5 34.5 c 128,-1,29
 151 51 151 51 142.5 73.5 c 128,-1,30
 134 96 134 96 134 123 c 0,0,1
128 860 m 0,31,32
 128 886 128 886 137.5 909 c 128,-1,33
 147 932 147 932 163.5 949 c 128,-1,34
 180 966 180 966 203 976 c 128,-1,35
 226 986 226 986 252 986 c 256,36,37
 278 986 278 986 301 976 c 128,-1,38
 324 966 324 966 341 949 c 128,-1,39
 358 932 358 932 367.5 909 c 128,-1,40
 377 886 377 886 377 860 c 0,41,42
 377 833 377 833 367.5 810.5 c 128,-1,43
 358 788 358 788 341 771 c 128,-1,44
 324 754 324 754 301 744.5 c 128,-1,45
 278 735 278 735 252 735 c 256,46,47
 226 735 226 735 203 744.5 c 128,-1,48
 180 754 180 754 163.5 771 c 128,-1,49
 147 788 147 788 137.5 810.5 c 128,-1,50
 128 833 128 833 128 860 c 0,31,32
EndSplineSet
EndChar

StartChar: less
Encoding: 60 60 31
Width: 1160
Flags: W
LayerCount: 2
Fore
SplineSet
148 710 m 1,0,-1
 922 1111 l 1,1,-1
 922 984 l 2,2,3
 922 967 922 967 914 954.5 c 128,-1,4
 906 942 906 942 886 932 c 2,5,-1
 437 704 l 2,6,7
 417 693 417 693 394.5 685.5 c 128,-1,8
 372 678 372 678 347 672 c 1,9,10
 372 667 372 667 394.5 659 c 128,-1,11
 417 651 417 651 437 641 c 2,12,-1
 886 414 l 2,13,14
 906 404 906 404 914 391 c 128,-1,15
 922 378 922 378 922 362 c 2,16,-1
 922 234 l 1,17,-1
 148 636 l 1,18,-1
 148 710 l 1,0,-1
EndSplineSet
EndChar

StartChar: equal
Encoding: 61 61 32
Width: 1160
Flags: W
LayerCount: 2
Fore
SplineSet
150 574 m 1,0,-1
 1009 574 l 1,1,-1
 1009 439 l 1,2,-1
 150 439 l 1,3,-1
 150 574 l 1,0,-1
150 909 m 1,4,-1
 1009 909 l 1,5,-1
 1009 774 l 1,6,-1
 150 774 l 1,7,-1
 150 909 l 1,4,-1
EndSplineSet
EndChar

StartChar: greater
Encoding: 62 62 33
Width: 1160
Flags: W
LayerCount: 2
Fore
SplineSet
238 234 m 1,0,-1
 238 362 l 2,1,2
 238 378 238 378 246 391 c 128,-1,3
 254 404 254 404 274 414 c 2,4,-1
 723 641 l 2,5,6
 743 651 743 651 764.5 659 c 128,-1,7
 786 667 786 667 811 672 c 1,8,9
 786 678 786 678 764.5 685.5 c 128,-1,10
 743 693 743 693 723 704 c 2,11,-1
 274 932 l 2,12,13
 254 942 254 942 246 954.5 c 128,-1,14
 238 967 238 967 238 984 c 2,15,-1
 238 1111 l 1,16,-1
 1011 710 l 1,17,-1
 1011 636 l 1,18,-1
 238 234 l 1,0,-1
EndSplineSet
EndChar

StartChar: question
Encoding: 63 63 34
Width: 796
Flags: W
LayerCount: 2
Fore
SplineSet
34 1305 m 1,0,1
 65 1334 65 1334 102.5 1360 c 128,-1,2
 140 1386 140 1386 184.5 1406 c 128,-1,3
 229 1426 229 1426 280.5 1437.5 c 128,-1,4
 332 1449 332 1449 392 1449 c 0,5,6
 471 1449 471 1449 538.5 1426 c 128,-1,7
 606 1403 606 1403 655 1361 c 128,-1,8
 704 1319 704 1319 732 1259 c 128,-1,9
 760 1199 760 1199 760 1124 c 0,10,11
 760 1048 760 1048 737.5 993 c 128,-1,12
 715 938 715 938 680.5 896.5 c 128,-1,13
 646 855 646 855 605 824.5 c 128,-1,14
 564 794 564 794 528.5 767 c 128,-1,15
 493 740 493 740 467.5 713 c 128,-1,16
 442 686 442 686 438 653 c 2,17,-1
 420 500 l 1,18,-1
 298 500 l 1,19,-1
 286 666 l 1,20,-1
 286 677 l 2,21,22
 286 719 286 719 308.5 751.5 c 128,-1,23
 331 784 331 784 365.5 812.5 c 128,-1,24
 400 841 400 841 439.5 869.5 c 128,-1,25
 479 898 479 898 513.5 932.5 c 128,-1,26
 548 967 548 967 570.5 1011 c 128,-1,27
 593 1055 593 1055 593 1115 c 0,28,29
 593 1158 593 1158 576 1193 c 128,-1,30
 559 1228 559 1228 530 1252.5 c 128,-1,31
 501 1277 501 1277 461.5 1290 c 128,-1,32
 422 1303 422 1303 377 1303 c 0,33,34
 316 1303 316 1303 272.5 1288 c 128,-1,35
 229 1273 229 1273 199 1255 c 128,-1,36
 169 1237 169 1237 150.5 1222 c 128,-1,37
 132 1207 132 1207 120 1207 c 0,38,39
 95 1207 95 1207 81 1230 c 2,40,-1
 34 1305 l 1,0,1
230 110 m 0,41,42
 230 136 230 136 239.5 159 c 128,-1,43
 249 182 249 182 265.5 199 c 128,-1,44
 282 216 282 216 305 226 c 128,-1,45
 328 236 328 236 354 236 c 256,46,47
 380 236 380 236 403 226 c 128,-1,48
 426 216 426 216 443 199 c 128,-1,49
 460 182 460 182 469.5 159 c 128,-1,50
 479 136 479 136 479 110 c 0,51,52
 479 83 479 83 469.5 60.5 c 128,-1,53
 460 38 460 38 443 21 c 128,-1,54
 426 4 426 4 403 -5.5 c 128,-1,55
 380 -15 380 -15 354 -15 c 256,56,57
 328 -15 328 -15 305 -5.5 c 128,-1,58
 282 4 282 4 265.5 21 c 128,-1,59
 249 38 249 38 239.5 60.5 c 128,-1,60
 230 83 230 83 230 110 c 0,41,42
EndSplineSet
EndChar

StartChar: at
Encoding: 64 64 35
Width: 1644
Flags: W
LayerCount: 2
Fore
SplineSet
1167 186 m 0,0,1
 1089 186 1089 186 1040 223.5 c 128,-1,2
 991 261 991 261 978 339 c 1,3,4
 920 258 920 258 852 223 c 128,-1,5
 784 188 784 188 706 188 c 0,6,7
 646 188 646 188 602 208.5 c 128,-1,8
 558 229 558 229 528.5 265.5 c 128,-1,9
 499 302 499 302 484.5 352 c 128,-1,10
 470 402 470 402 470 460 c 0,11,12
 470 545 470 545 502.5 631.5 c 128,-1,13
 535 718 535 718 599 787.5 c 128,-1,14
 663 857 663 857 758.5 901 c 128,-1,15
 854 945 854 945 979 945 c 0,16,17
 1046 945 1046 945 1096.5 934.5 c 128,-1,18
 1147 924 1147 924 1192 904 c 1,19,-1
 1099 543 l 2,20,21
 1080 468 1080 468 1080 419 c 0,22,23
 1080 383 1080 383 1089 359.5 c 128,-1,24
 1098 336 1098 336 1113.5 322.5 c 128,-1,25
 1129 309 1129 309 1149.5 304 c 128,-1,26
 1170 299 1170 299 1193 299 c 0,27,28
 1242 299 1242 299 1286 327 c 128,-1,29
 1330 355 1330 355 1363.5 406 c 128,-1,30
 1397 457 1397 457 1416.5 528.5 c 128,-1,31
 1436 600 1436 600 1436 687 c 0,32,33
 1436 825 1436 825 1391.5 929 c 128,-1,34
 1347 1033 1347 1033 1269.5 1102.5 c 128,-1,35
 1192 1172 1192 1172 1086.5 1206.5 c 128,-1,36
 981 1241 981 1241 859 1241 c 0,37,38
 725 1241 725 1241 608 1190 c 128,-1,39
 491 1139 491 1139 404 1049 c 128,-1,40
 317 959 317 959 267 836 c 128,-1,41
 217 713 217 713 217 568 c 0,42,43
 217 398 217 398 270.5 269.5 c 128,-1,44
 324 141 324 141 416.5 54 c 128,-1,45
 509 -33 509 -33 633.5 -77 c 128,-1,46
 758 -121 758 -121 901 -121 c 0,47,48
 1053 -121 1053 -121 1169.5 -88 c 128,-1,49
 1286 -55 1286 -55 1371 -4 c 0,50,51
 1386 5 1386 5 1398 5 c 0,52,53
 1419 5 1419 5 1429 -19 c 2,54,-1
 1454 -85 l 1,55,56
 1347 -157 1347 -157 1210.5 -198 c 128,-1,57
 1074 -239 1074 -239 901 -239 c 256,58,59
 728 -239 728 -239 579 -184 c 128,-1,60
 430 -129 430 -129 320.5 -25.5 c 128,-1,61
 211 78 211 78 148.5 228 c 128,-1,62
 86 378 86 378 86 568 c 0,63,64
 86 677 86 677 113.5 778 c 128,-1,65
 141 879 141 879 191 966.5 c 128,-1,66
 241 1054 241 1054 311 1126.5 c 128,-1,67
 381 1199 381 1199 467 1250.5 c 128,-1,68
 553 1302 553 1302 652 1330.5 c 128,-1,69
 751 1359 751 1359 859 1359 c 0,70,71
 951 1359 951 1359 1039 1339 c 128,-1,72
 1127 1319 1127 1319 1205.5 1280 c 128,-1,73
 1284 1241 1284 1241 1350 1183.5 c 128,-1,74
 1416 1126 1416 1126 1463.5 1051.5 c 128,-1,75
 1511 977 1511 977 1537.5 885.5 c 128,-1,76
 1564 794 1564 794 1564 687 c 0,77,78
 1564 579 1564 579 1533.5 487.5 c 128,-1,79
 1503 396 1503 396 1449.5 329 c 128,-1,80
 1396 262 1396 262 1323.5 224 c 128,-1,81
 1251 186 1251 186 1167 186 c 0,0,1
741 306 m 0,82,83
 772 306 772 306 803.5 316 c 128,-1,84
 835 326 835 326 864.5 351 c 128,-1,85
 894 376 894 376 918.5 419 c 128,-1,86
 943 462 943 462 960 527 c 2,87,-1
 1036 822 l 1,88,89
 997 831 997 831 951 831 c 0,90,91
 876 831 876 831 813.5 799.5 c 128,-1,92
 751 768 751 768 706 717 c 128,-1,93
 661 666 661 666 635.5 600 c 128,-1,94
 610 534 610 534 610 465 c 0,95,96
 610 393 610 393 643 349.5 c 128,-1,97
 676 306 676 306 741 306 c 0,82,83
EndSplineSet
EndChar

StartChar: A
Encoding: 65 65 36
Width: 1360
Flags: W
LayerCount: 2
Fore
SplineSet
1353 0 m 1,0,-1
 1203 0 l 2,1,2
 1177 0 1177 0 1161 13 c 128,-1,3
 1145 26 1145 26 1137 46 c 2,4,-1
 1003 392 l 1,5,-1
 360 392 l 1,6,-1
 226 46 l 2,7,8
 219 28 219 28 202 14 c 128,-1,9
 185 0 185 0 160 0 c 2,10,-1
 10 0 l 1,11,-1
 583 1433 l 1,12,-1
 780 1433 l 1,13,-1
 1353 0 l 1,0,-1
414 532 m 1,14,-1
 949 532 l 1,15,-1
 724 1115 l 2,16,17
 702 1169 702 1169 681 1250 c 1,18,19
 670 1209 670 1209 659.5 1174.5 c 128,-1,20
 649 1140 649 1140 639 1114 c 2,21,-1
 414 532 l 1,14,-1
EndSplineSet
EndChar

StartChar: B
Encoding: 66 66 37
Width: 1294
Flags: W
LayerCount: 2
Fore
SplineSet
174 0 m 1,0,-1
 174 1433 l 1,1,-1
 631 1433 l 2,2,3
 763 1433 763 1433 858.5 1407 c 128,-1,4
 954 1381 954 1381 1015.5 1333 c 128,-1,5
 1077 1285 1077 1285 1106.5 1215.5 c 128,-1,6
 1136 1146 1136 1146 1136 1059 c 0,7,8
 1136 1006 1136 1006 1119.5 957 c 128,-1,9
 1103 908 1103 908 1069.5 866 c 128,-1,10
 1036 824 1036 824 985.5 791 c 128,-1,11
 935 758 935 758 867 737 c 1,12,13
 1024 706 1024 706 1104 624 c 128,-1,14
 1184 542 1184 542 1184 408 c 0,15,16
 1184 317 1184 317 1150.5 242 c 128,-1,17
 1117 167 1117 167 1052.5 113 c 128,-1,18
 988 59 988 59 894.5 29.5 c 128,-1,19
 801 0 801 0 681 0 c 2,20,-1
 174 0 l 1,0,-1
368 653 m 1,21,-1
 368 154 l 1,22,-1
 678 154 l 2,23,24
 761 154 761 154 820.5 173 c 128,-1,25
 880 192 880 192 918.5 226.5 c 128,-1,26
 957 261 957 261 975 308.5 c 128,-1,27
 993 356 993 356 993 413 c 0,28,29
 993 524 993 524 914.5 588.5 c 128,-1,30
 836 653 836 653 677 653 c 2,31,-1
 368 653 l 1,21,-1
368 791 m 1,32,-1
 624 791 l 2,33,34
 706 791 706 791 766 809 c 128,-1,35
 826 827 826 827 865.5 859 c 128,-1,36
 905 891 905 891 924 936.5 c 128,-1,37
 943 982 943 982 943 1036 c 0,38,39
 943 1162 943 1162 867 1221 c 128,-1,40
 791 1280 791 1280 631 1280 c 2,41,-1
 368 1280 l 1,42,-1
 368 791 l 1,32,-1
EndSplineSet
EndChar

StartChar: C
Encoding: 67 67 38
Width: 1370
Flags: W
LayerCount: 2
Fore
SplineSet
1184 296 m 256,0,1
 1200 296 1200 296 1213 283 c 2,2,-1
 1289 200 l 1,3,4
 1201 98 1201 98 1075.5 41 c 128,-1,5
 950 -16 950 -16 773 -16 c 0,6,7
 618 -16 618 -16 492 37.5 c 128,-1,8
 366 91 366 91 277 187.5 c 128,-1,9
 188 284 188 284 139 419 c 128,-1,10
 90 554 90 554 90 716 c 256,11,12
 90 878 90 878 142.5 1013 c 128,-1,13
 195 1148 195 1148 290 1245 c 128,-1,14
 385 1342 385 1342 517.5 1395.5 c 128,-1,15
 650 1449 650 1449 810 1449 c 0,16,17
 968 1449 968 1449 1082.5 1400 c 128,-1,18
 1197 1351 1197 1351 1286 1267 c 1,19,-1
 1223 1178 l 2,20,21
 1216 1168 1216 1168 1207 1161.5 c 128,-1,22
 1198 1155 1198 1155 1181 1155 c 0,23,24
 1168 1155 1168 1155 1153.5 1164.5 c 128,-1,25
 1139 1174 1139 1174 1119 1188 c 128,-1,26
 1099 1202 1099 1202 1072 1218 c 128,-1,27
 1045 1234 1045 1234 1008 1248 c 128,-1,28
 971 1262 971 1262 922 1271.5 c 128,-1,29
 873 1281 873 1281 809 1281 c 0,30,31
 694 1281 694 1281 598.5 1241.5 c 128,-1,32
 503 1202 503 1202 434 1129 c 128,-1,33
 365 1056 365 1056 326.5 951 c 128,-1,34
 288 846 288 846 288 716 c 0,35,36
 288 582 288 582 326.5 477 c 128,-1,37
 365 372 365 372 431.5 299.5 c 128,-1,38
 498 227 498 227 589 189 c 128,-1,39
 680 151 680 151 785 151 c 0,40,41
 849 151 849 151 900 158.5 c 128,-1,42
 951 166 951 166 994.5 182 c 128,-1,43
 1038 198 1038 198 1075.5 222.5 c 128,-1,44
 1113 247 1113 247 1151 281 c 0,45,46
 1168 296 1168 296 1184 296 c 256,0,1
EndSplineSet
EndChar

StartChar: D
Encoding: 68 68 39
Width: 1506
Flags: W
LayerCount: 2
Fore
SplineSet
1416 716 m 256,0,1
 1416 555 1416 555 1365 423 c 128,-1,2
 1314 291 1314 291 1221 197 c 128,-1,3
 1128 103 1128 103 998 51.5 c 128,-1,4
 868 0 868 0 710 0 c 2,5,-1
 174 0 l 1,6,-1
 174 1433 l 1,7,-1
 710 1433 l 2,8,9
 868 1433 868 1433 998 1381.5 c 128,-1,10
 1128 1330 1128 1330 1221 1235.5 c 128,-1,11
 1314 1141 1314 1141 1365 1009 c 128,-1,12
 1416 877 1416 877 1416 716 c 256,0,1
1217 716 m 256,13,14
 1217 848 1217 848 1181 952 c 128,-1,15
 1145 1056 1145 1056 1079 1128 c 128,-1,16
 1013 1200 1013 1200 919 1238 c 128,-1,17
 825 1276 825 1276 710 1276 c 2,18,-1
 369 1276 l 1,19,-1
 369 157 l 1,20,-1
 710 157 l 2,21,22
 825 157 825 157 919 195 c 128,-1,23
 1013 233 1013 233 1079 304.5 c 128,-1,24
 1145 376 1145 376 1181 480 c 128,-1,25
 1217 584 1217 584 1217 716 c 256,13,14
EndSplineSet
EndChar

StartChar: E
Encoding: 69 69 40
Width: 1162
Flags: W
LayerCount: 2
Fore
SplineSet
1057 1433 m 1,0,-1
 1057 1275 l 1,1,-1
 369 1275 l 1,2,-1
 369 799 l 1,3,-1
 926 799 l 1,4,-1
 926 647 l 1,5,-1
 369 647 l 1,6,-1
 369 158 l 1,7,-1
 1057 158 l 1,8,-1
 1057 0 l 1,9,-1
 174 0 l 1,10,-1
 174 1433 l 1,11,-1
 1057 1433 l 1,0,-1
EndSplineSet
EndChar

StartChar: F
Encoding: 70 70 41
Width: 1132
Flags: W
LayerCount: 2
Fore
SplineSet
1057 1433 m 1,0,-1
 1057 1275 l 1,1,-1
 369 1275 l 1,2,-1
 369 774 l 1,3,-1
 957 774 l 1,4,-1
 957 616 l 1,5,-1
 369 616 l 1,6,-1
 369 0 l 1,7,-1
 174 0 l 1,8,-1
 174 1433 l 1,9,-1
 1057 1433 l 1,0,-1
EndSplineSet
EndChar

StartChar: G
Encoding: 71 71 42
Width: 1468
Flags: W
LayerCount: 2
Fore
SplineSet
813 141 m 0,0,1
 871 141 871 141 919.5 146.5 c 128,-1,2
 968 152 968 152 1011 163 c 128,-1,3
 1054 174 1054 174 1092 189.5 c 128,-1,4
 1130 205 1130 205 1168 225 c 1,5,-1
 1168 541 l 1,6,-1
 946 541 l 2,7,8
 927 541 927 541 915.5 552 c 128,-1,9
 904 563 904 563 904 579 c 2,10,-1
 904 689 l 1,11,-1
 1344 689 l 1,12,-1
 1344 139 l 1,13,14
 1290 100 1290 100 1231.5 71 c 128,-1,15
 1173 42 1173 42 1106.5 22.5 c 128,-1,16
 1040 3 1040 3 964 -6.5 c 128,-1,17
 888 -16 888 -16 799 -16 c 0,18,19
 643 -16 643 -16 513 37.5 c 128,-1,20
 383 91 383 91 289 187.5 c 128,-1,21
 195 284 195 284 142.5 419 c 128,-1,22
 90 554 90 554 90 716 c 0,23,24
 90 880 90 880 141.5 1015 c 128,-1,25
 193 1150 193 1150 288.5 1246.5 c 128,-1,26
 384 1343 384 1343 519.5 1396 c 128,-1,27
 655 1449 655 1449 823 1449 c 0,28,29
 908 1449 908 1449 981 1436.5 c 128,-1,30
 1054 1424 1054 1424 1116.5 1400.5 c 128,-1,31
 1179 1377 1179 1377 1232 1343.5 c 128,-1,32
 1285 1310 1285 1310 1331 1268 c 1,33,-1
 1276 1180 l 2,34,35
 1259 1153 1259 1153 1232 1153 c 0,36,37
 1216 1153 1216 1153 1197 1164 c 0,38,39
 1172 1178 1172 1178 1141 1198 c 128,-1,40
 1110 1218 1110 1218 1065.5 1236.5 c 128,-1,41
 1021 1255 1021 1255 960.5 1268 c 128,-1,42
 900 1281 900 1281 817 1281 c 0,43,44
 696 1281 696 1281 598 1241.5 c 128,-1,45
 500 1202 500 1202 431 1128.5 c 128,-1,46
 362 1055 362 1055 325 950.5 c 128,-1,47
 288 846 288 846 288 716 c 0,48,49
 288 580 288 580 326.5 473.5 c 128,-1,50
 365 367 365 367 435 293 c 128,-1,51
 505 219 505 219 601 180 c 128,-1,52
 697 141 697 141 813 141 c 0,0,1
EndSplineSet
EndChar

StartChar: H
Encoding: 72 72 43
Width: 1512
Flags: W
LayerCount: 2
Fore
SplineSet
1336 0 m 1,0,-1
 1141 0 l 1,1,-1
 1141 652 l 1,2,-1
 369 652 l 1,3,-1
 369 0 l 1,4,-1
 174 0 l 1,5,-1
 174 1433 l 1,6,-1
 369 1433 l 1,7,-1
 369 794 l 1,8,-1
 1141 794 l 1,9,-1
 1141 1433 l 1,10,-1
 1336 1433 l 1,11,-1
 1336 0 l 1,0,-1
EndSplineSet
EndChar

StartChar: I
Encoding: 73 73 44
Width: 614
Flags: W
LayerCount: 2
Fore
SplineSet
404 0 m 1,0,-1
 210 0 l 1,1,-1
 210 1433 l 1,2,-1
 404 1433 l 1,3,-1
 404 0 l 1,0,-1
EndSplineSet
EndChar

StartChar: J
Encoding: 74 74 45
Width: 888
Flags: W
LayerCount: 2
Fore
SplineSet
713 495 m 2,0,1
 713 375 713 375 683.5 280 c 128,-1,2
 654 185 654 185 596.5 119.5 c 128,-1,3
 539 54 539 54 455 19 c 128,-1,4
 371 -16 371 -16 262 -16 c 0,5,6
 165 -16 165 -16 60 12 c 1,7,8
 62 41 62 41 65 69.5 c 128,-1,9
 68 98 68 98 71 126 c 0,10,11
 73 143 73 143 83.5 153.5 c 128,-1,12
 94 164 94 164 115 164 c 0,13,14
 133 164 133 164 163 155 c 128,-1,15
 193 146 193 146 243 146 c 0,16,17
 309 146 309 146 360.5 166 c 128,-1,18
 412 186 412 186 447.5 228 c 128,-1,19
 483 270 483 270 501.5 335.5 c 128,-1,20
 520 401 520 401 520 491 c 2,21,-1
 520 1433 l 1,22,-1
 713 1433 l 1,23,-1
 713 495 l 2,0,1
EndSplineSet
EndChar

StartChar: K
Encoding: 75 75 46
Width: 1362
Flags: W
LayerCount: 2
Fore
SplineSet
387 805 m 1,0,-1
 460 805 l 2,1,2
 498 805 498 805 520.5 814.5 c 128,-1,3
 543 824 543 824 563 847 c 2,4,-1
 1040 1387 l 2,5,6
 1062 1412 1062 1412 1082.5 1422.5 c 128,-1,7
 1103 1433 1103 1433 1135 1433 c 2,8,-1
 1300 1433 l 1,9,-1
 754 816 l 2,10,11
 733 793 733 793 714.5 777 c 128,-1,12
 696 761 696 761 675 751 c 1,13,14
 703 742 703 742 724 724 c 128,-1,15
 745 706 745 706 768 679 c 2,16,-1
 1338 0 l 1,17,-1
 1170 0 l 2,18,19
 1151 0 1151 0 1138 3 c 128,-1,20
 1125 6 1125 6 1115.5 11 c 128,-1,21
 1106 16 1106 16 1098 24 c 128,-1,22
 1090 32 1090 32 1082 41 c 2,23,-1
 587 610 l 2,24,25
 576 622 576 622 566.5 630.5 c 128,-1,26
 557 639 557 639 544.5 645 c 128,-1,27
 532 651 532 651 515.5 653.5 c 128,-1,28
 499 656 499 656 475 656 c 2,29,-1
 387 656 l 1,30,-1
 387 0 l 1,31,-1
 194 0 l 1,32,-1
 194 1433 l 1,33,-1
 387 1433 l 1,34,-1
 387 805 l 1,0,-1
EndSplineSet
EndChar

StartChar: L
Encoding: 76 76 47
Width: 1028
Flags: W
LayerCount: 2
Fore
SplineSet
368 163 m 1,0,-1
 988 163 l 1,1,-1
 988 0 l 1,2,-1
 174 0 l 1,3,-1
 174 1433 l 1,4,-1
 368 1433 l 1,5,-1
 368 163 l 1,0,-1
EndSplineSet
EndChar

StartChar: M
Encoding: 77 77 48
Width: 1840
Flags: W
LayerCount: 2
Fore
SplineSet
879 518 m 1,0,1
 893 494 893 494 903.5 467.5 c 128,-1,2
 914 441 914 441 924 414 c 1,3,4
 934 442 934 442 945 467.5 c 128,-1,5
 956 493 956 493 970 519 c 2,6,-1
 1455 1400 l 2,7,8
 1468 1423 1468 1423 1482 1428 c 128,-1,9
 1496 1433 1496 1433 1522 1433 c 2,10,-1
 1665 1433 l 1,11,-1
 1665 0 l 1,12,-1
 1495 0 l 1,13,-1
 1495 1053 l 2,14,15
 1495 1074 1495 1074 1496 1098 c 128,-1,16
 1497 1122 1497 1122 1499 1147 c 1,17,-1
 1008 251 l 2,18,19
 983 206 983 206 938 206 c 2,20,-1
 910 206 l 2,21,22
 865 206 865 206 840 251 c 2,23,-1
 338 1150 l 1,24,25
 341 1124 341 1124 342.5 1099 c 128,-1,26
 344 1074 344 1074 344 1053 c 2,27,-1
 344 0 l 1,28,-1
 174 0 l 1,29,-1
 174 1433 l 1,30,-1
 317 1433 l 2,31,32
 343 1433 343 1433 357 1428 c 128,-1,33
 371 1423 371 1423 384 1400 c 2,34,-1
 879 518 l 1,35,-1
 879 518 l 1,0,1
EndSplineSet
EndChar

StartChar: N
Encoding: 78 78 49
Width: 1512
Flags: W
LayerCount: 2
Fore
SplineSet
274 1433 m 1,0,1
 300 1433 300 1433 312.5 1426.5 c 128,-1,2
 325 1420 325 1420 341 1400 c 2,3,-1
 1171 320 l 1,4,5
 1168 346 1168 346 1167 370.5 c 128,-1,6
 1166 395 1166 395 1166 418 c 2,7,-1
 1166 1433 l 1,8,-1
 1336 1433 l 1,9,-1
 1336 0 l 1,10,-1
 1238 0 l 2,11,12
 1215 0 1215 0 1199.5 8 c 128,-1,13
 1184 16 1184 16 1169 35 c 2,14,-1
 340 1114 l 1,15,16
 342 1089 342 1089 343 1065 c 128,-1,17
 344 1041 344 1041 344 1021 c 2,18,-1
 344 0 l 1,19,-1
 174 0 l 1,20,-1
 174 1433 l 1,21,-1
 274 1433 l 1,22,-1
 274 1433 l 1,0,1
EndSplineSet
EndChar

StartChar: O
Encoding: 79 79 50
Width: 1596
Flags: W
LayerCount: 2
Fore
SplineSet
1505 716 m 256,0,1
 1505 555 1505 555 1454 420.5 c 128,-1,2
 1403 286 1403 286 1310 189 c 128,-1,3
 1217 92 1217 92 1086.5 38.5 c 128,-1,4
 956 -15 956 -15 798 -15 c 256,5,6
 640 -15 640 -15 510 38.5 c 128,-1,7
 380 92 380 92 287 189 c 128,-1,8
 194 286 194 286 143 420.5 c 128,-1,9
 92 555 92 555 92 716 c 256,10,11
 92 877 92 877 143 1011.5 c 128,-1,12
 194 1146 194 1146 287 1243.5 c 128,-1,13
 380 1341 380 1341 510 1395 c 128,-1,14
 640 1449 640 1449 798 1449 c 256,15,16
 956 1449 956 1449 1086.5 1395 c 128,-1,17
 1217 1341 1217 1341 1310 1243.5 c 128,-1,18
 1403 1146 1403 1146 1454 1011.5 c 128,-1,19
 1505 877 1505 877 1505 716 c 256,0,1
1306 716 m 256,20,21
 1306 848 1306 848 1270 953 c 128,-1,22
 1234 1058 1234 1058 1168 1130.5 c 128,-1,23
 1102 1203 1102 1203 1008 1242 c 128,-1,24
 914 1281 914 1281 798 1281 c 0,25,26
 683 1281 683 1281 589 1242 c 128,-1,27
 495 1203 495 1203 428.5 1130.5 c 128,-1,28
 362 1058 362 1058 326 953 c 128,-1,29
 290 848 290 848 290 716 c 256,30,31
 290 584 290 584 326 479.5 c 128,-1,32
 362 375 362 375 428.5 302.5 c 128,-1,33
 495 230 495 230 589 191.5 c 128,-1,34
 683 153 683 153 798 153 c 0,35,36
 914 153 914 153 1008 191.5 c 128,-1,37
 1102 230 1102 230 1168 302.5 c 128,-1,38
 1234 375 1234 375 1270 479.5 c 128,-1,39
 1306 584 1306 584 1306 716 c 256,20,21
EndSplineSet
EndChar

StartChar: P
Encoding: 80 80 51
Width: 1222
Flags: W
LayerCount: 2
Fore
SplineSet
387 536 m 1,0,-1
 387 0 l 1,1,-1
 194 0 l 1,2,-1
 194 1433 l 1,3,-1
 617 1433 l 2,4,5
 753 1433 753 1433 853.5 1401.5 c 128,-1,6
 954 1370 954 1370 1020 1312 c 128,-1,7
 1086 1254 1086 1254 1118.5 1172 c 128,-1,8
 1151 1090 1151 1090 1151 989 c 0,9,10
 1151 889 1151 889 1116 806 c 128,-1,11
 1081 723 1081 723 1013.5 663 c 128,-1,12
 946 603 946 603 846 569.5 c 128,-1,13
 746 536 746 536 617 536 c 2,14,-1
 387 536 l 1,0,-1
387 690 m 1,15,-1
 617 690 l 2,16,17
 700 690 700 690 763.5 712 c 128,-1,18
 827 734 827 734 870 773.5 c 128,-1,19
 913 813 913 813 935 868 c 128,-1,20
 957 923 957 923 957 989 c 0,21,22
 957 1126 957 1126 872.5 1203 c 128,-1,23
 788 1280 788 1280 617 1280 c 2,24,-1
 387 1280 l 1,25,-1
 387 690 l 1,15,-1
EndSplineSet
EndChar

StartChar: Q
Encoding: 81 81 52
Width: 1596
Flags: W
LayerCount: 2
Fore
SplineSet
1505 716 m 0,0,1
 1505 615 1505 615 1484.5 524 c 128,-1,2
 1464 433 1464 433 1425 354.5 c 128,-1,3
 1386 276 1386 276 1330 212 c 128,-1,4
 1274 148 1274 148 1204 101 c 1,5,-1
 1572 -296 l 1,6,-1
 1412 -296 l 2,7,8
 1376 -296 1376 -296 1348 -286 c 128,-1,9
 1320 -276 1320 -276 1297 -251 c 2,10,-1
 1045 23 l 1,11,12
 988 5 988 5 926.5 -5 c 128,-1,13
 865 -15 865 -15 798 -15 c 0,14,15
 640 -15 640 -15 510 38.5 c 128,-1,16
 380 92 380 92 287 189 c 128,-1,17
 194 286 194 286 143 420.5 c 128,-1,18
 92 555 92 555 92 716 c 256,19,20
 92 877 92 877 143 1011.5 c 128,-1,21
 194 1146 194 1146 287 1243.5 c 128,-1,22
 380 1341 380 1341 510 1395 c 128,-1,23
 640 1449 640 1449 798 1449 c 256,24,25
 956 1449 956 1449 1086.5 1395 c 128,-1,26
 1217 1341 1217 1341 1310 1243.5 c 128,-1,27
 1403 1146 1403 1146 1454 1011.5 c 128,-1,28
 1505 877 1505 877 1505 716 c 0,0,1
1306 716 m 256,29,30
 1306 848 1306 848 1270 953 c 128,-1,31
 1234 1058 1234 1058 1168 1130.5 c 128,-1,32
 1102 1203 1102 1203 1008 1242 c 128,-1,33
 914 1281 914 1281 798 1281 c 0,34,35
 683 1281 683 1281 589 1242 c 128,-1,36
 495 1203 495 1203 428.5 1130.5 c 128,-1,37
 362 1058 362 1058 326 953 c 128,-1,38
 290 848 290 848 290 716 c 256,39,40
 290 584 290 584 326 479.5 c 128,-1,41
 362 375 362 375 428.5 302.5 c 128,-1,42
 495 230 495 230 589 191.5 c 128,-1,43
 683 153 683 153 798 153 c 0,44,45
 914 153 914 153 1008 191.5 c 128,-1,46
 1102 230 1102 230 1168 302.5 c 128,-1,47
 1234 375 1234 375 1270 479.5 c 128,-1,48
 1306 584 1306 584 1306 716 c 256,29,30
EndSplineSet
EndChar

StartChar: R
Encoding: 82 82 53
Width: 1288
Flags: W
LayerCount: 2
Fore
SplineSet
387 598 m 1,0,-1
 387 0 l 1,1,-1
 194 0 l 1,2,-1
 194 1433 l 1,3,-1
 599 1433 l 2,4,5
 735 1433 735 1433 834 1405.5 c 128,-1,6
 933 1378 933 1378 997.5 1326 c 128,-1,7
 1062 1274 1062 1274 1093 1200.5 c 128,-1,8
 1124 1127 1124 1127 1124 1036 c 0,9,10
 1124 960 1124 960 1100 894 c 128,-1,11
 1076 828 1076 828 1030.5 775.5 c 128,-1,12
 985 723 985 723 919.5 686 c 128,-1,13
 854 649 854 649 771 630 c 1,14,15
 807 609 807 609 835 569 c 2,16,-1
 1253 0 l 1,17,-1
 1081 0 l 2,18,19
 1028 0 1028 0 1003 41 c 2,20,-1
 631 553 l 2,21,22
 614 577 614 577 594 587.5 c 128,-1,23
 574 598 574 598 534 598 c 2,24,-1
 387 598 l 1,0,-1
387 739 m 1,25,-1
 590 739 l 2,26,27
 675 739 675 739 739.5 759.5 c 128,-1,28
 804 780 804 780 847.5 817.5 c 128,-1,29
 891 855 891 855 913 907 c 128,-1,30
 935 959 935 959 935 1022 c 0,31,32
 935 1150 935 1150 850.5 1215 c 128,-1,33
 766 1280 766 1280 599 1280 c 2,34,-1
 387 1280 l 1,35,-1
 387 739 l 1,25,-1
EndSplineSet
EndChar

StartChar: S
Encoding: 83 83 54
Width: 1060
Flags: W
LayerCount: 2
Fore
SplineSet
908 1209 m 2,0,1
 899 1194 899 1194 889 1186.5 c 128,-1,2
 879 1179 879 1179 863 1179 c 0,3,4
 846 1179 846 1179 823.5 1196 c 128,-1,5
 801 1213 801 1213 766.5 1233.5 c 128,-1,6
 732 1254 732 1254 683.5 1271 c 128,-1,7
 635 1288 635 1288 566 1288 c 0,8,9
 501 1288 501 1288 451 1270.5 c 128,-1,10
 401 1253 401 1253 367.5 1223 c 128,-1,11
 334 1193 334 1193 317 1152.5 c 128,-1,12
 300 1112 300 1112 300 1065 c 0,13,14
 300 1005 300 1005 329.5 965.5 c 128,-1,15
 359 926 359 926 407.5 898 c 128,-1,16
 456 870 456 870 517.5 849.5 c 128,-1,17
 579 829 579 829 643.5 807 c 128,-1,18
 708 785 708 785 769.5 757.5 c 128,-1,19
 831 730 831 730 879.5 688 c 128,-1,20
 928 646 928 646 957.5 585 c 128,-1,21
 987 524 987 524 987 435 c 0,22,23
 987 341 987 341 955 258.5 c 128,-1,24
 923 176 923 176 861.5 115 c 128,-1,25
 800 54 800 54 710.5 19 c 128,-1,26
 621 -16 621 -16 507 -16 c 0,27,28
 368 -16 368 -16 253.5 34.5 c 128,-1,29
 139 85 139 85 58 171 c 1,30,-1
 114 263 l 2,31,32
 122 274 122 274 133.5 281.5 c 128,-1,33
 145 289 145 289 159 289 c 0,34,35
 180 289 180 289 207 266.5 c 128,-1,36
 234 244 234 244 274.5 217 c 128,-1,37
 315 190 315 190 372.5 167.5 c 128,-1,38
 430 145 430 145 513 145 c 0,39,40
 582 145 582 145 636 164 c 128,-1,41
 690 183 690 183 727.5 217.5 c 128,-1,42
 765 252 765 252 785 300 c 128,-1,43
 805 348 805 348 805 407 c 0,44,45
 805 472 805 472 775.5 513.5 c 128,-1,46
 746 555 746 555 698 583 c 128,-1,47
 650 611 650 611 588.5 630.5 c 128,-1,48
 527 650 527 650 462.5 670.5 c 128,-1,49
 398 691 398 691 336.5 718 c 128,-1,50
 275 745 275 745 227 788 c 128,-1,51
 179 831 179 831 149.5 895.5 c 128,-1,52
 120 960 120 960 120 1055 c 0,53,54
 120 1131 120 1131 149.5 1202 c 128,-1,55
 179 1273 179 1273 235 1328 c 128,-1,56
 291 1383 291 1383 373.5 1416 c 128,-1,57
 456 1449 456 1449 563 1449 c 0,58,59
 683 1449 683 1449 782 1411 c 128,-1,60
 881 1373 881 1373 955 1301 c 1,61,-1
 908 1209 l 2,0,1
EndSplineSet
EndChar

StartChar: T
Encoding: 84 84 55
Width: 1180
Flags: W
LayerCount: 2
Fore
SplineSet
1150 1433 m 1,0,-1
 1150 1270 l 1,1,-1
 687 1270 l 1,2,-1
 687 0 l 1,3,-1
 493 0 l 1,4,-1
 493 1270 l 1,5,-1
 28 1270 l 1,6,-1
 28 1433 l 1,7,-1
 1150 1433 l 1,0,-1
EndSplineSet
EndChar

StartChar: U
Encoding: 85 85 56
Width: 1460
Flags: W
LayerCount: 2
Fore
SplineSet
731 154 m 256,0,1
 820 154 820 154 890 184 c 128,-1,2
 960 214 960 214 1008.5 268 c 128,-1,3
 1057 322 1057 322 1082.5 397 c 128,-1,4
 1108 472 1108 472 1108 562 c 2,5,-1
 1108 1433 l 1,6,-1
 1301 1433 l 1,7,-1
 1301 562 l 2,8,9
 1301 438 1301 438 1261.5 332 c 128,-1,10
 1222 226 1222 226 1148.5 148.5 c 128,-1,11
 1075 71 1075 71 969 27 c 128,-1,12
 863 -17 863 -17 731 -17 c 256,13,14
 599 -17 599 -17 493 27 c 128,-1,15
 387 71 387 71 313 148.5 c 128,-1,16
 239 226 239 226 199.5 332 c 128,-1,17
 160 438 160 438 160 562 c 2,18,-1
 160 1433 l 1,19,-1
 353 1433 l 1,20,-1
 353 563 l 2,21,22
 353 473 353 473 378.5 398 c 128,-1,23
 404 323 404 323 452.5 269 c 128,-1,24
 501 215 501 215 571.5 184.5 c 128,-1,25
 642 154 642 154 731 154 c 256,0,1
EndSplineSet
EndChar

StartChar: V
Encoding: 86 86 57
Width: 1360
Flags: W
LayerCount: 2
Fore
SplineSet
8 1433 m 1,0,-1
 163 1433 l 2,1,2
 189 1433 189 1433 205 1420 c 128,-1,3
 221 1407 221 1407 229 1387 c 2,4,-1
 634 376 l 2,5,6
 648 342 648 342 659.5 302 c 128,-1,7
 671 262 671 262 682 219 c 1,8,9
 691 262 691 262 701.5 302 c 128,-1,10
 712 342 712 342 726 376 c 2,11,-1
 1129 1387 l 2,12,13
 1136 1404 1136 1404 1153 1418.5 c 128,-1,14
 1170 1433 1170 1433 1195 1433 c 2,15,-1
 1351 1433 l 1,16,-1
 767 0 l 1,17,-1
 592 0 l 1,18,-1
 8 1433 l 1,0,-1
EndSplineSet
EndChar

StartChar: W
Encoding: 87 87 58
Width: 2038
Flags: W
LayerCount: 2
Fore
SplineSet
14 1433 m 1,0,-1
 175 1433 l 2,1,2
 201 1433 201 1433 218 1420 c 128,-1,3
 235 1407 235 1407 241 1387 c 2,4,-1
 537 391 l 2,5,6
 545 364 545 364 551.5 333 c 128,-1,7
 558 302 558 302 564 268 c 1,8,9
 571 302 571 302 578 333.5 c 128,-1,10
 585 365 585 365 594 391 c 2,11,-1
 931 1387 l 2,12,13
 937 1404 937 1404 954.5 1418.5 c 128,-1,14
 972 1433 972 1433 997 1433 c 2,15,-1
 1053 1433 l 2,16,17
 1079 1433 1079 1433 1095.5 1420 c 128,-1,18
 1112 1407 1112 1407 1119 1387 c 2,19,-1
 1454 391 l 2,20,21
 1472 339 1472 339 1486 272 c 1,22,23
 1492 305 1492 305 1497 335 c 128,-1,24
 1502 365 1502 365 1510 391 c 2,25,-1
 1807 1387 l 2,26,27
 1812 1405 1812 1405 1829.5 1419 c 128,-1,28
 1847 1433 1847 1433 1872 1433 c 2,29,-1
 2023 1433 l 1,30,-1
 1576 0 l 1,31,-1
 1402 0 l 1,32,-1
 1039 1093 l 2,33,34
 1028 1124 1028 1124 1019 1165 c 1,35,36
 1014 1145 1014 1145 1009.5 1126.5 c 128,-1,37
 1005 1108 1005 1108 1000 1093 c 2,38,-1
 635 0 l 1,39,-1
 461 0 l 1,40,-1
 14 1433 l 1,0,-1
EndSplineSet
EndChar

StartChar: X
Encoding: 88 88 59
Width: 1286
Flags: W
LayerCount: 2
Fore
SplineSet
507 736 m 1,0,-1
 34 1433 l 1,1,-1
 227 1433 l 2,2,3
 248 1433 248 1433 258 1426 c 128,-1,4
 268 1419 268 1419 276 1406 c 2,5,-1
 650 832 l 1,6,7
 657 853 657 853 671 878 c 2,8,-1
 1024 1402 l 2,9,10
 1033 1416 1033 1416 1043.5 1424.5 c 128,-1,11
 1054 1433 1054 1433 1069 1433 c 2,12,-1
 1254 1433 l 1,13,-1
 779 745 l 1,14,-1
 1270 0 l 1,15,-1
 1078 0 l 2,16,17
 1056 0 1056 0 1043.5 11.5 c 128,-1,18
 1031 23 1031 23 1023 37 c 2,19,-1
 639 638 l 1,20,21
 632 617 632 617 621 598 c 2,22,-1
 247 37 l 2,23,24
 238 23 238 23 226.5 11.5 c 128,-1,25
 215 0 215 0 194 0 c 2,26,-1
 14 0 l 1,27,-1
 507 736 l 1,0,-1
EndSplineSet
EndChar

StartChar: Y
Encoding: 89 89 60
Width: 1258
Flags: W
LayerCount: 2
Fore
SplineSet
726 570 m 1,0,-1
 726 0 l 1,1,-1
 533 0 l 1,2,-1
 533 570 l 1,3,-1
 8 1433 l 1,4,-1
 178 1433 l 2,5,6
 204 1433 204 1433 219 1420 c 128,-1,7
 234 1407 234 1407 245 1388 c 2,8,-1
 573 831 l 2,9,10
 593 796 593 796 606.5 765 c 128,-1,11
 620 734 620 734 631 704 c 1,12,13
 642 735 642 735 655 766 c 128,-1,14
 668 797 668 797 688 831 c 2,15,-1
 1015 1388 l 2,16,17
 1024 1404 1024 1404 1039.5 1418.5 c 128,-1,18
 1055 1433 1055 1433 1080 1433 c 2,19,-1
 1252 1433 l 1,20,-1
 726 570 l 1,0,-1
EndSplineSet
EndChar

StartChar: Z
Encoding: 90 90 61
Width: 1248
Flags: W
LayerCount: 2
Fore
SplineSet
1172 1433 m 1,0,-1
 1172 1361 l 2,1,2
 1172 1327 1172 1327 1151 1297 c 2,3,-1
 340 158 l 1,4,-1
 1158 158 l 1,5,-1
 1158 0 l 1,6,-1
 86 0 l 1,7,-1
 86 76 l 2,8,9
 86 106 86 106 105 133 c 2,10,-1
 917 1275 l 1,11,-1
 124 1275 l 1,12,-1
 124 1433 l 1,13,-1
 1172 1433 l 1,0,-1
EndSplineSet
EndChar

StartChar: bracketleft
Encoding: 91 91 62
Width: 600
Flags: W
LayerCount: 2
Fore
SplineSet
142 -289 m 1,0,-1
 142 1533 l 1,1,-1
 510 1533 l 1,2,-1
 510 1463 l 2,3,4
 510 1441 510 1441 496.5 1428.5 c 128,-1,5
 483 1416 483 1416 461 1416 c 2,6,-1
 292 1416 l 1,7,-1
 292 -171 l 1,8,-1
 461 -171 l 2,9,10
 483 -171 483 -171 496.5 -183.5 c 128,-1,11
 510 -196 510 -196 510 -219 c 2,12,-1
 510 -289 l 1,13,-1
 142 -289 l 1,0,-1
EndSplineSet
EndChar

StartChar: backslash
Encoding: 92 92 63
Width: 750
Flags: W
LayerCount: 2
Fore
SplineSet
-20 1473 m 1,0,-1
 56 1473 l 2,1,2
 89 1473 89 1473 113 1456 c 128,-1,3
 137 1439 137 1439 150 1407 c 2,4,-1
 751 -90 l 1,5,-1
 676 -90 l 2,6,7
 647 -90 647 -90 619 -73 c 128,-1,8
 591 -56 591 -56 578 -21 c 2,9,-1
 -20 1473 l 1,0,-1
EndSplineSet
EndChar

StartChar: bracketright
Encoding: 93 93 64
Width: 600
Flags: W
LayerCount: 2
Fore
SplineSet
90 -219 m 2,0,1
 90 -199 90 -199 103.5 -185 c 128,-1,2
 117 -171 117 -171 139 -171 c 2,3,-1
 308 -171 l 1,4,-1
 308 1416 l 1,5,-1
 139 1416 l 2,6,7
 117 1416 117 1416 103.5 1429.5 c 128,-1,8
 90 1443 90 1443 90 1463 c 2,9,-1
 90 1533 l 1,10,-1
 458 1533 l 1,11,-1
 458 -289 l 1,12,-1
 90 -289 l 1,13,-1
 90 -219 l 2,0,1
EndSplineSet
EndChar

StartChar: asciicircum
Encoding: 94 94 65
Width: 1160
Flags: W
LayerCount: 2
Fore
SplineSet
516 1433 m 1,0,-1
 631 1433 l 1,1,-1
 989 787 l 1,2,-1
 860 787 l 2,3,4
 843 787 843 787 831 797 c 128,-1,5
 819 807 819 807 811 821 c 2,6,-1
 615 1173 l 2,7,8
 602 1196 602 1196 592.5 1217.5 c 128,-1,9
 583 1239 583 1239 576 1260 c 1,10,11
 562 1216 562 1216 539 1173 c 2,12,-1
 345 821 l 2,13,14
 337 807 337 807 325.5 797 c 128,-1,15
 314 787 314 787 294 787 c 2,16,-1
 158 787 l 1,17,-1
 516 1433 l 1,0,-1
EndSplineSet
EndChar

StartChar: underscore
Encoding: 95 95 66
Width: 788
Flags: W
LayerCount: 2
Fore
SplineSet
788 -165 m 1,0,-1
 788 -285 l 1,1,-1
 0 -285 l 1,2,-1
 0 -165 l 1,3,-1
 788 -165 l 1,0,-1
EndSplineSet
EndChar

StartChar: grave
Encoding: 96 96 67
Width: 614
Flags: W
LayerCount: 2
Fore
SplineSet
207 1449 m 2,0,1
 240 1449 240 1449 256 1438.5 c 128,-1,2
 272 1428 272 1428 286 1405 c 2,3,-1
 435 1163 l 1,4,-1
 333 1163 l 2,5,6
 312 1163 312 1163 299 1169.5 c 128,-1,7
 286 1176 286 1176 272 1191 c 2,8,-1
 38 1449 l 1,9,-1
 207 1449 l 2,0,1
EndSplineSet
Substitution2: "'case' Case-Sensitive Forms in Latin lookup 0 subtable" grave.case
EndChar

StartChar: a
Encoding: 97 97 68
Width: 1014
Flags: W
LayerCount: 2
Fore
SplineSet
890 0 m 1,0,-1
 811 0 l 2,1,2
 785 0 785 0 769 8 c 128,-1,3
 753 16 753 16 748 42 c 2,4,-1
 728 136 l 1,5,6
 688 100 688 100 650 71.5 c 128,-1,7
 612 43 612 43 570 23.5 c 128,-1,8
 528 4 528 4 480.5 -6 c 128,-1,9
 433 -16 433 -16 375 -16 c 0,10,11
 316 -16 316 -16 264.5 0.5 c 128,-1,12
 213 17 213 17 175 50 c 128,-1,13
 137 83 137 83 114.5 133.5 c 128,-1,14
 92 184 92 184 92 253 c 0,15,16
 92 313 92 313 125 368.5 c 128,-1,17
 158 424 158 424 231.5 467 c 128,-1,18
 305 510 305 510 424 537.5 c 128,-1,19
 543 565 543 565 715 569 c 1,20,-1
 715 648 l 2,21,22
 715 766 715 766 664.5 826.5 c 128,-1,23
 614 887 614 887 515 887 c 0,24,25
 450 887 450 887 405.5 870.5 c 128,-1,26
 361 854 361 854 328.5 833.5 c 128,-1,27
 296 813 296 813 272.5 796.5 c 128,-1,28
 249 780 249 780 226 780 c 0,29,30
 208 780 208 780 194.5 789.5 c 128,-1,31
 181 799 181 799 173 813 c 2,32,-1
 141 870 l 1,33,34
 225 951 225 951 322 991 c 128,-1,35
 419 1031 419 1031 537 1031 c 0,36,37
 622 1031 622 1031 688 1003 c 128,-1,38
 754 975 754 975 799 925 c 128,-1,39
 844 875 844 875 867 804 c 128,-1,40
 890 733 890 733 890 648 c 2,41,-1
 890 0 l 1,0,-1
428 109 m 0,42,43
 475 109 475 109 514 118.5 c 128,-1,44
 553 128 553 128 587.5 145.5 c 128,-1,45
 622 163 622 163 653.5 188 c 128,-1,46
 685 213 685 213 715 245 c 1,47,-1
 715 456 l 1,48,49
 592 452 592 452 506 436.5 c 128,-1,50
 420 421 420 421 366 396 c 128,-1,51
 312 371 312 371 287.5 337 c 128,-1,52
 263 303 263 303 263 261 c 0,53,54
 263 221 263 221 276 192 c 128,-1,55
 289 163 289 163 311 144.5 c 128,-1,56
 333 126 333 126 363 117.5 c 128,-1,57
 393 109 393 109 428 109 c 0,42,43
EndSplineSet
EndChar

StartChar: b
Encoding: 98 98 69
Width: 1118
Flags: W
LayerCount: 2
Fore
SplineSet
152 0 m 1,0,-1
 152 1473 l 1,1,-1
 331 1473 l 1,2,-1
 331 867 l 1,3,4
 394 940 394 940 475.5 984.5 c 128,-1,5
 557 1029 557 1029 662 1029 c 0,6,7
 750 1029 750 1029 821 996 c 128,-1,8
 892 963 892 963 942 897.5 c 128,-1,9
 992 832 992 832 1019 735.5 c 128,-1,10
 1046 639 1046 639 1046 513 c 0,11,12
 1046 401 1046 401 1016 304.5 c 128,-1,13
 986 208 986 208 929.5 137.5 c 128,-1,14
 873 67 873 67 791.5 26.5 c 128,-1,15
 710 -14 710 -14 608 -14 c 0,16,17
 510 -14 510 -14 441.5 24 c 128,-1,18
 373 62 373 62 322 130 c 1,19,-1
 313 38 l 1,20,21
 305 0 305 0 267 0 c 2,22,-1
 152 0 l 1,0,-1
604 887 m 0,23,24
 517 887 517 887 451.5 847 c 128,-1,25
 386 807 386 807 331 734 c 1,26,-1
 331 244 l 1,27,28
 379 178 379 178 437.5 151 c 128,-1,29
 496 124 496 124 568 124 c 0,30,31
 710 124 710 124 786 225 c 128,-1,32
 862 326 862 326 862 513 c 0,33,34
 862 612 862 612 844.5 683 c 128,-1,35
 827 754 827 754 794 799.5 c 128,-1,36
 761 845 761 845 713 866 c 128,-1,37
 665 887 665 887 604 887 c 0,23,24
EndSplineSet
EndChar

StartChar: c
Encoding: 99 99 70
Width: 934
Flags: W
LayerCount: 2
Fore
SplineSet
837 833 m 2,0,1
 829 822 829 822 821 816 c 128,-1,2
 813 810 813 810 798 810 c 256,3,4
 783 810 783 810 765.5 822.5 c 128,-1,5
 748 835 748 835 721 850 c 128,-1,6
 694 865 694 865 655.5 877.5 c 128,-1,7
 617 890 617 890 561 890 c 0,8,9
 487 890 487 890 430 863.5 c 128,-1,10
 373 837 373 837 334.5 787 c 128,-1,11
 296 737 296 737 276.5 666 c 128,-1,12
 257 595 257 595 257 507 c 0,13,14
 257 415 257 415 278 343.5 c 128,-1,15
 299 272 299 272 337 223.5 c 128,-1,16
 375 175 375 175 429.5 149.5 c 128,-1,17
 484 124 484 124 552 124 c 0,18,19
 617 124 617 124 659 139.5 c 128,-1,20
 701 155 701 155 729 174 c 128,-1,21
 757 193 757 193 775 208.5 c 128,-1,22
 793 224 793 224 811 224 c 0,23,24
 834 224 834 224 845 207 c 2,25,-1
 895 142 l 1,26,27
 829 61 829 61 730 23.5 c 128,-1,28
 631 -14 631 -14 521 -14 c 0,29,30
 426 -14 426 -14 344.5 21 c 128,-1,31
 263 56 263 56 203 122.5 c 128,-1,32
 143 189 143 189 108.5 286 c 128,-1,33
 74 383 74 383 74 507 c 0,34,35
 74 620 74 620 105.5 716 c 128,-1,36
 137 812 137 812 197.5 881.5 c 128,-1,37
 258 951 258 951 347 990 c 128,-1,38
 436 1029 436 1029 551 1029 c 0,39,40
 657 1029 657 1029 739 994.5 c 128,-1,41
 821 960 821 960 884 897 c 1,42,-1
 837 833 l 2,0,1
EndSplineSet
EndChar

StartChar: d
Encoding: 100 100 71
Width: 1118
Flags: W
LayerCount: 2
Fore
SplineSet
859 0 m 2,0,1
 821 0 821 0 811 37 c 1,2,-1
 795 160 l 1,3,4
 730 81 730 81 646.5 33.5 c 128,-1,5
 563 -14 563 -14 455 -14 c 0,6,7
 368 -14 368 -14 297 19.5 c 128,-1,8
 226 53 226 53 176 118 c 128,-1,9
 126 183 126 183 99 280 c 128,-1,10
 72 377 72 377 72 503 c 0,11,12
 72 615 72 615 102 711.5 c 128,-1,13
 132 808 132 808 188.5 879 c 128,-1,14
 245 950 245 950 326 990.5 c 128,-1,15
 407 1031 407 1031 510 1031 c 0,16,17
 603 1031 603 1031 669 999.5 c 128,-1,18
 735 968 735 968 787 911 c 1,19,-1
 787 1473 l 1,20,-1
 965 1473 l 1,21,-1
 965 0 l 1,22,-1
 859 0 l 2,0,1
514 130 m 0,23,24
 601 130 601 130 666.5 170 c 128,-1,25
 732 210 732 210 787 283 c 1,26,-1
 787 773 l 1,27,28
 738 839 738 839 679.5 865.5 c 128,-1,29
 621 892 621 892 550 892 c 0,30,31
 408 892 408 892 332 791 c 128,-1,32
 256 690 256 690 256 503 c 0,33,34
 256 404 256 404 273 333.5 c 128,-1,35
 290 263 290 263 323 217.5 c 128,-1,36
 356 172 356 172 404 151 c 128,-1,37
 452 130 452 130 514 130 c 0,23,24
EndSplineSet
EndChar

StartChar: e
Encoding: 101 101 72
Width: 1048
Flags: W
LayerCount: 2
Fore
SplineSet
547 1029 m 0,0,1
 638 1029 638 1029 715 998.5 c 128,-1,2
 792 968 792 968 848 910.5 c 128,-1,3
 904 853 904 853 935.5 768.5 c 128,-1,4
 967 684 967 684 967 576 c 0,5,6
 967 534 967 534 958 520 c 128,-1,7
 949 506 949 506 924 506 c 2,8,-1
 250 506 l 1,9,10
 252 410 252 410 276 339 c 128,-1,11
 300 268 300 268 342 220.5 c 128,-1,12
 384 173 384 173 442 149.5 c 128,-1,13
 500 126 500 126 572 126 c 0,14,15
 639 126 639 126 687.5 141.5 c 128,-1,16
 736 157 736 157 771 175 c 128,-1,17
 806 193 806 193 829.5 208.5 c 128,-1,18
 853 224 853 224 870 224 c 0,19,20
 892 224 892 224 904 207 c 2,21,-1
 954 142 l 1,22,23
 921 102 921 102 875 72.5 c 128,-1,24
 829 43 829 43 776.5 24 c 128,-1,25
 724 5 724 5 668 -4.5 c 128,-1,26
 612 -14 612 -14 557 -14 c 0,27,28
 452 -14 452 -14 363.5 21.5 c 128,-1,29
 275 57 275 57 210.5 125.5 c 128,-1,30
 146 194 146 194 110 295 c 128,-1,31
 74 396 74 396 74 527 c 0,32,33
 74 633 74 633 106.5 725 c 128,-1,34
 139 817 139 817 200 884.5 c 128,-1,35
 261 952 261 952 349 990.5 c 128,-1,36
 437 1029 437 1029 547 1029 c 0,0,1
551 898 m 0,37,38
 422 898 422 898 348 823.5 c 128,-1,39
 274 749 274 749 256 617 c 1,40,-1
 807 617 l 1,41,42
 807 679 807 679 790 730.5 c 128,-1,43
 773 782 773 782 740 819.5 c 128,-1,44
 707 857 707 857 659.5 877.5 c 128,-1,45
 612 898 612 898 551 898 c 0,37,38
EndSplineSet
EndChar

StartChar: f
Encoding: 102 102 73
Width: 674
Flags: W
LayerCount: 2
Fore
SplineSet
186 0 m 1,0,-1
 186 861 l 1,1,-1
 74 874 l 2,2,3
 53 879 53 879 39.5 889.5 c 128,-1,4
 26 900 26 900 26 920 c 2,5,-1
 26 993 l 1,6,-1
 186 993 l 1,7,-1
 186 1091 l 2,8,9
 186 1178 186 1178 210.5 1245.5 c 128,-1,10
 235 1313 235 1313 280.5 1359.5 c 128,-1,11
 326 1406 326 1406 390 1430 c 128,-1,12
 454 1454 454 1454 534 1454 c 0,13,14
 602 1454 602 1454 660 1434 c 1,15,-1
 656 1345 l 2,16,17
 655 1325 655 1325 639 1321 c 128,-1,18
 623 1317 623 1317 594 1317 c 2,19,-1
 563 1317 l 2,20,21
 517 1317 517 1317 479.5 1305 c 128,-1,22
 442 1293 442 1293 415 1266 c 128,-1,23
 388 1239 388 1239 373.5 1195 c 128,-1,24
 359 1151 359 1151 359 1086 c 2,25,-1
 359 993 l 1,26,-1
 652 993 l 1,27,-1
 652 864 l 1,28,-1
 365 864 l 1,29,-1
 365 0 l 1,30,-1
 186 0 l 1,0,-1
EndSplineSet
EndChar

StartChar: g
Encoding: 103 103 74
Width: 1022
Flags: W
LayerCount: 2
Fore
SplineSet
487 1030 m 0,0,1
 553 1030 553 1030 610.5 1015.5 c 128,-1,2
 668 1001 668 1001 715 973 c 1,3,-1
 990 973 l 1,4,-1
 990 907 l 2,5,6
 990 874 990 874 948 865 c 2,7,-1
 833 849 l 1,8,9
 867 784 867 784 867 704 c 0,10,11
 867 630 867 630 838.5 569.5 c 128,-1,12
 810 509 810 509 759.5 466 c 128,-1,13
 709 423 709 423 639.5 400 c 128,-1,14
 570 377 570 377 487 377 c 0,15,16
 416 377 416 377 353 394 c 1,17,18
 321 374 321 374 304.5 351 c 128,-1,19
 288 328 288 328 288 306 c 0,20,21
 288 270 288 270 317 251.5 c 128,-1,22
 346 233 346 233 394 225 c 128,-1,23
 442 217 442 217 503 215 c 128,-1,24
 564 213 564 213 627.5 208.5 c 128,-1,25
 691 204 691 204 752 193 c 128,-1,26
 813 182 813 182 861 157 c 128,-1,27
 909 132 909 132 938 88 c 128,-1,28
 967 44 967 44 967 -26 c 0,29,30
 967 -91 967 -91 934.5 -152 c 128,-1,31
 902 -213 902 -213 841 -260.5 c 128,-1,32
 780 -308 780 -308 692 -336.5 c 128,-1,33
 604 -365 604 -365 493 -365 c 256,34,35
 382 -365 382 -365 298.5 -343 c 128,-1,36
 215 -321 215 -321 160 -284 c 128,-1,37
 105 -247 105 -247 77.5 -198.5 c 128,-1,38
 50 -150 50 -150 50 -97 c 0,39,40
 50 -22 50 -22 97.5 30.5 c 128,-1,41
 145 83 145 83 228 114 c 1,42,43
 185 134 185 134 159.5 167.5 c 128,-1,44
 134 201 134 201 134 257 c 0,45,46
 134 279 134 279 142 302.5 c 128,-1,47
 150 326 150 326 166.5 349 c 128,-1,48
 183 372 183 372 207 393 c 128,-1,49
 231 414 231 414 263 430 c 1,50,51
 188 472 188 472 145.5 541.5 c 128,-1,52
 103 611 103 611 103 704 c 0,53,54
 103 778 103 778 131.5 838.5 c 128,-1,55
 160 899 160 899 211 941.5 c 128,-1,56
 262 984 262 984 332.5 1007 c 128,-1,57
 403 1030 403 1030 487 1030 c 0,0,1
803 -55 m 0,58,59
 803 -17 803 -17 782 6 c 128,-1,60
 761 29 761 29 725 41.5 c 128,-1,61
 689 54 689 54 642 60 c 128,-1,62
 595 66 595 66 543 68.5 c 128,-1,63
 491 71 491 71 437 74 c 128,-1,64
 383 77 383 77 334 85 c 1,65,66
 277 58 277 58 241.5 19 c 128,-1,67
 206 -20 206 -20 206 -74 c 0,68,69
 206 -108 206 -108 223.5 -137.5 c 128,-1,70
 241 -167 241 -167 277 -188.5 c 128,-1,71
 313 -210 313 -210 367.5 -222.5 c 128,-1,72
 422 -235 422 -235 496 -235 c 0,73,74
 568 -235 568 -235 625 -222 c 128,-1,75
 682 -209 682 -209 721.5 -185 c 128,-1,76
 761 -161 761 -161 782 -128 c 128,-1,77
 803 -95 803 -95 803 -55 c 0,58,59
487 495 m 0,78,79
 541 495 541 495 582.5 510 c 128,-1,80
 624 525 624 525 652 552 c 128,-1,81
 680 579 680 579 694 616.5 c 128,-1,82
 708 654 708 654 708 699 c 0,83,84
 708 792 708 792 651.5 847 c 128,-1,85
 595 902 595 902 487 902 c 0,86,87
 380 902 380 902 323.5 847 c 128,-1,88
 267 792 267 792 267 699 c 0,89,90
 267 654 267 654 281.5 616.5 c 128,-1,91
 296 579 296 579 324 552 c 128,-1,92
 352 525 352 525 393 510 c 128,-1,93
 434 495 434 495 487 495 c 0,78,79
EndSplineSet
EndChar

StartChar: h
Encoding: 104 104 75
Width: 1112
Flags: W
LayerCount: 2
Fore
SplineSet
146 0 m 1,0,-1
 146 1473 l 1,1,-1
 324 1473 l 1,2,-1
 324 877 l 1,3,4
 389 946 389 946 468 987.5 c 128,-1,5
 547 1029 547 1029 650 1029 c 0,6,7
 733 1029 733 1029 796.5 1001.5 c 128,-1,8
 860 974 860 974 902.5 923.5 c 128,-1,9
 945 873 945 873 967 802 c 128,-1,10
 989 731 989 731 989 645 c 2,11,-1
 989 0 l 1,12,-1
 811 0 l 1,13,-1
 811 645 l 2,14,15
 811 760 811 760 758.5 823.5 c 128,-1,16
 706 887 706 887 598 887 c 0,17,18
 519 887 519 887 450.5 849 c 128,-1,19
 382 811 382 811 324 746 c 1,20,-1
 324 0 l 1,21,-1
 146 0 l 1,0,-1
EndSplineSet
EndChar

StartChar: i
Encoding: 105 105 76
Width: 512
Flags: W
LayerCount: 2
Fore
SplineSet
344 1013 m 1,0,-1
 344 0 l 1,1,-1
 166 0 l 1,2,-1
 166 1013 l 1,3,-1
 344 1013 l 1,0,-1
384 1331 m 256,4,5
 384 1305 384 1305 373.5 1282.5 c 128,-1,6
 363 1260 363 1260 345.5 1242.5 c 128,-1,7
 328 1225 328 1225 305 1215 c 128,-1,8
 282 1205 282 1205 256 1205 c 256,9,10
 230 1205 230 1205 207.5 1215 c 128,-1,11
 185 1225 185 1225 167.5 1242.5 c 128,-1,12
 150 1260 150 1260 140 1282.5 c 128,-1,13
 130 1305 130 1305 130 1331 c 256,14,15
 130 1357 130 1357 140 1380.5 c 128,-1,16
 150 1404 150 1404 167.5 1421.5 c 128,-1,17
 185 1439 185 1439 207.5 1449 c 128,-1,18
 230 1459 230 1459 256 1459 c 256,19,20
 282 1459 282 1459 305 1449 c 128,-1,21
 328 1439 328 1439 345.5 1421.5 c 128,-1,22
 363 1404 363 1404 373.5 1380.5 c 128,-1,23
 384 1357 384 1357 384 1331 c 256,4,5
EndSplineSet
EndChar

StartChar: j
Encoding: 106 106 77
Width: 508
Flags: W
LayerCount: 2
Fore
SplineSet
344 1013 m 1,0,-1
 344 -75 l 2,1,2
 344 -136 344 -136 328 -188.5 c 128,-1,3
 312 -241 312 -241 277.5 -280 c 128,-1,4
 243 -319 243 -319 188.5 -341.5 c 128,-1,5
 134 -364 134 -364 58 -364 c 0,6,7
 25 -364 25 -364 -2 -359 c 128,-1,8
 -29 -354 -29 -354 -56 -344 c 1,9,-1
 -48 -248 l 2,10,11
 -46 -235 -46 -235 -39 -231.5 c 128,-1,12
 -32 -228 -32 -228 -17 -228 c 0,13,14
 -9 -228 -9 -228 0 -228.5 c 128,-1,15
 9 -229 9 -229 22 -229 c 0,16,17
 100 -229 100 -229 133 -192.5 c 128,-1,18
 166 -156 166 -156 166 -75 c 2,19,-1
 166 1013 l 1,20,-1
 344 1013 l 1,0,-1
384 1331 m 256,21,22
 384 1305 384 1305 373.5 1282.5 c 128,-1,23
 363 1260 363 1260 345.5 1242.5 c 128,-1,24
 328 1225 328 1225 305 1215 c 128,-1,25
 282 1205 282 1205 256 1205 c 256,26,27
 230 1205 230 1205 207.5 1215 c 128,-1,28
 185 1225 185 1225 167.5 1242.5 c 128,-1,29
 150 1260 150 1260 140 1282.5 c 128,-1,30
 130 1305 130 1305 130 1331 c 256,31,32
 130 1357 130 1357 140 1380.5 c 128,-1,33
 150 1404 150 1404 167.5 1421.5 c 128,-1,34
 185 1439 185 1439 207.5 1449 c 128,-1,35
 230 1459 230 1459 256 1459 c 256,36,37
 282 1459 282 1459 305 1449 c 128,-1,38
 328 1439 328 1439 345.5 1421.5 c 128,-1,39
 363 1404 363 1404 373.5 1380.5 c 128,-1,40
 384 1357 384 1357 384 1331 c 256,21,22
EndSplineSet
EndChar

StartChar: k
Encoding: 107 107 78
Width: 1048
Flags: W
LayerCount: 2
Fore
SplineSet
331 1473 m 1,0,-1
 331 606 l 1,1,-1
 377 606 l 2,2,3
 397 606 397 606 410 611.5 c 128,-1,4
 423 617 423 617 439 634 c 2,5,-1
 759 977 l 2,6,7
 774 993 774 993 789 1003 c 128,-1,8
 804 1013 804 1013 829 1013 c 2,9,-1
 991 1013 l 1,10,-1
 618 616 l 2,11,12
 604 599 604 599 590.5 586 c 128,-1,13
 577 573 577 573 560 563 c 1,14,15
 578 551 578 551 592.5 535.5 c 128,-1,16
 607 520 607 520 620 500 c 2,17,-1
 1016 0 l 1,18,-1
 856 0 l 2,19,20
 834 0 834 0 818.5 8.5 c 128,-1,21
 803 17 803 17 789 35 c 2,22,-1
 456 450 l 2,23,24
 441 471 441 471 426 477.5 c 128,-1,25
 411 484 411 484 381 484 c 2,26,-1
 331 484 l 1,27,-1
 331 0 l 1,28,-1
 152 0 l 1,29,-1
 152 1473 l 1,30,-1
 331 1473 l 1,0,-1
EndSplineSet
EndChar

StartChar: l
Encoding: 108 108 79
Width: 512
Flags: W
LayerCount: 2
Fore
SplineSet
344 1473 m 1,0,-1
 344 0 l 1,1,-1
 166 0 l 1,2,-1
 166 1473 l 1,3,-1
 344 1473 l 1,0,-1
EndSplineSet
EndChar

StartChar: m
Encoding: 109 109 80
Width: 1642
Flags: W
LayerCount: 2
Fore
SplineSet
146 0 m 1,0,-1
 146 1013 l 1,1,-1
 252 1013 l 2,2,3
 290 1013 290 1013 300 976 c 1,4,-1
 313 872 l 1,5,6
 369 941 369 941 438.5 985 c 128,-1,7
 508 1029 508 1029 600 1029 c 0,8,9
 703 1029 703 1029 766.5 972 c 128,-1,10
 830 915 830 915 858 818 c 1,11,12
 879 873 879 873 913.5 913 c 128,-1,13
 948 953 948 953 991 979 c 128,-1,14
 1034 1005 1034 1005 1082.5 1017 c 128,-1,15
 1131 1029 1131 1029 1181 1029 c 0,16,17
 1261 1029 1261 1029 1323.5 1003.5 c 128,-1,18
 1386 978 1386 978 1429.5 929 c 128,-1,19
 1473 880 1473 880 1496 808.5 c 128,-1,20
 1519 737 1519 737 1519 645 c 2,21,-1
 1519 0 l 1,22,-1
 1341 0 l 1,23,-1
 1341 645 l 2,24,25
 1341 764 1341 764 1289 825.5 c 128,-1,26
 1237 887 1237 887 1138 887 c 0,27,28
 1094 887 1094 887 1054.5 871.5 c 128,-1,29
 1015 856 1015 856 985 826 c 128,-1,30
 955 796 955 796 937.5 750.5 c 128,-1,31
 920 705 920 705 920 645 c 2,32,-1
 920 0 l 1,33,-1
 742 0 l 1,34,-1
 742 645 l 2,35,36
 742 767 742 767 693 827 c 128,-1,37
 644 887 644 887 550 887 c 0,38,39
 484 887 484 887 427.5 851.5 c 128,-1,40
 371 816 371 816 324 755 c 1,41,-1
 324 0 l 1,42,-1
 146 0 l 1,0,-1
EndSplineSet
EndChar

StartChar: n
Encoding: 110 110 81
Width: 1112
Flags: W
LayerCount: 2
Fore
SplineSet
146 0 m 1,0,-1
 146 1013 l 1,1,-1
 252 1013 l 2,2,3
 290 1013 290 1013 300 976 c 1,4,-1
 314 866 l 1,5,6
 380 939 380 939 461.5 984 c 128,-1,7
 543 1029 543 1029 650 1029 c 0,8,9
 733 1029 733 1029 796.5 1001.5 c 128,-1,10
 860 974 860 974 902.5 923.5 c 128,-1,11
 945 873 945 873 967 802 c 128,-1,12
 989 731 989 731 989 645 c 2,13,-1
 989 0 l 1,14,-1
 811 0 l 1,15,-1
 811 645 l 2,16,17
 811 760 811 760 758.5 823.5 c 128,-1,18
 706 887 706 887 598 887 c 0,19,20
 519 887 519 887 450.5 849 c 128,-1,21
 382 811 382 811 324 746 c 1,22,-1
 324 0 l 1,23,-1
 146 0 l 1,0,-1
EndSplineSet
EndChar

StartChar: o
Encoding: 111 111 82
Width: 1112
Flags: W
LayerCount: 2
Fore
SplineSet
556 1029 m 256,0,1
 667 1029 667 1029 756.5 992 c 128,-1,2
 846 955 846 955 908.5 887 c 128,-1,3
 971 819 971 819 1004.5 722.5 c 128,-1,4
 1038 626 1038 626 1038 507 c 0,5,6
 1038 387 1038 387 1004.5 291 c 128,-1,7
 971 195 971 195 908.5 127 c 128,-1,8
 846 59 846 59 756.5 22.5 c 128,-1,9
 667 -14 667 -14 556 -14 c 256,10,11
 445 -14 445 -14 355.5 22.5 c 128,-1,12
 266 59 266 59 203 127 c 128,-1,13
 140 195 140 195 106 291 c 128,-1,14
 72 387 72 387 72 507 c 0,15,16
 72 626 72 626 106 722.5 c 128,-1,17
 140 819 140 819 203 887 c 128,-1,18
 266 955 266 955 355.5 992 c 128,-1,19
 445 1029 445 1029 556 1029 c 256,0,1
556 125 m 0,20,21
 706 125 706 125 780 225.5 c 128,-1,22
 854 326 854 326 854 506 c 0,23,24
 854 687 854 687 780 788 c 128,-1,25
 706 889 706 889 556 889 c 0,26,27
 480 889 480 889 424 863 c 128,-1,28
 368 837 368 837 330.5 788 c 128,-1,29
 293 739 293 739 274.5 667.5 c 128,-1,30
 256 596 256 596 256 506 c 256,31,32
 256 416 256 416 274.5 345 c 128,-1,33
 293 274 293 274 330.5 225.5 c 128,-1,34
 368 177 368 177 424 151 c 128,-1,35
 480 125 480 125 556 125 c 0,20,21
EndSplineSet
EndChar

StartChar: p
Encoding: 112 112 83
Width: 1104
Flags: W
LayerCount: 2
Fore
SplineSet
146 -343 m 1,0,-1
 146 1013 l 1,1,-1
 252 1013 l 2,2,3
 290 1013 290 1013 300 976 c 1,4,-1
 315 856 l 1,5,6
 380 935 380 935 463.5 983 c 128,-1,7
 547 1031 547 1031 656 1031 c 0,8,9
 743 1031 743 1031 814 997.5 c 128,-1,10
 885 964 885 964 935 898.5 c 128,-1,11
 985 833 985 833 1012 736 c 128,-1,12
 1039 639 1039 639 1039 513 c 0,13,14
 1039 401 1039 401 1009 304.5 c 128,-1,15
 979 208 979 208 923 137.5 c 128,-1,16
 867 67 867 67 785.5 26.5 c 128,-1,17
 704 -14 704 -14 602 -14 c 0,18,19
 508 -14 508 -14 441.5 17 c 128,-1,20
 375 48 375 48 324 105 c 1,21,-1
 324 -343 l 1,22,-1
 146 -343 l 1,0,-1
597 887 m 0,23,24
 510 887 510 887 444.5 847 c 128,-1,25
 379 807 379 807 324 734 c 1,26,-1
 324 244 l 1,27,28
 373 178 373 178 431.5 151 c 128,-1,29
 490 124 490 124 562 124 c 0,30,31
 703 124 703 124 779 225 c 128,-1,32
 855 326 855 326 855 513 c 0,33,34
 855 612 855 612 837.5 683 c 128,-1,35
 820 754 820 754 787 799.5 c 128,-1,36
 754 845 754 845 706 866 c 128,-1,37
 658 887 658 887 597 887 c 0,23,24
EndSplineSet
EndChar

StartChar: q
Encoding: 113 113 84
Width: 1118
Flags: W
LayerCount: 2
Fore
SplineSet
965 1013 m 1,0,-1
 965 -343 l 1,1,-1
 787 -343 l 1,2,-1
 787 150 l 1,3,4
 723 76 723 76 641.5 31 c 128,-1,5
 560 -14 560 -14 455 -14 c 0,6,7
 368 -14 368 -14 297 19.5 c 128,-1,8
 226 53 226 53 176 118 c 128,-1,9
 126 183 126 183 99 280 c 128,-1,10
 72 377 72 377 72 503 c 0,11,12
 72 615 72 615 102 711.5 c 128,-1,13
 132 808 132 808 188.5 879 c 128,-1,14
 245 950 245 950 326 990.5 c 128,-1,15
 407 1031 407 1031 510 1031 c 0,16,17
 608 1031 608 1031 676.5 996 c 128,-1,18
 745 961 745 961 799 897 c 1,19,-1
 811 976 l 1,20,21
 821 1013 821 1013 859 1013 c 2,22,-1
 965 1013 l 1,0,-1
514 130 m 0,23,24
 601 130 601 130 666.5 170 c 128,-1,25
 732 210 732 210 787 283 c 1,26,-1
 787 773 l 1,27,28
 739 837 739 837 680 864.5 c 128,-1,29
 621 892 621 892 550 892 c 0,30,31
 408 892 408 892 332 791 c 128,-1,32
 256 690 256 690 256 503 c 0,33,34
 256 404 256 404 273 333.5 c 128,-1,35
 290 263 290 263 323 217.5 c 128,-1,36
 356 172 356 172 404 151 c 128,-1,37
 452 130 452 130 514 130 c 0,23,24
EndSplineSet
EndChar

StartChar: r
Encoding: 114 114 85
Width: 806
Flags: W
LayerCount: 2
Fore
SplineSet
146 0 m 1,0,-1
 146 1013 l 1,1,-1
 248 1013 l 2,2,3
 277 1013 277 1013 288 1002 c 128,-1,4
 299 991 299 991 303 964 c 2,5,-1
 315 806 l 1,6,7
 367 912 367 912 443.5 971.5 c 128,-1,8
 520 1031 520 1031 623 1031 c 0,9,10
 665 1031 665 1031 699 1021.5 c 128,-1,11
 733 1012 733 1012 762 995 c 1,12,-1
 739 862 l 2,13,14
 732 837 732 837 708 837 c 0,15,16
 694 837 694 837 665 846.5 c 128,-1,17
 636 856 636 856 584 856 c 0,18,19
 491 856 491 856 428.5 802 c 128,-1,20
 366 748 366 748 324 645 c 1,21,-1
 324 0 l 1,22,-1
 146 0 l 1,0,-1
EndSplineSet
EndChar

StartChar: s
Encoding: 115 115 86
Width: 868
Flags: W
LayerCount: 2
Fore
SplineSet
726 846 m 2,0,1
 714 824 714 824 689 824 c 0,2,3
 674 824 674 824 655 835 c 128,-1,4
 636 846 636 846 608.5 859.5 c 128,-1,5
 581 873 581 873 543 884.5 c 128,-1,6
 505 896 505 896 453 896 c 0,7,8
 408 896 408 896 372 884.5 c 128,-1,9
 336 873 336 873 310.5 853 c 128,-1,10
 285 833 285 833 271.5 806.5 c 128,-1,11
 258 780 258 780 258 749 c 0,12,13
 258 710 258 710 280.5 684 c 128,-1,14
 303 658 303 658 340 639 c 128,-1,15
 377 620 377 620 424 605.5 c 128,-1,16
 471 591 471 591 520.5 574.5 c 128,-1,17
 570 558 570 558 617 538 c 128,-1,18
 664 518 664 518 701 488 c 128,-1,19
 738 458 738 458 760.5 414.5 c 128,-1,20
 783 371 783 371 783 310 c 0,21,22
 783 240 783 240 758 180.5 c 128,-1,23
 733 121 733 121 684 77.5 c 128,-1,24
 635 34 635 34 564 9 c 128,-1,25
 493 -16 493 -16 400 -16 c 0,26,27
 294 -16 294 -16 208 18.5 c 128,-1,28
 122 53 122 53 62 107 c 1,29,-1
 104 175 l 2,30,31
 112 188 112 188 123 195 c 128,-1,32
 134 202 134 202 152 202 c 256,33,34
 170 202 170 202 190 188 c 128,-1,35
 210 174 210 174 238.5 157 c 128,-1,36
 267 140 267 140 307.5 126 c 128,-1,37
 348 112 348 112 409 112 c 0,38,39
 461 112 461 112 500 125.5 c 128,-1,40
 539 139 539 139 565 162 c 128,-1,41
 591 185 591 185 603.5 215 c 128,-1,42
 616 245 616 245 616 279 c 0,43,44
 616 321 616 321 593.5 348.5 c 128,-1,45
 571 376 571 376 534 395.5 c 128,-1,46
 497 415 497 415 449.5 429.5 c 128,-1,47
 402 444 402 444 352.5 460 c 128,-1,48
 303 476 303 476 255.5 496.5 c 128,-1,49
 208 517 208 517 171 548 c 128,-1,50
 134 579 134 579 111.5 624.5 c 128,-1,51
 89 670 89 670 89 735 c 0,52,53
 89 793 89 793 113 846.5 c 128,-1,54
 137 900 137 900 183 940.5 c 128,-1,55
 229 981 229 981 296 1005 c 128,-1,56
 363 1029 363 1029 449 1029 c 0,57,58
 549 1029 549 1029 628.5 997.5 c 128,-1,59
 708 966 708 966 766 911 c 1,60,-1
 726 846 l 2,0,1
EndSplineSet
EndChar

StartChar: t
Encoding: 116 116 87
Width: 746
Flags: W
LayerCount: 2
Fore
SplineSet
453 -16 m 0,0,1
 333 -16 333 -16 268.5 51 c 128,-1,2
 204 118 204 118 204 244 c 2,3,-1
 204 864 l 1,4,-1
 82 864 l 2,5,6
 66 864 66 864 55 873.5 c 128,-1,7
 44 883 44 883 44 903 c 2,8,-1
 44 974 l 1,9,-1
 210 995 l 1,10,-1
 251 1308 l 2,11,12
 253 1323 253 1323 264 1332.5 c 128,-1,13
 275 1342 275 1342 292 1342 c 2,14,-1
 382 1342 l 1,15,-1
 382 993 l 1,16,-1
 672 993 l 1,17,-1
 672 864 l 1,18,-1
 382 864 l 1,19,-1
 382 256 l 2,20,21
 382 192 382 192 413 161 c 128,-1,22
 444 130 444 130 493 130 c 0,23,24
 521 130 521 130 541.5 137.5 c 128,-1,25
 562 145 562 145 577 154 c 128,-1,26
 592 163 592 163 602.5 170.5 c 128,-1,27
 613 178 613 178 621 178 c 0,28,29
 635 178 635 178 646 161 c 2,30,-1
 698 76 l 1,31,32
 652 33 652 33 587 8.5 c 128,-1,33
 522 -16 522 -16 453 -16 c 0,0,1
EndSplineSet
EndChar

StartChar: u
Encoding: 117 117 88
Width: 1112
Flags: W
LayerCount: 2
Fore
SplineSet
300 1013 m 1,0,-1
 300 367 l 2,1,2
 300 252 300 252 353 189 c 128,-1,3
 406 126 406 126 513 126 c 0,4,5
 591 126 591 126 660 163 c 128,-1,6
 729 200 729 200 787 266 c 1,7,-1
 787 1013 l 1,8,-1
 965 1013 l 1,9,-1
 965 0 l 1,10,-1
 859 0 l 2,11,12
 821 0 821 0 811 37 c 1,13,-1
 797 146 l 1,14,15
 731 73 731 73 649 28.5 c 128,-1,16
 567 -16 567 -16 461 -16 c 0,17,18
 378 -16 378 -16 314.5 11.5 c 128,-1,19
 251 39 251 39 208 89 c 128,-1,20
 165 139 165 139 143.5 210 c 128,-1,21
 122 281 122 281 122 367 c 2,22,-1
 122 1013 l 1,23,-1
 300 1013 l 1,0,-1
EndSplineSet
EndChar

StartChar: v
Encoding: 118 118 89
Width: 1024
Flags: W
LayerCount: 2
Fore
SplineSet
18 1013 m 1,0,-1
 164 1013 l 2,1,2
 185 1013 185 1013 199 1002 c 128,-1,3
 213 991 213 991 219 976 c 2,4,-1
 476 324 l 2,5,6
 490 288 490 288 498 252 c 128,-1,7
 506 216 506 216 513 181 c 1,8,9
 521 216 521 216 530 252 c 128,-1,10
 539 288 539 288 553 324 c 2,11,-1
 813 976 l 2,12,13
 819 992 819 992 832.5 1002.5 c 128,-1,14
 846 1013 846 1013 866 1013 c 2,15,-1
 1005 1013 l 1,16,-1
 592 0 l 1,17,-1
 431 0 l 1,18,-1
 18 1013 l 1,0,-1
EndSplineSet
EndChar

StartChar: w
Encoding: 119 119 90
Width: 1532
Flags: W
LayerCount: 2
Fore
SplineSet
14 1013 m 1,0,-1
 154 1013 l 2,1,2
 176 1013 176 1013 190 1002 c 128,-1,3
 204 991 204 991 209 976 c 2,4,-1
 403 324 l 2,5,6
 411 288 411 288 418 254.5 c 128,-1,7
 425 221 425 221 430 187 c 1,8,9
 438 221 438 221 448 254.5 c 128,-1,10
 458 288 458 288 469 324 c 2,11,-1
 683 980 l 2,12,13
 688 995 688 995 700.5 1005 c 128,-1,14
 713 1015 713 1015 732 1015 c 2,15,-1
 809 1015 l 2,16,17
 829 1015 829 1015 842 1005 c 128,-1,18
 855 995 855 995 860 980 c 2,19,-1
 1069 324 l 2,20,21
 1080 289 1080 289 1088.5 255 c 128,-1,22
 1097 221 1097 221 1105 188 c 1,23,24
 1110 221 1110 221 1118 257 c 128,-1,25
 1126 293 1126 293 1135 324 c 2,26,-1
 1333 976 l 2,27,28
 1338 992 1338 992 1352 1002.5 c 128,-1,29
 1366 1013 1366 1013 1385 1013 c 2,30,-1
 1519 1013 l 1,31,-1
 1191 0 l 1,32,-1
 1050 0 l 2,33,34
 1024 0 1024 0 1014 34 c 2,35,-1
 790 721 l 2,36,37
 782 744 782 744 777 767.5 c 128,-1,38
 772 791 772 791 767 814 c 1,39,40
 762 791 762 791 757 767 c 128,-1,41
 752 743 752 743 744 720 c 2,42,-1
 517 34 l 2,43,44
 506 0 506 0 476 0 c 2,45,-1
 342 0 l 1,46,-1
 14 1013 l 1,0,-1
EndSplineSet
EndChar

StartChar: x
Encoding: 120 120 91
Width: 1008
Flags: W
LayerCount: 2
Fore
SplineSet
383 519 m 1,0,-1
 42 1013 l 1,1,-1
 213 1013 l 2,2,3
 235 1013 235 1013 245 1006 c 128,-1,4
 255 999 255 999 263 986 c 2,5,-1
 511 606 l 1,6,7
 520 634 520 634 537 662 c 2,8,-1
 755 982 l 2,9,10
 765 996 765 996 775 1004.5 c 128,-1,11
 785 1013 785 1013 800 1013 c 2,12,-1
 964 1013 l 1,13,-1
 623 529 l 1,14,-1
 978 0 l 1,15,-1
 807 0 l 2,16,17
 785 0 785 0 772.5 11.5 c 128,-1,18
 760 23 760 23 752 37 c 2,19,-1
 497 434 l 1,20,21
 490 405 490 405 476 382 c 2,22,-1
 240 37 l 2,23,24
 230 23 230 23 218.5 11.5 c 128,-1,25
 207 0 207 0 187 0 c 2,26,-1
 28 0 l 1,27,-1
 383 519 l 1,0,-1
EndSplineSet
EndChar

StartChar: y
Encoding: 121 121 92
Width: 1024
Flags: W
LayerCount: 2
Fore
SplineSet
443 -299 m 2,0,1
 434 -319 434 -319 420.5 -331 c 128,-1,2
 407 -343 407 -343 379 -343 c 2,3,-1
 247 -343 l 1,4,-1
 432 59 l 1,5,-1
 14 1013 l 1,6,-1
 168 1013 l 2,7,8
 191 1013 191 1013 204 1001.5 c 128,-1,9
 217 990 217 990 223 976 c 2,10,-1
 494 338 l 2,11,12
 503 316 503 316 509.5 294 c 128,-1,13
 516 272 516 272 521 249 c 1,14,15
 528 272 528 272 535 294 c 128,-1,16
 542 316 542 316 551 339 c 2,17,-1
 814 976 l 2,18,19
 820 992 820 992 834.5 1002.5 c 128,-1,20
 849 1013 849 1013 866 1013 c 2,21,-1
 1008 1013 l 1,22,-1
 443 -299 l 2,0,1
EndSplineSet
EndChar

StartChar: z
Encoding: 122 122 93
Width: 924
Flags: W
LayerCount: 2
Fore
SplineSet
853 937 m 2,0,1
 853 918 853 918 846 900.5 c 128,-1,2
 839 883 839 883 828 869 c 2,3,-1
 280 139 l 1,4,-1
 833 139 l 1,5,-1
 833 0 l 1,6,-1
 70 0 l 1,7,-1
 70 74 l 2,8,9
 70 87 70 87 76.5 104.5 c 128,-1,10
 83 122 83 122 95 138 c 2,11,-1
 646 873 l 1,12,-1
 101 873 l 1,13,-1
 101 1013 l 1,14,-1
 853 1013 l 1,15,-1
 853 937 l 2,0,1
EndSplineSet
EndChar

StartChar: braceleft
Encoding: 123 123 94
Width: 600
Flags: W
LayerCount: 2
Fore
SplineSet
181 425 m 0,0,1
 181 488 181 488 146 528.5 c 128,-1,2
 111 569 111 569 44 569 c 1,3,-1
 44 676 l 1,4,5
 111 676 111 676 146 716 c 128,-1,6
 181 756 181 756 181 820 c 0,7,8
 181 870 181 870 173 919 c 128,-1,9
 165 968 165 968 155.5 1017 c 128,-1,10
 146 1066 146 1066 138 1116 c 128,-1,11
 130 1166 130 1166 130 1218 c 0,12,13
 130 1287 130 1287 150.5 1345 c 128,-1,14
 171 1403 171 1403 212.5 1445 c 128,-1,15
 254 1487 254 1487 315.5 1510 c 128,-1,16
 377 1533 377 1533 459 1533 c 2,17,-1
 512 1533 l 1,18,-1
 512 1454 l 2,19,20
 512 1434 512 1434 498 1425 c 128,-1,21
 484 1416 484 1416 472 1416 c 2,22,-1
 452 1416 l 2,23,24
 375 1416 375 1416 330.5 1365.5 c 128,-1,25
 286 1315 286 1315 286 1229 c 0,26,27
 286 1173 286 1173 293 1121 c 128,-1,28
 300 1069 300 1069 309 1019.5 c 128,-1,29
 318 970 318 970 325 921 c 128,-1,30
 332 872 332 872 332 822 c 0,31,32
 332 784 332 784 321 751.5 c 128,-1,33
 310 719 310 719 289.5 693.5 c 128,-1,34
 269 668 269 668 241.5 649.5 c 128,-1,35
 214 631 214 631 181 622 c 1,36,37
 214 613 214 613 241.5 594.5 c 128,-1,38
 269 576 269 576 289.5 550 c 128,-1,39
 310 524 310 524 321 492 c 128,-1,40
 332 460 332 460 332 423 c 0,41,42
 332 373 332 373 325 324 c 128,-1,43
 318 275 318 275 309 225.5 c 128,-1,44
 300 176 300 176 293 124 c 128,-1,45
 286 72 286 72 286 16 c 0,46,47
 286 -71 286 -71 330.5 -121 c 128,-1,48
 375 -171 375 -171 452 -171 c 2,49,-1
 472 -171 l 2,50,51
 484 -171 484 -171 498 -180 c 128,-1,52
 512 -189 512 -189 512 -209 c 2,53,-1
 512 -289 l 1,54,-1
 459 -289 l 2,55,56
 377 -289 377 -289 315.5 -265.5 c 128,-1,57
 254 -242 254 -242 212.5 -200 c 128,-1,58
 171 -158 171 -158 150.5 -100 c 128,-1,59
 130 -42 130 -42 130 27 c 0,60,61
 130 79 130 79 138 128.5 c 128,-1,62
 146 178 146 178 155.5 227.5 c 128,-1,63
 165 277 165 277 173 326 c 128,-1,64
 181 375 181 375 181 425 c 0,0,1
EndSplineSet
EndChar

StartChar: bar
Encoding: 124 124 95
Width: 600
Flags: W
LayerCount: 2
Fore
SplineSet
230 1533 m 1,0,-1
 368 1533 l 1,1,-1
 368 -343 l 1,2,-1
 230 -343 l 1,3,-1
 230 1533 l 1,0,-1
EndSplineSet
EndChar

StartChar: braceright
Encoding: 125 125 96
Width: 600
Flags: W
LayerCount: 2
Fore
SplineSet
419 425 m 0,0,1
 419 375 419 375 427 326 c 128,-1,2
 435 277 435 277 444.5 227.5 c 128,-1,3
 454 178 454 178 462 128.5 c 128,-1,4
 470 79 470 79 470 27 c 0,5,6
 470 -42 470 -42 449 -100 c 128,-1,7
 428 -158 428 -158 387 -200 c 128,-1,8
 346 -242 346 -242 284.5 -265.5 c 128,-1,9
 223 -289 223 -289 141 -289 c 2,10,-1
 88 -289 l 1,11,-1
 88 -209 l 2,12,13
 88 -189 88 -189 102 -180 c 128,-1,14
 116 -171 116 -171 128 -171 c 2,15,-1
 148 -171 l 2,16,17
 225 -171 225 -171 269.5 -121 c 128,-1,18
 314 -71 314 -71 314 16 c 0,19,20
 314 72 314 72 307 124 c 128,-1,21
 300 176 300 176 291 225.5 c 128,-1,22
 282 275 282 275 275 324 c 128,-1,23
 268 373 268 373 268 423 c 0,24,25
 268 460 268 460 279 492 c 128,-1,26
 290 524 290 524 310.5 550 c 128,-1,27
 331 576 331 576 358.5 594.5 c 128,-1,28
 386 613 386 613 419 622 c 1,29,30
 386 631 386 631 358.5 649.5 c 128,-1,31
 331 668 331 668 310.5 693.5 c 128,-1,32
 290 719 290 719 279 751.5 c 128,-1,33
 268 784 268 784 268 822 c 0,34,35
 268 872 268 872 275 921 c 128,-1,36
 282 970 282 970 291 1019.5 c 128,-1,37
 300 1069 300 1069 307 1121 c 128,-1,38
 314 1173 314 1173 314 1229 c 0,39,40
 314 1315 314 1315 269.5 1365.5 c 128,-1,41
 225 1416 225 1416 148 1416 c 2,42,-1
 128 1416 l 2,43,44
 116 1416 116 1416 102 1425 c 128,-1,45
 88 1434 88 1434 88 1454 c 2,46,-1
 88 1533 l 1,47,-1
 141 1533 l 2,48,49
 223 1533 223 1533 284.5 1510 c 128,-1,50
 346 1487 346 1487 387 1445 c 128,-1,51
 428 1403 428 1403 449 1345 c 128,-1,52
 470 1287 470 1287 470 1218 c 0,53,54
 470 1166 470 1166 462 1116 c 128,-1,55
 454 1066 454 1066 444.5 1017 c 128,-1,56
 435 968 435 968 427 919 c 128,-1,57
 419 870 419 870 419 820 c 0,58,59
 419 756 419 756 454 716 c 128,-1,60
 489 676 489 676 556 676 c 1,61,-1
 556 569 l 1,62,63
 489 569 489 569 454 528.5 c 128,-1,64
 419 488 419 488 419 425 c 0,0,1
EndSplineSet
EndChar

StartChar: asciitilde
Encoding: 126 126 97
Width: 1160
Flags: W
LayerCount: 2
Fore
SplineSet
759 613 m 0,0,1
 824 613 824 613 860.5 655.5 c 128,-1,2
 897 698 897 698 898 768 c 1,3,-1
 1042 768 l 1,4,5
 1042 701 1042 701 1023.5 645 c 128,-1,6
 1005 589 1005 589 970.5 549 c 128,-1,7
 936 509 936 509 885 487 c 128,-1,8
 834 465 834 465 770 465 c 0,9,10
 718 465 718 465 667 481 c 128,-1,11
 616 497 616 497 568.5 516.5 c 128,-1,12
 521 536 521 536 478 552.5 c 128,-1,13
 435 569 435 569 399 569 c 0,14,15
 334 569 334 569 297.5 527 c 128,-1,16
 261 485 261 485 260 414 c 1,17,-1
 116 414 l 1,18,19
 116 481 116 481 134.5 537 c 128,-1,20
 153 593 153 593 187.5 633 c 128,-1,21
 222 673 222 673 272.5 695.5 c 128,-1,22
 323 718 323 718 388 718 c 0,23,24
 440 718 440 718 491 701.5 c 128,-1,25
 542 685 542 685 589.5 665.5 c 128,-1,26
 637 646 637 646 680 629.5 c 128,-1,27
 723 613 723 613 759 613 c 0,0,1
EndSplineSet
EndChar

StartChar: exclamdown
Encoding: 161 161 99
Width: 686
Flags: W
LayerCount: 2
Fore
SplineSet
262 -343 m 1,0,-1
 262 198 l 2,1,2
 262 243 262 243 263.5 285.5 c 128,-1,3
 265 328 265 328 268 371.5 c 128,-1,4
 271 415 271 415 275.5 461 c 128,-1,5
 280 507 280 507 286 559 c 1,6,-1
 407 559 l 1,7,8
 413 507 413 507 417.5 461 c 128,-1,9
 422 415 422 415 425 371.5 c 128,-1,10
 428 328 428 328 429.5 285.5 c 128,-1,11
 431 243 431 243 431 198 c 2,12,-1
 431 -343 l 1,13,-1
 262 -343 l 1,0,-1
218 904 m 0,14,15
 218 931 218 931 227.5 953.5 c 128,-1,16
 237 976 237 976 254 993 c 128,-1,17
 271 1010 271 1010 293.5 1019.5 c 128,-1,18
 316 1029 316 1029 343 1029 c 0,19,20
 369 1029 369 1029 391.5 1019.5 c 128,-1,21
 414 1010 414 1010 431 993 c 128,-1,22
 448 976 448 976 458 953.5 c 128,-1,23
 468 931 468 931 468 904 c 0,24,25
 468 878 468 878 458 855 c 128,-1,26
 448 832 448 832 431 815 c 128,-1,27
 414 798 414 798 391.5 788 c 128,-1,28
 369 778 369 778 343 778 c 0,29,30
 316 778 316 778 293.5 788 c 128,-1,31
 271 798 271 798 254 815 c 128,-1,32
 237 832 237 832 227.5 855 c 128,-1,33
 218 878 218 878 218 904 c 0,14,15
EndSplineSet
EndChar

StartChar: cent
Encoding: 162 162 100
Width: 1160
Flags: W
LayerCount: 2
Fore
SplineSet
561 -11 m 1,0,1
 469 -1 469 -1 391.5 38.5 c 128,-1,2
 314 78 314 78 257.5 144 c 128,-1,3
 201 210 201 210 169.5 301 c 128,-1,4
 138 392 138 392 138 506 c 0,5,6
 138 617 138 617 171 710.5 c 128,-1,7
 204 804 204 804 267 873 c 128,-1,8
 330 942 330 942 422 982.5 c 128,-1,9
 514 1023 514 1023 633 1026 c 1,10,-1
 645 1205 l 2,11,12
 647 1225 647 1225 660.5 1239.5 c 128,-1,13
 674 1254 674 1254 695 1254 c 2,14,-1
 761 1254 l 1,15,-1
 745 1021 l 1,16,17
 827 1009 827 1009 893 977.5 c 128,-1,18
 959 946 959 946 1013 897 c 1,19,-1
 967 835 l 2,20,21
 959 824 959 824 951.5 818.5 c 128,-1,22
 944 813 944 813 930 813 c 0,23,24
 918 813 918 813 901.5 821.5 c 128,-1,25
 885 830 885 830 862.5 842 c 128,-1,26
 840 854 840 854 808.5 866 c 128,-1,27
 777 878 777 878 735 885 c 1,28,-1
 683 123 l 1,29,30
 746 127 746 127 788.5 142.5 c 128,-1,31
 831 158 831 158 860.5 175 c 128,-1,32
 890 192 890 192 909 206 c 128,-1,33
 928 220 928 220 944 220 c 0,34,35
 955 220 955 220 964 215.5 c 128,-1,36
 973 211 973 211 978 204 c 2,37,-1
 1026 141 l 1,38,39
 966 69 966 69 873.5 32 c 128,-1,40
 781 -5 781 -5 674 -12 c 1,41,-1
 662 -187 l 2,42,43
 660 -206 660 -206 646.5 -220.5 c 128,-1,44
 633 -235 633 -235 612 -235 c 2,45,-1
 546 -235 l 1,46,-1
 561 -11 l 1,0,1
315 506 m 0,47,48
 315 344 315 344 382.5 248 c 128,-1,49
 450 152 450 152 571 129 c 1,50,-1
 623 889 l 1,51,52
 547 883 547 883 489.5 854.5 c 128,-1,53
 432 826 432 826 393 776.5 c 128,-1,54
 354 727 354 727 334.5 659 c 128,-1,55
 315 591 315 591 315 506 c 0,47,48
EndSplineSet
EndChar

StartChar: sterling
Encoding: 163 163 101
Width: 1160
Flags: W
LayerCount: 2
Fore
SplineSet
52 672 m 2,0,1
 52 698 52 698 68 716 c 128,-1,2
 84 734 84 734 113 734 c 2,3,-1
 247 734 l 1,4,-1
 247 995 l 2,5,6
 247 1089 247 1089 274 1171.5 c 128,-1,7
 301 1254 301 1254 356 1315.5 c 128,-1,8
 411 1377 411 1377 493 1412.5 c 128,-1,9
 575 1448 575 1448 685 1448 c 0,10,11
 763 1448 763 1448 823.5 1428.5 c 128,-1,12
 884 1409 884 1409 931 1375 c 128,-1,13
 978 1341 978 1341 1012.5 1296 c 128,-1,14
 1047 1251 1047 1251 1071 1199 c 1,15,-1
 999 1153 l 2,16,17
 989 1147 989 1147 978.5 1144.5 c 128,-1,18
 968 1142 968 1142 958 1142 c 0,19,20
 944 1142 944 1142 931.5 1147.5 c 128,-1,21
 919 1153 919 1153 908 1167 c 0,22,23
 888 1192 888 1192 867.5 1215.5 c 128,-1,24
 847 1239 847 1239 821.5 1256.5 c 128,-1,25
 796 1274 796 1274 763 1284.5 c 128,-1,26
 730 1295 730 1295 685 1295 c 0,27,28
 622 1295 622 1295 574 1274 c 128,-1,29
 526 1253 526 1253 494 1214 c 128,-1,30
 462 1175 462 1175 446 1120 c 128,-1,31
 430 1065 430 1065 430 997 c 2,32,-1
 430 734 l 1,33,-1
 871 734 l 1,34,-1
 871 662 l 2,35,36
 871 644 871 644 856 629 c 128,-1,37
 841 614 841 614 819 614 c 2,38,-1
 430 614 l 1,39,-1
 430 371 l 2,40,41
 430 296 430 296 401.5 241.5 c 128,-1,42
 373 187 373 187 323 142 c 1,43,44
 352 147 352 147 380.5 150.5 c 128,-1,45
 409 154 409 154 439 154 c 2,46,-1
 1115 154 l 1,47,-1
 1115 78 l 2,48,49
 1115 64 1115 64 1109.5 50.5 c 128,-1,50
 1104 37 1104 37 1094 25.5 c 128,-1,51
 1084 14 1084 14 1070 7 c 128,-1,52
 1056 0 1056 0 1038 0 c 2,53,-1
 74 0 l 1,54,-1
 74 115 l 1,55,56
 108 125 108 125 139 142 c 128,-1,57
 170 159 170 159 194 184.5 c 128,-1,58
 218 210 218 210 232.5 244.5 c 128,-1,59
 247 279 247 279 247 325 c 2,60,-1
 247 614 l 1,61,-1
 52 614 l 1,62,-1
 52 672 l 2,0,1
EndSplineSet
EndChar

StartChar: currency
Encoding: 164 164 102
Width: 1160
Flags: W
LayerCount: 2
Fore
SplineSet
223 672 m 0,0,1
 223 729 223 729 239.5 779.5 c 128,-1,2
 256 830 256 830 285 874 c 1,3,-1
 132 1027 l 1,4,-1
 223 1117 l 1,5,-1
 374 965 l 1,6,7
 418 996 418 996 470 1013 c 128,-1,8
 522 1030 522 1030 580 1030 c 0,9,10
 637 1030 637 1030 688 1013.5 c 128,-1,11
 739 997 739 997 782 967 c 1,12,-1
 935 1120 l 1,13,-1
 1024 1029 l 1,14,-1
 873 877 l 1,15,16
 904 833 904 833 921 781.5 c 128,-1,17
 938 730 938 730 938 672 c 0,18,19
 938 615 938 615 921.5 564 c 128,-1,20
 905 513 905 513 876 470 c 1,21,-1
 1028 319 l 1,22,-1
 937 227 l 1,23,-1
 785 379 l 1,24,25
 741 349 741 349 689 332 c 128,-1,26
 637 315 637 315 580 315 c 256,27,28
 523 315 523 315 472.5 331.5 c 128,-1,29
 422 348 422 348 378 377 c 1,30,-1
 225 224 l 1,31,-1
 136 315 l 1,32,-1
 287 467 l 1,33,34
 257 511 257 511 240 562.5 c 128,-1,35
 223 614 223 614 223 672 c 0,0,1
355 672 m 0,36,37
 355 626 355 626 372.5 585.5 c 128,-1,38
 390 545 390 545 421 514.5 c 128,-1,39
 452 484 452 484 492.5 466 c 128,-1,40
 533 448 533 448 580 448 c 256,41,42
 627 448 627 448 668.5 466 c 128,-1,43
 710 484 710 484 740.5 514.5 c 128,-1,44
 771 545 771 545 789 585.5 c 128,-1,45
 807 626 807 626 807 672 c 0,46,47
 807 719 807 719 789 760 c 128,-1,48
 771 801 771 801 740.5 832 c 128,-1,49
 710 863 710 863 668.5 880.5 c 128,-1,50
 627 898 627 898 580 898 c 256,51,52
 533 898 533 898 492.5 880.5 c 128,-1,53
 452 863 452 863 421 832 c 128,-1,54
 390 801 390 801 372.5 760 c 128,-1,55
 355 719 355 719 355 672 c 0,36,37
EndSplineSet
EndChar

StartChar: yen
Encoding: 165 165 103
Width: 1160
Flags: W
LayerCount: 2
Fore
SplineSet
146 625 m 1,0,-1
 452 625 l 1,1,-1
 44 1433 l 1,2,-1
 193 1433 l 2,3,4
 219 1433 219 1433 234.5 1420.5 c 128,-1,5
 250 1408 250 1408 260 1388 c 2,6,-1
 536 822 l 2,7,8
 550 787 550 787 560 758 c 128,-1,9
 570 729 570 729 577 700 c 1,10,11
 584 729 584 729 593 758.5 c 128,-1,12
 602 788 602 788 616 822 c 2,13,-1
 891 1388 l 2,14,15
 899 1405 899 1405 915.5 1419 c 128,-1,16
 932 1433 932 1433 957 1433 c 2,17,-1
 1107 1433 l 1,18,-1
 698 625 l 1,19,-1
 1005 625 l 1,20,-1
 1005 523 l 1,21,-1
 665 523 l 1,22,-1
 665 418 l 1,23,-1
 1005 418 l 1,24,-1
 1005 315 l 1,25,-1
 665 315 l 1,26,-1
 665 0 l 1,27,-1
 486 0 l 1,28,-1
 486 315 l 1,29,-1
 146 315 l 1,30,-1
 146 418 l 1,31,-1
 486 418 l 1,32,-1
 486 523 l 1,33,-1
 146 523 l 1,34,-1
 146 625 l 1,0,-1
EndSplineSet
EndChar

StartChar: brokenbar
Encoding: 166 166 104
Width: 600
Flags: W
LayerCount: 2
Fore
SplineSet
230 1533 m 1,0,-1
 368 1533 l 1,1,-1
 368 739 l 1,2,-1
 230 739 l 1,3,-1
 230 1533 l 1,0,-1
230 452 m 1,4,-1
 368 452 l 1,5,-1
 368 -343 l 1,6,-1
 230 -343 l 1,7,-1
 230 452 l 1,4,-1
EndSplineSet
EndChar

StartChar: section
Encoding: 167 167 105
Width: 1006
Flags: W
LayerCount: 2
Fore
SplineSet
817 1265 m 2,0,1
 805 1243 805 1243 780 1243 c 0,2,3
 765 1243 765 1243 746 1254 c 128,-1,4
 727 1265 727 1265 699.5 1278.5 c 128,-1,5
 672 1292 672 1292 634 1303.5 c 128,-1,6
 596 1315 596 1315 544 1315 c 0,7,8
 496 1315 496 1315 457.5 1302.5 c 128,-1,9
 419 1290 419 1290 392.5 1269 c 128,-1,10
 366 1248 366 1248 352 1220 c 128,-1,11
 338 1192 338 1192 338 1161 c 0,12,13
 338 1123 338 1123 362.5 1094.5 c 128,-1,14
 387 1066 387 1066 426.5 1042.5 c 128,-1,15
 466 1019 466 1019 517 997.5 c 128,-1,16
 568 976 568 976 620.5 953 c 128,-1,17
 673 930 673 930 724 902.5 c 128,-1,18
 775 875 775 875 814.5 839.5 c 128,-1,19
 854 804 854 804 878.5 758 c 128,-1,20
 903 712 903 712 903 651 c 0,21,22
 903 570 903 570 864 506.5 c 128,-1,23
 825 443 825 443 741 405 c 1,24,25
 790 368 790 368 821 319 c 128,-1,26
 852 270 852 270 852 201 c 0,27,28
 852 131 852 131 827 71.5 c 128,-1,29
 802 12 802 12 753.5 -31.5 c 128,-1,30
 705 -75 705 -75 633.5 -100 c 128,-1,31
 562 -125 562 -125 470 -125 c 0,32,33
 364 -125 364 -125 278 -90.5 c 128,-1,34
 192 -56 192 -56 132 -2 c 1,35,-1
 173 66 l 2,36,37
 181 79 181 79 192.5 86 c 128,-1,38
 204 93 204 93 221 93 c 0,39,40
 239 93 239 93 259 79 c 128,-1,41
 279 65 279 65 308 47.5 c 128,-1,42
 337 30 337 30 379.5 16 c 128,-1,43
 422 2 422 2 485 2 c 0,44,45
 535 2 535 2 574.5 14.5 c 128,-1,46
 614 27 614 27 641 49.5 c 128,-1,47
 668 72 668 72 682 103 c 128,-1,48
 696 134 696 134 696 172 c 0,49,50
 696 217 696 217 671 250 c 128,-1,51
 646 283 646 283 605 308.5 c 128,-1,52
 564 334 564 334 512 355 c 128,-1,53
 460 376 460 376 405 398 c 128,-1,54
 350 420 350 420 298 445.5 c 128,-1,55
 246 471 246 471 205 506 c 128,-1,56
 164 541 164 541 139 587.5 c 128,-1,57
 114 634 114 634 114 698 c 0,58,59
 114 776 114 776 157 838.5 c 128,-1,60
 200 901 200 901 293 936 c 1,61,62
 243 974 243 974 211.5 1026.5 c 128,-1,63
 180 1079 180 1079 180 1154 c 0,64,65
 180 1212 180 1212 204 1265.5 c 128,-1,66
 228 1319 228 1319 274 1359 c 128,-1,67
 320 1399 320 1399 387 1423 c 128,-1,68
 454 1447 454 1447 540 1447 c 0,69,70
 640 1447 640 1447 719.5 1416 c 128,-1,71
 799 1385 799 1385 857 1330 c 1,72,-1
 817 1265 l 2,0,1
272 726 m 0,73,74
 272 675 272 675 307 639.5 c 128,-1,75
 342 604 342 604 396.5 575.5 c 128,-1,76
 451 547 451 547 517 520.5 c 128,-1,77
 583 494 583 494 645 463 c 1,78,79
 699 489 699 489 723 526.5 c 128,-1,80
 747 564 747 564 747 611 c 0,81,82
 747 647 747 647 732 675 c 128,-1,83
 717 703 717 703 691 726 c 128,-1,84
 665 749 665 749 630 768 c 128,-1,85
 595 787 595 787 555.5 804.5 c 128,-1,86
 516 822 516 822 474 839.5 c 128,-1,87
 432 857 432 857 392 877 c 1,88,89
 326 847 326 847 299 810.5 c 128,-1,90
 272 774 272 774 272 726 c 0,73,74
EndSplineSet
EndChar

StartChar: dieresis
Encoding: 168 168 106
Width: 614
Flags: W
LayerCount: 2
Fore
SplineSet
239 1289 m 256,0,1
 239 1266 239 1266 230 1246 c 128,-1,2
 221 1226 221 1226 205 1211 c 128,-1,3
 189 1196 189 1196 168.5 1187 c 128,-1,4
 148 1178 148 1178 125 1178 c 0,5,6
 103 1178 103 1178 83 1187 c 128,-1,7
 63 1196 63 1196 47.5 1211 c 128,-1,8
 32 1226 32 1226 23 1246 c 128,-1,9
 14 1266 14 1266 14 1289 c 256,10,11
 14 1312 14 1312 23 1333 c 128,-1,12
 32 1354 32 1354 47.5 1369.5 c 128,-1,13
 63 1385 63 1385 83 1394 c 128,-1,14
 103 1403 103 1403 125 1403 c 0,15,16
 148 1403 148 1403 168.5 1394 c 128,-1,17
 189 1385 189 1385 205 1369.5 c 128,-1,18
 221 1354 221 1354 230 1333 c 128,-1,19
 239 1312 239 1312 239 1289 c 256,0,1
598 1289 m 256,20,21
 598 1266 598 1266 589 1246 c 128,-1,22
 580 1226 580 1226 564.5 1211 c 128,-1,23
 549 1196 549 1196 528.5 1187 c 128,-1,24
 508 1178 508 1178 485 1178 c 256,25,26
 462 1178 462 1178 441.5 1187 c 128,-1,27
 421 1196 421 1196 406 1211 c 128,-1,28
 391 1226 391 1226 382 1246 c 128,-1,29
 373 1266 373 1266 373 1289 c 256,30,31
 373 1312 373 1312 382 1333 c 128,-1,32
 391 1354 391 1354 406 1369.5 c 128,-1,33
 421 1385 421 1385 441.5 1394 c 128,-1,34
 462 1403 462 1403 485 1403 c 256,35,36
 508 1403 508 1403 528.5 1394 c 128,-1,37
 549 1385 549 1385 564.5 1369.5 c 128,-1,38
 580 1354 580 1354 589 1333 c 128,-1,39
 598 1312 598 1312 598 1289 c 256,20,21
EndSplineSet
Substitution2: "'case' Case-Sensitive Forms in Latin lookup 0 subtable" dieresis.case
EndChar

StartChar: copyright
Encoding: 169 169 107
Width: 1596
Flags: W
LayerCount: 2
Fore
SplineSet
1030 463 m 0,0,1
 1038 468 1038 468 1043.5 471.5 c 128,-1,2
 1049 475 1049 475 1055 475 c 0,3,4
 1066 475 1066 475 1070 472 c 128,-1,5
 1074 469 1074 469 1080 463 c 2,6,-1
 1141 399 l 1,7,8
 1084 333 1084 333 1001 296.5 c 128,-1,9
 918 260 918 260 802 260 c 0,10,11
 704 260 704 260 623.5 294 c 128,-1,12
 543 328 543 328 485.5 389 c 128,-1,13
 428 450 428 450 396.5 534 c 128,-1,14
 365 618 365 618 365 718 c 0,15,16
 365 819 365 819 399.5 903.5 c 128,-1,17
 434 988 434 988 495 1048.5 c 128,-1,18
 556 1109 556 1109 639.5 1142.5 c 128,-1,19
 723 1176 723 1176 821 1176 c 0,20,21
 929 1176 929 1176 1005 1142 c 128,-1,22
 1081 1108 1081 1108 1138 1053 c 1,23,-1
 1092 988 l 2,24,25
 1087 982 1087 982 1079 976 c 128,-1,26
 1071 970 1071 970 1059 970 c 0,27,28
 1045 970 1045 970 1029.5 981 c 128,-1,29
 1014 992 1014 992 989 1005.5 c 128,-1,30
 964 1019 964 1019 926 1030.5 c 128,-1,31
 888 1042 888 1042 829 1042 c 0,32,33
 759 1042 759 1042 702.5 1019.5 c 128,-1,34
 646 997 646 997 606.5 955 c 128,-1,35
 567 913 567 913 545.5 853 c 128,-1,36
 524 793 524 793 524 718 c 0,37,38
 524 641 524 641 545.5 580.5 c 128,-1,39
 567 520 567 520 605 479 c 128,-1,40
 643 438 643 438 696 416.5 c 128,-1,41
 749 395 749 395 811 395 c 0,42,43
 859 395 859 395 892 401 c 128,-1,44
 925 407 925 407 949 417 c 128,-1,45
 973 427 973 427 991.5 439 c 128,-1,46
 1010 451 1010 451 1030 463 c 0,0,1
68 716 m 256,47,48
 68 817 68 817 94 910.5 c 128,-1,49
 120 1004 120 1004 167.5 1085.5 c 128,-1,50
 215 1167 215 1167 282 1233.5 c 128,-1,51
 349 1300 349 1300 430 1348 c 128,-1,52
 511 1396 511 1396 604 1422 c 128,-1,53
 697 1448 697 1448 798 1448 c 256,54,55
 899 1448 899 1448 992.5 1422 c 128,-1,56
 1086 1396 1086 1396 1167 1348 c 128,-1,57
 1248 1300 1248 1300 1315 1233.5 c 128,-1,58
 1382 1167 1382 1167 1429.5 1085.5 c 128,-1,59
 1477 1004 1477 1004 1503 910.5 c 128,-1,60
 1529 817 1529 817 1529 716 c 0,61,62
 1529 616 1529 616 1503 522.5 c 128,-1,63
 1477 429 1477 429 1429.5 348 c 128,-1,64
 1382 267 1382 267 1315 200.5 c 128,-1,65
 1248 134 1248 134 1167 86 c 128,-1,66
 1086 38 1086 38 992.5 12 c 128,-1,67
 899 -14 899 -14 798 -14 c 256,68,69
 697 -14 697 -14 604 12 c 128,-1,70
 511 38 511 38 430 86 c 128,-1,71
 349 134 349 134 282 200.5 c 128,-1,72
 215 267 215 267 167.5 348 c 128,-1,73
 120 429 120 429 94 522 c 128,-1,74
 68 615 68 615 68 716 c 256,47,48
168 716 m 0,75,76
 168 627 168 627 190 545 c 128,-1,77
 212 463 212 463 253 391.5 c 128,-1,78
 294 320 294 320 351 262 c 128,-1,79
 408 204 408 204 478 162.5 c 128,-1,80
 548 121 548 121 629 98.5 c 128,-1,81
 710 76 710 76 798 76 c 0,82,83
 930 76 930 76 1045.5 126 c 128,-1,84
 1161 176 1161 176 1246.5 262.5 c 128,-1,85
 1332 349 1332 349 1381.5 465.5 c 128,-1,86
 1431 582 1431 582 1431 716 c 0,87,88
 1431 805 1431 805 1408.5 888 c 128,-1,89
 1386 971 1386 971 1345 1042.5 c 128,-1,90
 1304 1114 1304 1114 1246.5 1173 c 128,-1,91
 1189 1232 1189 1232 1119 1273.5 c 128,-1,92
 1049 1315 1049 1315 967.5 1338 c 128,-1,93
 886 1361 886 1361 798 1361 c 0,94,95
 666 1361 666 1361 551 1310.5 c 128,-1,96
 436 1260 436 1260 351 1172.5 c 128,-1,97
 266 1085 266 1085 217 967.5 c 128,-1,98
 168 850 168 850 168 716 c 0,75,76
EndSplineSet
EndChar

StartChar: ordfeminine
Encoding: 170 170 108
Width: 684
Flags: W
LayerCount: 2
Fore
SplineSet
596 840 m 1,0,-1
 536 840 l 2,1,2
 518 840 518 840 509 845.5 c 128,-1,3
 500 851 500 851 492 869 c 2,4,-1
 480 918 l 1,5,6
 456 897 456 897 433 881 c 128,-1,7
 410 865 410 865 385 853.5 c 128,-1,8
 360 842 360 842 332 836.5 c 128,-1,9
 304 831 304 831 270 831 c 0,10,11
 232 831 232 831 199.5 841 c 128,-1,12
 167 851 167 851 143 871.5 c 128,-1,13
 119 892 119 892 105.5 922 c 128,-1,14
 92 952 92 952 92 993 c 0,15,16
 92 1027 92 1027 111 1060.5 c 128,-1,17
 130 1094 130 1094 174 1120.5 c 128,-1,18
 218 1147 218 1147 290.5 1164.5 c 128,-1,19
 363 1182 363 1182 470 1184 c 1,20,-1
 470 1221 l 2,21,22
 470 1284 470 1284 441 1314 c 128,-1,23
 412 1344 412 1344 355 1344 c 0,24,25
 317 1344 317 1344 292 1335 c 128,-1,26
 267 1326 267 1326 248.5 1315.5 c 128,-1,27
 230 1305 230 1305 215.5 1296.5 c 128,-1,28
 201 1288 201 1288 185 1288 c 0,29,30
 171 1288 171 1288 161 1295.5 c 128,-1,31
 151 1303 151 1303 146 1313 c 2,32,-1
 124 1355 l 1,33,34
 176 1404 176 1404 236.5 1427 c 128,-1,35
 297 1450 297 1450 370 1450 c 0,36,37
 424 1450 424 1450 466 1433 c 128,-1,38
 508 1416 508 1416 537 1386 c 128,-1,39
 566 1356 566 1356 581 1314 c 128,-1,40
 596 1272 596 1272 596 1221 c 2,41,-1
 596 840 l 1,0,-1
309 923 m 0,42,43
 360 923 360 923 397 942 c 128,-1,44
 434 961 434 961 470 996 c 1,45,-1
 470 1101 l 1,46,47
 400 1099 400 1099 351.5 1090.5 c 128,-1,48
 303 1082 303 1082 273 1068.5 c 128,-1,49
 243 1055 243 1055 230 1037.5 c 128,-1,50
 217 1020 217 1020 217 999 c 0,51,52
 217 957 217 957 243 940 c 128,-1,53
 269 923 269 923 309 923 c 0,42,43
EndSplineSet
EndChar

StartChar: guillemotleft
Encoding: 171 171 109
Width: 926
Flags: W
LayerCount: 2
Fore
SplineSet
138 518 m 1,0,-1
 138 541 l 1,1,-1
 387 930 l 1,2,-1
 445 902 l 2,3,4
 459 895 459 895 466 884 c 128,-1,5
 473 873 473 873 473 860 c 0,6,7
 473 843 473 843 463 827 c 2,8,-1
 304 566 l 2,9,10
 290 542 290 542 276 529 c 1,11,12
 291 515 291 515 304 493 c 2,13,-1
 463 232 l 2,14,15
 468 224 468 224 470.5 215 c 128,-1,16
 473 206 473 206 473 198 c 0,17,18
 473 170 473 170 445 157 c 2,19,-1
 387 129 l 1,20,-1
 138 518 l 1,0,-1
434 518 m 1,21,-1
 434 541 l 1,22,-1
 683 930 l 1,23,-1
 741 902 l 2,24,25
 755 895 755 895 762 884 c 128,-1,26
 769 873 769 873 769 860 c 0,27,28
 769 843 769 843 759 827 c 2,29,-1
 600 566 l 2,30,31
 586 542 586 542 572 529 c 1,32,33
 587 515 587 515 600 493 c 2,34,-1
 759 232 l 2,35,36
 764 224 764 224 766.5 215 c 128,-1,37
 769 206 769 206 769 198 c 0,38,39
 769 170 769 170 741 157 c 2,40,-1
 683 129 l 1,41,-1
 434 518 l 1,21,-1
EndSplineSet
EndChar

StartChar: logicalnot
Encoding: 172 172 110
Width: 1160
Flags: W
LayerCount: 2
Fore
SplineSet
148 739 m 1,0,-1
 1008 739 l 1,1,-1
 1008 315 l 1,2,-1
 857 315 l 1,3,-1
 857 604 l 1,4,-1
 148 604 l 1,5,-1
 148 739 l 1,0,-1
EndSplineSet
EndChar

StartChar: uni00AD
Encoding: 173 173 111
Width: 694
Flags: W
LayerCount: 2
Fore
SplineSet
100 675 m 1,0,-1
 594 675 l 1,1,-1
 594 524 l 1,2,-1
 100 524 l 1,3,-1
 100 675 l 1,0,-1
EndSplineSet
EndChar

StartChar: registered
Encoding: 174 174 112
Width: 1596
Flags: W
LayerCount: 2
Fore
SplineSet
68 716 m 256,0,1
 68 817 68 817 94 910.5 c 128,-1,2
 120 1004 120 1004 167.5 1085.5 c 128,-1,3
 215 1167 215 1167 282 1233.5 c 128,-1,4
 349 1300 349 1300 430 1348 c 128,-1,5
 511 1396 511 1396 604 1422 c 128,-1,6
 697 1448 697 1448 798 1448 c 256,7,8
 899 1448 899 1448 992.5 1422 c 128,-1,9
 1086 1396 1086 1396 1167 1348 c 128,-1,10
 1248 1300 1248 1300 1315 1233.5 c 128,-1,11
 1382 1167 1382 1167 1429.5 1085.5 c 128,-1,12
 1477 1004 1477 1004 1503 910.5 c 128,-1,13
 1529 817 1529 817 1529 716 c 0,14,15
 1529 616 1529 616 1503 522.5 c 128,-1,16
 1477 429 1477 429 1429.5 348 c 128,-1,17
 1382 267 1382 267 1315 200.5 c 128,-1,18
 1248 134 1248 134 1167 86 c 128,-1,19
 1086 38 1086 38 992.5 12 c 128,-1,20
 899 -14 899 -14 798 -14 c 256,21,22
 697 -14 697 -14 604 12 c 128,-1,23
 511 38 511 38 430 86 c 128,-1,24
 349 134 349 134 282 200.5 c 128,-1,25
 215 267 215 267 167.5 348 c 128,-1,26
 120 429 120 429 94 522 c 128,-1,27
 68 615 68 615 68 716 c 256,0,1
168 716 m 0,28,29
 168 627 168 627 190 545 c 128,-1,30
 212 463 212 463 253 391.5 c 128,-1,31
 294 320 294 320 351 262 c 128,-1,32
 408 204 408 204 478 162.5 c 128,-1,33
 548 121 548 121 629 98.5 c 128,-1,34
 710 76 710 76 798 76 c 0,35,36
 930 76 930 76 1045.5 126 c 128,-1,37
 1161 176 1161 176 1246.5 262.5 c 128,-1,38
 1332 349 1332 349 1381.5 465.5 c 128,-1,39
 1431 582 1431 582 1431 716 c 0,40,41
 1431 805 1431 805 1408.5 888 c 128,-1,42
 1386 971 1386 971 1345 1042.5 c 128,-1,43
 1304 1114 1304 1114 1246.5 1173 c 128,-1,44
 1189 1232 1189 1232 1119 1273.5 c 128,-1,45
 1049 1315 1049 1315 967.5 1338 c 128,-1,46
 886 1361 886 1361 798 1361 c 0,47,48
 666 1361 666 1361 551 1310.5 c 128,-1,49
 436 1260 436 1260 351 1172.5 c 128,-1,50
 266 1085 266 1085 217 967.5 c 128,-1,51
 168 850 168 850 168 716 c 0,28,29
654 626 m 1,52,-1
 654 272 l 1,53,-1
 498 272 l 1,54,-1
 498 1164 l 1,55,-1
 786 1164 l 2,56,57
 958 1164 958 1164 1041 1101.5 c 128,-1,58
 1124 1039 1124 1039 1124 917 c 0,59,60
 1124 823 1124 823 1070.5 757 c 128,-1,61
 1017 691 1017 691 911 666 c 1,62,63
 928 656 928 656 940.5 641 c 128,-1,64
 953 626 953 626 964 606 c 2,65,-1
 1192 272 l 1,66,-1
 1044 272 l 2,67,68
 1011 272 1011 272 995 297 c 2,69,-1
 794 599 l 2,70,71
 785 612 785 612 772.5 619 c 128,-1,72
 760 626 760 626 734 626 c 2,73,-1
 654 626 l 1,52,-1
654 740 m 1,74,-1
 770 740 l 2,75,76
 825 740 825 740 863.5 750.5 c 128,-1,77
 902 761 902 761 925.5 781 c 128,-1,78
 949 801 949 801 959.5 830 c 128,-1,79
 970 859 970 859 970 897 c 0,80,81
 970 934 970 934 960.5 962 c 128,-1,82
 951 990 951 990 929.5 1008 c 128,-1,83
 908 1026 908 1026 873 1035 c 128,-1,84
 838 1044 838 1044 786 1044 c 2,85,-1
 654 1044 l 1,86,-1
 654 740 l 1,74,-1
EndSplineSet
EndChar

StartChar: macron
Encoding: 175 175 113
Width: 614
Flags: W
LayerCount: 2
Fore
SplineSet
20 1348 m 1,0,-1
 594 1348 l 1,1,-1
 594 1231 l 1,2,-1
 20 1231 l 1,3,-1
 20 1348 l 1,0,-1
EndSplineSet
Substitution2: "'case' Case-Sensitive Forms in Latin lookup 0 subtable" macron.case
EndChar

StartChar: degree
Encoding: 176 176 114
Width: 794
Flags: W
LayerCount: 2
Fore
SplineSet
70 1128 m 0,0,1
 70 1195 70 1195 95 1254 c 128,-1,2
 120 1313 120 1313 164 1356.5 c 128,-1,3
 208 1400 208 1400 267.5 1425 c 128,-1,4
 327 1450 327 1450 396 1450 c 256,5,6
 465 1450 465 1450 524.5 1425 c 128,-1,7
 584 1400 584 1400 628 1356.5 c 128,-1,8
 672 1313 672 1313 697 1254 c 128,-1,9
 722 1195 722 1195 722 1128 c 0,10,11
 722 1062 722 1062 697 1003.5 c 128,-1,12
 672 945 672 945 628 901.5 c 128,-1,13
 584 858 584 858 524.5 832.5 c 128,-1,14
 465 807 465 807 396 807 c 256,15,16
 327 807 327 807 267.5 832.5 c 128,-1,17
 208 858 208 858 164 901.5 c 128,-1,18
 120 945 120 945 95 1003.5 c 128,-1,19
 70 1062 70 1062 70 1128 c 0,0,1
197 1127 m 256,20,21
 197 1085 197 1085 212 1048.5 c 128,-1,22
 227 1012 227 1012 254 985 c 128,-1,23
 281 958 281 958 317.5 942.5 c 128,-1,24
 354 927 354 927 396 927 c 256,25,26
 438 927 438 927 474 942.5 c 128,-1,27
 510 958 510 958 537 985 c 128,-1,28
 564 1012 564 1012 579 1048.5 c 128,-1,29
 594 1085 594 1085 594 1127 c 256,30,31
 594 1169 594 1169 579 1206 c 128,-1,32
 564 1243 564 1243 537 1270.5 c 128,-1,33
 510 1298 510 1298 474 1313.5 c 128,-1,34
 438 1329 438 1329 396 1329 c 256,35,36
 354 1329 354 1329 317.5 1313.5 c 128,-1,37
 281 1298 281 1298 254 1270.5 c 128,-1,38
 227 1243 227 1243 212 1206 c 128,-1,39
 197 1169 197 1169 197 1127 c 256,20,21
EndSplineSet
EndChar

StartChar: plusminus
Encoding: 177 177 115
Width: 1160
Flags: W
LayerCount: 2
Fore
SplineSet
651 1202 m 1,0,-1
 651 826 l 1,1,-1
 1058 826 l 1,2,-1
 1058 690 l 1,3,-1
 651 690 l 1,4,-1
 651 322 l 1,5,-1
 505 322 l 1,6,-1
 505 690 l 1,7,-1
 100 690 l 1,8,-1
 100 826 l 1,9,-1
 505 826 l 1,10,-1
 505 1202 l 1,11,-1
 651 1202 l 1,0,-1
100 215 m 1,12,-1
 1058 215 l 1,13,-1
 1058 80 l 1,14,-1
 100 80 l 1,15,-1
 100 215 l 1,12,-1
EndSplineSet
EndChar

StartChar: twosuperior
Encoding: 178 178 116
Width: 664
Flags: W
LayerCount: 2
Fore
SplineSet
346 1637 m 0,0,1
 398 1637 398 1637 440.5 1622 c 128,-1,2
 483 1607 483 1607 513 1580 c 128,-1,3
 543 1553 543 1553 559.5 1514.5 c 128,-1,4
 576 1476 576 1476 576 1429 c 0,5,6
 576 1389 576 1389 563.5 1354.5 c 128,-1,7
 551 1320 551 1320 530 1289 c 128,-1,8
 509 1258 509 1258 482 1229 c 128,-1,9
 455 1200 455 1200 425 1170 c 2,10,-1
 263 1005 l 1,11,12
 286 1011 286 1011 309.5 1015 c 128,-1,13
 333 1019 333 1019 354 1019 c 2,14,-1
 549 1019 l 2,15,16
 570 1019 570 1019 581.5 1008 c 128,-1,17
 593 997 593 997 593 977 c 2,18,-1
 593 900 l 1,19,-1
 82 900 l 1,20,-1
 82 943 l 2,21,22
 82 956 82 956 87 970 c 128,-1,23
 92 984 92 984 104 996 c 2,24,-1
 325 1215 l 2,25,26
 350 1240 350 1240 372 1266 c 128,-1,27
 394 1292 394 1292 410 1318.5 c 128,-1,28
 426 1345 426 1345 435.5 1371.5 c 128,-1,29
 445 1398 445 1398 445 1425 c 0,30,31
 445 1476 445 1476 415 1503.5 c 128,-1,32
 385 1531 385 1531 340 1531 c 0,33,34
 294 1531 294 1531 265.5 1507 c 128,-1,35
 237 1483 237 1483 223 1441 c 0,36,37
 215 1427 215 1427 205.5 1419 c 128,-1,38
 196 1411 196 1411 179 1411 c 0,39,40
 175 1411 175 1411 170.5 1411.5 c 128,-1,41
 166 1412 166 1412 161 1413 c 2,42,-1
 90 1425 l 1,43,44
 105 1531 105 1531 174 1584 c 128,-1,45
 243 1637 243 1637 346 1637 c 0,0,1
EndSplineSet
EndChar

StartChar: threesuperior
Encoding: 179 179 117
Width: 664
Flags: W
LayerCount: 2
Fore
SplineSet
354 1637 m 0,0,1
 405 1637 405 1637 446 1622.5 c 128,-1,2
 487 1608 487 1608 516.5 1582.5 c 128,-1,3
 546 1557 546 1557 562 1523 c 128,-1,4
 578 1489 578 1489 578 1449 c 0,5,6
 578 1321 578 1321 459 1276 c 1,7,8
 525 1257 525 1257 559.5 1218 c 128,-1,9
 594 1179 594 1179 594 1117 c 0,10,11
 594 1062 594 1062 573 1020 c 128,-1,12
 552 978 552 978 517.5 949.5 c 128,-1,13
 483 921 483 921 437.5 906.5 c 128,-1,14
 392 892 392 892 344 892 c 0,15,16
 287 892 287 892 245 904.5 c 128,-1,17
 203 917 203 917 172.5 941.5 c 128,-1,18
 142 966 142 966 120.5 1002 c 128,-1,19
 99 1038 99 1038 84 1085 c 1,20,-1
 139 1109 l 2,21,22
 154 1115 154 1115 168 1115 c 0,23,24
 197 1115 197 1115 208 1092 c 0,25,26
 214 1079 214 1079 223 1063 c 128,-1,27
 232 1047 232 1047 247 1033 c 128,-1,28
 262 1019 262 1019 283.5 1009.5 c 128,-1,29
 305 1000 305 1000 337 1000 c 0,30,31
 368 1000 368 1000 391.5 1010 c 128,-1,32
 415 1020 415 1020 431 1035.5 c 128,-1,33
 447 1051 447 1051 455 1071 c 128,-1,34
 463 1091 463 1091 463 1112 c 0,35,36
 463 1142 463 1142 454.5 1163.5 c 128,-1,37
 446 1185 446 1185 426.5 1199 c 128,-1,38
 407 1213 407 1213 374.5 1220 c 128,-1,39
 342 1227 342 1227 295 1227 c 1,40,-1
 295 1314 l 1,41,42
 382 1315 382 1315 417.5 1345 c 128,-1,43
 453 1375 453 1375 453 1427 c 0,44,45
 453 1477 453 1477 424 1503 c 128,-1,46
 395 1529 395 1529 347 1529 c 256,47,48
 299 1529 299 1529 270.5 1505.5 c 128,-1,49
 242 1482 242 1482 230 1442 c 0,50,51
 222 1426 222 1426 213.5 1418.5 c 128,-1,52
 205 1411 205 1411 190 1411 c 0,53,54
 186 1411 186 1411 181.5 1411.5 c 128,-1,55
 177 1412 177 1412 172 1413 c 2,56,-1
 105 1425 l 1,57,58
 112 1478 112 1478 134 1517.5 c 128,-1,59
 156 1557 156 1557 188.5 1583.5 c 128,-1,60
 221 1610 221 1610 263 1623.5 c 128,-1,61
 305 1637 305 1637 354 1637 c 0,0,1
EndSplineSet
EndChar

StartChar: acute
Encoding: 180 180 118
Width: 614
Flags: W
LayerCount: 2
Fore
SplineSet
597 1449 m 1,0,-1
 364 1191 l 2,1,2
 350 1176 350 1176 336.5 1169.5 c 128,-1,3
 323 1163 323 1163 302 1163 c 2,4,-1
 196 1163 l 1,5,-1
 344 1405 l 2,6,7
 358 1428 358 1428 374.5 1438.5 c 128,-1,8
 391 1449 391 1449 423 1449 c 2,9,-1
 597 1449 l 1,0,-1
EndSplineSet
Substitution2: "'case' Case-Sensitive Forms in Latin lookup 0 subtable" acute.case
EndChar

StartChar: mu
Encoding: 181 181 119
Width: 1112
Flags: W
LayerCount: 2
Fore
SplineSet
300 1013 m 1,0,-1
 300 355 l 2,1,2
 300 246 300 246 354 186 c 128,-1,3
 408 126 408 126 513 126 c 0,4,5
 591 126 591 126 660 163 c 128,-1,6
 729 200 729 200 787 266 c 1,7,-1
 787 1013 l 1,8,-1
 965 1013 l 1,9,-1
 965 0 l 1,10,-1
 859 0 l 2,11,12
 821 0 821 0 811 37 c 1,13,-1
 797 146 l 1,14,15
 730 74 730 74 659.5 40 c 128,-1,16
 589 6 589 6 502 6 c 0,17,18
 428 6 428 6 372 31.5 c 128,-1,19
 316 57 316 57 277 103 c 1,20,21
 284 61 284 61 287 17.5 c 128,-1,22
 290 -26 290 -26 290 -64 c 2,23,-1
 290 -343 l 1,24,-1
 201 -343 l 2,25,26
 163 -343 163 -343 142.5 -323 c 128,-1,27
 122 -303 122 -303 122 -267 c 2,28,-1
 122 1013 l 1,29,-1
 300 1013 l 1,0,-1
EndSplineSet
EndChar

StartChar: paragraph
Encoding: 182 182 120
Width: 1338
Flags: W
LayerCount: 2
Fore
SplineSet
1302 1433 m 1,0,-1
 1302 1280 l 1,1,-1
 1083 1280 l 1,2,-1
 1083 -201 l 1,3,-1
 926 -201 l 1,4,-1
 926 1280 l 1,5,-1
 649 1280 l 1,6,-1
 649 -201 l 1,7,-1
 492 -201 l 1,8,-1
 492 660 l 1,9,10
 388 660 388 660 305 690.5 c 128,-1,11
 222 721 222 721 163.5 773.5 c 128,-1,12
 105 826 105 826 73.5 897 c 128,-1,13
 42 968 42 968 42 1049 c 0,14,15
 42 1135 42 1135 73.5 1205.5 c 128,-1,16
 105 1276 105 1276 163.5 1326.5 c 128,-1,17
 222 1377 222 1377 305 1405 c 128,-1,18
 388 1433 388 1433 492 1433 c 2,19,-1
 1302 1433 l 1,0,-1
EndSplineSet
EndChar

StartChar: periodcentered
Encoding: 183 183 121
Width: 546
Flags: W
LayerCount: 2
Fore
SplineSet
124 593 m 0,0,1
 124 624 124 624 135.5 652 c 128,-1,2
 147 680 147 680 167.5 700 c 128,-1,3
 188 720 188 720 215 732 c 128,-1,4
 242 744 242 744 272 744 c 0,5,6
 303 744 303 744 331 732 c 128,-1,7
 359 720 359 720 379 700 c 128,-1,8
 399 680 399 680 411 652 c 128,-1,9
 423 624 423 624 423 593 c 0,10,11
 423 563 423 563 411 536 c 128,-1,12
 399 509 399 509 379 488.5 c 128,-1,13
 359 468 359 468 331 456.5 c 128,-1,14
 303 445 303 445 272 445 c 0,15,16
 242 445 242 445 215 456.5 c 128,-1,17
 188 468 188 468 167.5 488.5 c 128,-1,18
 147 509 147 509 135.5 536 c 128,-1,19
 124 563 124 563 124 593 c 0,0,1
EndSplineSet
EndChar

StartChar: cedilla
Encoding: 184 184 122
Width: 614
Flags: W
LayerCount: 2
Fore
SplineSet
172 -247 m 0,0,1
 178 -247 178 -247 186 -250.5 c 128,-1,2
 194 -254 194 -254 205 -258.5 c 128,-1,3
 216 -263 216 -263 232 -266.5 c 128,-1,4
 248 -270 248 -270 269 -270 c 0,5,6
 311 -270 311 -270 332.5 -253.5 c 128,-1,7
 354 -237 354 -237 354 -211 c 0,8,9
 354 -192 354 -192 343 -179 c 128,-1,10
 332 -166 332 -166 311.5 -157 c 128,-1,11
 291 -148 291 -148 261 -142 c 128,-1,12
 231 -136 231 -136 193 -131 c 1,13,-1
 236 10 l 1,14,-1
 348 10 l 1,15,-1
 324 -70 l 1,16,17
 414 -90 414 -90 454.5 -124.5 c 128,-1,18
 495 -159 495 -159 495 -213 c 0,19,20
 495 -245 495 -245 479 -270.5 c 128,-1,21
 463 -296 463 -296 434.5 -314 c 128,-1,22
 406 -332 406 -332 366 -341.5 c 128,-1,23
 326 -351 326 -351 278 -351 c 0,24,25
 237 -351 237 -351 200 -342.5 c 128,-1,26
 163 -334 163 -334 132 -320 c 1,27,-1
 149 -265 l 2,28,29
 155 -247 155 -247 172 -247 c 0,0,1
EndSplineSet
EndChar

StartChar: onesuperior
Encoding: 185 185 123
Width: 664
Flags: W
LayerCount: 2
Fore
SplineSet
173 985 m 1,0,-1
 320 985 l 1,1,-1
 320 1425 l 1,2,-1
 324 1468 l 1,3,-1
 217 1380 l 2,4,5
 205 1371 205 1371 191 1371 c 0,6,7
 168 1371 168 1371 159 1385 c 2,8,-1
 120 1441 l 1,9,-1
 342 1631 l 1,10,-1
 450 1631 l 1,11,-1
 450 985 l 1,12,-1
 580 985 l 1,13,-1
 580 900 l 1,14,-1
 173 900 l 1,15,-1
 173 985 l 1,0,-1
EndSplineSet
EndChar

StartChar: ordmasculine
Encoding: 186 186 124
Width: 762
Flags: W
LayerCount: 2
Fore
SplineSet
382 1449 m 0,0,1
 452 1449 452 1449 508.5 1427.5 c 128,-1,2
 565 1406 565 1406 605 1366 c 128,-1,3
 645 1326 645 1326 667 1268.5 c 128,-1,4
 689 1211 689 1211 689 1140 c 0,5,6
 689 1068 689 1068 667 1010 c 128,-1,7
 645 952 645 952 605 911.5 c 128,-1,8
 565 871 565 871 508.5 849.5 c 128,-1,9
 452 828 452 828 382 828 c 0,10,11
 311 828 311 828 254 849.5 c 128,-1,12
 197 871 197 871 156.5 911.5 c 128,-1,13
 116 952 116 952 94 1010 c 128,-1,14
 72 1068 72 1068 72 1140 c 0,15,16
 72 1211 72 1211 94 1268.5 c 128,-1,17
 116 1326 116 1326 156.5 1366 c 128,-1,18
 197 1406 197 1406 254 1427.5 c 128,-1,19
 311 1449 311 1449 382 1449 c 0,0,1
382 934 m 0,20,21
 466 934 466 934 507.5 986.5 c 128,-1,22
 549 1039 549 1039 549 1139 c 256,23,24
 549 1239 549 1239 507.5 1291 c 128,-1,25
 466 1343 466 1343 382 1343 c 0,26,27
 295 1343 295 1343 253.5 1291 c 128,-1,28
 212 1239 212 1239 212 1139 c 256,29,30
 212 1039 212 1039 253.5 986.5 c 128,-1,31
 295 934 295 934 382 934 c 0,20,21
EndSplineSet
EndChar

StartChar: guillemotright
Encoding: 187 187 125
Width: 926
Flags: W
LayerCount: 2
Fore
SplineSet
236 129 m 1,0,-1
 178 157 l 2,1,2
 150 170 150 170 150 198 c 0,3,4
 150 215 150 215 160 232 c 2,5,-1
 319 493 l 2,6,7
 332 517 332 517 346 529 c 1,8,9
 334 540 334 540 319 566 c 2,10,-1
 160 827 l 2,11,12
 150 844 150 844 150 861 c 0,13,14
 150 889 150 889 178 902 c 2,15,-1
 236 930 l 1,16,-1
 485 541 l 1,17,-1
 485 518 l 1,18,-1
 236 129 l 1,0,-1
781 541 m 1,19,-1
 781 518 l 1,20,-1
 532 129 l 1,21,-1
 474 157 l 2,22,23
 446 170 446 170 446 198 c 0,24,25
 446 215 446 215 456 232 c 2,26,-1
 615 493 l 2,27,28
 628 517 628 517 642 529 c 1,29,30
 630 540 630 540 615 566 c 2,31,-1
 456 827 l 2,32,33
 446 844 446 844 446 861 c 0,34,35
 446 889 446 889 474 902 c 2,36,-1
 532 930 l 1,37,-1
 781 541 l 1,19,-1
EndSplineSet
EndChar

StartChar: onequarter
Encoding: 188 188 126
Width: 1424
Flags: W
LayerCount: 2
Fore
SplineSet
1295 267 m 1,0,-1
 1404 267 l 1,1,-1
 1404 202 l 2,2,3
 1404 191 1404 191 1397 183.5 c 128,-1,4
 1390 176 1390 176 1377 176 c 2,5,-1
 1295 176 l 1,6,-1
 1295 0 l 1,7,-1
 1186 0 l 1,8,-1
 1186 176 l 1,9,-1
 880 176 l 2,10,11
 862 176 862 176 851.5 184 c 128,-1,12
 841 192 841 192 839 204 c 2,13,-1
 829 261 l 1,14,-1
 1171 729 l 1,15,-1
 1295 729 l 1,16,-1
 1295 267 l 1,0,-1
155 788 m 1,17,-1
 302 788 l 1,18,-1
 302 1228 l 1,19,-1
 306 1271 l 1,20,-1
 199 1183 l 2,21,22
 187 1174 187 1174 173 1174 c 0,23,24
 150 1174 150 1174 141 1188 c 2,25,-1
 102 1244 l 1,26,-1
 324 1434 l 1,27,-1
 432 1434 l 1,28,-1
 432 788 l 1,29,-1
 562 788 l 1,30,-1
 562 703 l 1,31,-1
 155 703 l 1,32,-1
 155 788 l 1,17,-1
1186 508 m 2,33,34
 1186 527 1186 527 1187 549 c 128,-1,35
 1188 571 1188 571 1191 594 c 1,36,-1
 950 267 l 1,37,-1
 1186 267 l 1,38,-1
 1186 508 l 2,33,34
434 53 m 2,39,40
 415 22 415 22 393 11 c 128,-1,41
 371 0 371 0 342 0 c 2,42,-1
 266 0 l 1,43,-1
 1084 1372 l 2,44,45
 1102 1401 1102 1401 1125 1417 c 128,-1,46
 1148 1433 1148 1433 1180 1433 c 2,47,-1
 1257 1433 l 1,48,-1
 434 53 l 2,39,40
EndSplineSet
EndChar

StartChar: onehalf
Encoding: 189 189 127
Width: 1160
Flags: W
LayerCount: 2
Fore
SplineSet
787 858 m 0,0,1
 816 858 816 858 843 865 c 128,-1,2
 870 872 870 872 893 882.5 c 128,-1,3
 916 893 916 893 933 905 c 128,-1,4
 950 917 950 917 959 928 c 1,5,-1
 984 814 l 1,6,7
 949 767 949 767 893 744 c 128,-1,8
 837 721 837 721 776 721 c 0,9,10
 724 721 724 721 672.5 737.5 c 128,-1,11
 621 754 621 754 570.5 774 c 128,-1,12
 520 794 520 794 472.5 810.5 c 128,-1,13
 425 827 425 827 380 827 c 0,14,15
 350 827 350 827 322 820.5 c 128,-1,16
 294 814 294 814 271 803.5 c 128,-1,17
 248 793 248 793 231 780.5 c 128,-1,18
 214 768 214 768 205 756 c 1,19,-1
 176 865 l 1,20,21
 211 916 211 916 267.5 940.5 c 128,-1,22
 324 965 324 965 390 965 c 0,23,24
 443 965 443 965 495 948.5 c 128,-1,25
 547 932 547 932 597 911.5 c 128,-1,26
 647 891 647 891 694.5 874.5 c 128,-1,27
 742 858 742 858 787 858 c 0,0,1
787 520 m 0,28,29
 816 520 816 520 843 526.5 c 128,-1,30
 870 533 870 533 893 543.5 c 128,-1,31
 916 554 916 554 933 566 c 128,-1,32
 950 578 950 578 959 589 c 1,33,-1
 984 476 l 1,34,35
 949 428 949 428 893 405 c 128,-1,36
 837 382 837 382 776 382 c 0,37,38
 724 382 724 382 672.5 398.5 c 128,-1,39
 621 415 621 415 570.5 435.5 c 128,-1,40
 520 456 520 456 472.5 472.5 c 128,-1,41
 425 489 425 489 380 489 c 0,42,43
 350 489 350 489 322 482 c 128,-1,44
 294 475 294 475 271 464.5 c 128,-1,45
 248 454 248 454 231 441.5 c 128,-1,46
 214 429 214 429 205 417 c 1,47,-1
 176 526 l 1,48,49
 211 577 211 577 267.5 601.5 c 128,-1,50
 324 626 324 626 390 626 c 0,51,52
 443 626 443 626 495 609.5 c 128,-1,53
 547 593 547 593 597 573 c 128,-1,54
 647 553 647 553 694.5 536.5 c 128,-1,55
 742 520 742 520 787 520 c 0,28,29
EndSplineSet
EndChar

StartChar: threequarters
Encoding: 190 190 128
Width: 1160
Flags: W
LayerCount: 2
Fore
SplineSet
150 909 m 1,0,-1
 639 909 l 1,1,-1
 753 1150 l 1,2,-1
 882 1150 l 1,3,-1
 768 909 l 1,4,-1
 1009 909 l 1,5,-1
 1009 774 l 1,6,-1
 705 774 l 1,7,-1
 610 574 l 1,8,-1
 1009 574 l 1,9,-1
 1009 439 l 1,10,-1
 547 439 l 1,11,-1
 428 187 l 1,12,-1
 299 187 l 1,13,-1
 418 439 l 1,14,-1
 150 439 l 1,15,-1
 150 574 l 1,16,-1
 481 574 l 1,17,-1
 576 774 l 1,18,-1
 150 774 l 1,19,-1
 150 909 l 1,0,-1
EndSplineSet
EndChar

StartChar: questiondown
Encoding: 191 191 129
Width: 1160
Flags: W
LayerCount: 2
Fore
SplineSet
148 791 m 1,0,-1
 922 1168 l 1,1,-1
 922 1046 l 2,2,3
 922 1030 922 1030 913 1016.5 c 128,-1,4
 904 1003 904 1003 878 991 c 2,5,-1
 437 784 l 2,6,7
 391 766 391 766 340 754 c 1,8,9
 366 749 366 749 391 741.5 c 128,-1,10
 416 734 416 734 437 724 c 2,11,-1
 878 515 l 2,12,13
 903 503 903 503 912.5 489.5 c 128,-1,14
 922 476 922 476 922 460 c 2,15,-1
 922 338 l 1,16,-1
 148 717 l 1,17,-1
 148 791 l 1,0,-1
148 215 m 1,18,-1
 922 215 l 1,19,-1
 922 80 l 1,20,-1
 148 80 l 1,21,-1
 148 215 l 1,18,-1
EndSplineSet
EndChar

StartChar: Agrave
Encoding: 192 192 130
Width: 1160
Flags: W
LayerCount: 2
Fore
SplineSet
1012 791 m 1,0,-1
 1012 717 l 1,1,-1
 238 338 l 1,2,-1
 238 460 l 2,3,4
 238 476 238 476 247.5 489.5 c 128,-1,5
 257 503 257 503 282 515 c 2,6,-1
 723 724 l 2,7,8
 764 743 764 743 820 754 c 1,9,10
 793 760 793 760 768.5 767 c 128,-1,11
 744 774 744 774 723 784 c 2,12,-1
 282 991 l 2,13,14
 256 1002 256 1002 247 1016 c 128,-1,15
 238 1030 238 1030 238 1046 c 2,16,-1
 238 1168 l 1,17,-1
 1012 791 l 1,0,-1
1012 80 m 1,18,-1
 238 80 l 1,19,-1
 238 215 l 1,20,-1
 1012 215 l 1,21,-1
 1012 80 l 1,18,-1
EndSplineSet
EndChar

StartChar: Aacute
Encoding: 193 193 131
Width: 1160
Flags: W
LayerCount: 2
Fore
SplineSet
100 739 m 1,0,-1
 1058 739 l 1,1,-1
 1058 604 l 1,2,-1
 100 604 l 1,3,-1
 100 739 l 1,0,-1
454 1026 m 0,4,5
 454 1052 454 1052 463.5 1075 c 128,-1,6
 473 1098 473 1098 489.5 1115 c 128,-1,7
 506 1132 506 1132 528.5 1142 c 128,-1,8
 551 1152 551 1152 578 1152 c 0,9,10
 604 1152 604 1152 626.5 1142 c 128,-1,11
 649 1132 649 1132 666 1115 c 128,-1,12
 683 1098 683 1098 693 1075 c 128,-1,13
 703 1052 703 1052 703 1026 c 0,14,15
 703 999 703 999 693 976.5 c 128,-1,16
 683 954 683 954 666 937 c 128,-1,17
 649 920 649 920 626.5 910.5 c 128,-1,18
 604 901 604 901 578 901 c 0,19,20
 551 901 551 901 528.5 910.5 c 128,-1,21
 506 920 506 920 489.5 937 c 128,-1,22
 473 954 473 954 463.5 976.5 c 128,-1,23
 454 999 454 999 454 1026 c 0,4,5
454 314 m 0,24,25
 454 340 454 340 463.5 363 c 128,-1,26
 473 386 473 386 489.5 403 c 128,-1,27
 506 420 506 420 528.5 430 c 128,-1,28
 551 440 551 440 578 440 c 0,29,30
 604 440 604 440 626.5 430 c 128,-1,31
 649 420 649 420 666 403 c 128,-1,32
 683 386 683 386 693 363 c 128,-1,33
 703 340 703 340 703 314 c 0,34,35
 703 287 703 287 693 264.5 c 128,-1,36
 683 242 683 242 666 225 c 128,-1,37
 649 208 649 208 626.5 198.5 c 128,-1,38
 604 189 604 189 578 189 c 0,39,40
 551 189 551 189 528.5 198.5 c 128,-1,41
 506 208 506 208 489.5 225 c 128,-1,42
 473 242 473 242 463.5 264.5 c 128,-1,43
 454 287 454 287 454 314 c 0,24,25
EndSplineSet
EndChar

StartChar: Acircumflex
Encoding: 194 194 132
Width: 926
Flags: W
LayerCount: 2
Fore
SplineSet
138 518 m 1,0,-1
 138 541 l 1,1,-1
 387 930 l 1,2,-1
 445 902 l 2,3,4
 459 895 459 895 466 884 c 128,-1,5
 473 873 473 873 473 860 c 0,6,7
 473 843 473 843 463 827 c 2,8,-1
 304 566 l 2,9,10
 290 542 290 542 276 529 c 1,11,12
 291 515 291 515 304 493 c 2,13,-1
 463 232 l 2,14,15
 468 224 468 224 470.5 215 c 128,-1,16
 473 206 473 206 473 198 c 0,17,18
 473 170 473 170 445 157 c 2,19,-1
 387 129 l 1,20,-1
 138 518 l 1,0,-1
434 518 m 1,21,-1
 434 541 l 1,22,-1
 683 930 l 1,23,-1
 741 902 l 2,24,25
 755 895 755 895 762 884 c 128,-1,26
 769 873 769 873 769 860 c 0,27,28
 769 843 769 843 759 827 c 2,29,-1
 600 566 l 2,30,31
 586 542 586 542 572 529 c 1,32,33
 587 515 587 515 600 493 c 2,34,-1
 759 232 l 2,35,36
 764 224 764 224 766.5 215 c 128,-1,37
 769 206 769 206 769 198 c 0,38,39
 769 170 769 170 741 157 c 2,40,-1
 683 129 l 1,41,-1
 434 518 l 1,21,-1
EndSplineSet
EndChar

StartChar: Atilde
Encoding: 195 195 133
Width: 926
Flags: W
LayerCount: 2
Fore
SplineSet
236 129 m 1,0,-1
 178 157 l 2,1,2
 150 170 150 170 150 198 c 0,3,4
 150 215 150 215 160 232 c 2,5,-1
 319 493 l 2,6,7
 332 517 332 517 346 529 c 1,8,9
 334 540 334 540 319 566 c 2,10,-1
 160 827 l 2,11,12
 150 844 150 844 150 861 c 0,13,14
 150 889 150 889 178 902 c 2,15,-1
 236 930 l 1,16,-1
 485 541 l 1,17,-1
 485 518 l 1,18,-1
 236 129 l 1,0,-1
781 541 m 1,19,-1
 781 518 l 1,20,-1
 532 129 l 1,21,-1
 474 157 l 2,22,23
 446 170 446 170 446 198 c 0,24,25
 446 215 446 215 456 232 c 2,26,-1
 615 493 l 2,27,28
 628 517 628 517 642 529 c 1,29,30
 630 540 630 540 615 566 c 2,31,-1
 456 827 l 2,32,33
 446 844 446 844 446 861 c 0,34,35
 446 889 446 889 474 902 c 2,36,-1
 532 930 l 1,37,-1
 781 541 l 1,19,-1
EndSplineSet
EndChar

StartChar: Adieresis
Encoding: 196 196 134
Width: 1160
Flags: W
LayerCount: 2
Fore
SplineSet
1017 1014 m 1,0,-1
 673 670 l 1,1,-1
 1027 317 l 1,2,-1
 932 221 l 1,3,-1
 578 575 l 1,4,-1
 221 219 l 1,5,-1
 126 315 l 1,6,-1
 482 671 l 1,7,-1
 137 1016 l 1,8,-1
 232 1112 l 1,9,-1
 577 766 l 1,10,-1
 921 1110 l 1,11,-1
 1017 1014 l 1,0,-1
EndSplineSet
EndChar

StartChar: Eth
Encoding: 208 208 139
Width: 1578
Flags: W
LayerCount: 2
Fore
SplineSet
50 780 m 1,0,-1
 247 780 l 1,1,-1
 247 1433 l 1,2,-1
 782 1433 l 2,3,4
 940 1433 940 1433 1070.5 1381.5 c 128,-1,5
 1201 1330 1201 1330 1294 1235.5 c 128,-1,6
 1387 1141 1387 1141 1438 1009 c 128,-1,7
 1489 877 1489 877 1489 716 c 256,8,9
 1489 555 1489 555 1438 423 c 128,-1,10
 1387 291 1387 291 1294 197 c 128,-1,11
 1201 103 1201 103 1070.5 51.5 c 128,-1,12
 940 0 940 0 782 0 c 2,13,-1
 247 0 l 1,14,-1
 247 666 l 1,15,-1
 50 666 l 1,16,-1
 50 780 l 1,0,-1
1290 716 m 256,17,18
 1290 848 1290 848 1254 952 c 128,-1,19
 1218 1056 1218 1056 1152 1128 c 128,-1,20
 1086 1200 1086 1200 992 1238 c 128,-1,21
 898 1276 898 1276 782 1276 c 2,22,-1
 441 1276 l 1,23,-1
 441 780 l 1,24,-1
 822 780 l 1,25,-1
 822 666 l 1,26,-1
 441 666 l 1,27,-1
 441 157 l 1,28,-1
 782 157 l 2,29,30
 898 157 898 157 992 195 c 128,-1,31
 1086 233 1086 233 1152 304.5 c 128,-1,32
 1218 376 1218 376 1254 480 c 128,-1,33
 1290 584 1290 584 1290 716 c 256,17,18
EndSplineSet
EndChar

StartChar: multiply
Encoding: 215 215 146
Width: 1160
Flags: W
LayerCount: 2
Fore
SplineSet
1017 1014 m 1,0,-1
 673 670 l 1,1,-1
 1027 317 l 1,2,-1
 932 221 l 1,3,-1
 578 575 l 1,4,-1
 221 219 l 1,5,-1
 126 315 l 1,6,-1
 482 671 l 1,7,-1
 137 1016 l 1,8,-1
 232 1112 l 1,9,-1
 577 766 l 1,10,-1
 921 1110 l 1,11,-1
 1017 1014 l 1,0,-1
EndSplineSet
EndChar

StartChar: Oslash
Encoding: 216 216 147
Width: 1596
Flags: W
LayerCount: 2
Fore
SplineSet
1505 716 m 0,0,1
 1505 555 1505 555 1454 420.5 c 128,-1,2
 1403 286 1403 286 1310 189 c 128,-1,3
 1217 92 1217 92 1086.5 38.5 c 128,-1,4
 956 -15 956 -15 798 -15 c 0,5,6
 690 -15 690 -15 596 9.5 c 128,-1,7
 502 34 502 34 423 82 c 1,8,-1
 323 -54 l 2,9,10
 301 -83 301 -83 272 -96 c 128,-1,11
 243 -109 243 -109 214 -109 c 2,12,-1
 136 -109 l 1,13,-1
 327 151 l 1,14,15
 215 249 215 249 153.5 393 c 128,-1,16
 92 537 92 537 92 716 c 0,17,18
 92 877 92 877 143 1011.5 c 128,-1,19
 194 1146 194 1146 287 1243.5 c 128,-1,20
 380 1341 380 1341 510 1395 c 128,-1,21
 640 1449 640 1449 798 1449 c 0,22,23
 913 1449 913 1449 1013 1420 c 128,-1,24
 1113 1391 1113 1391 1196 1337 c 1,25,-1
 1278 1448 l 2,26,27
 1298 1475 1298 1475 1314 1486.5 c 128,-1,28
 1330 1498 1330 1498 1362 1498 c 2,29,-1
 1462 1498 l 1,30,-1
 1290 1263 l 1,31,32
 1393 1165 1393 1165 1449 1026 c 128,-1,33
 1505 887 1505 887 1505 716 c 0,0,1
290 716 m 0,34,35
 290 581 290 581 327.5 475.5 c 128,-1,36
 365 370 365 370 434 297 c 1,37,-1
 1093 1196 l 1,38,39
 1033 1238 1033 1238 959 1259.5 c 128,-1,40
 885 1281 885 1281 798 1281 c 0,41,42
 683 1281 683 1281 589 1242 c 128,-1,43
 495 1203 495 1203 428.5 1130.5 c 128,-1,44
 362 1058 362 1058 326 953 c 128,-1,45
 290 848 290 848 290 716 c 0,34,35
1306 716 m 0,46,47
 1306 842 1306 842 1273.5 942.5 c 128,-1,48
 1241 1043 1241 1043 1181 1115 c 1,49,-1
 526 223 l 1,50,51
 642 153 642 153 798 153 c 0,52,53
 914 153 914 153 1008 191.5 c 128,-1,54
 1102 230 1102 230 1168 302.5 c 128,-1,55
 1234 375 1234 375 1270 479.5 c 128,-1,56
 1306 584 1306 584 1306 716 c 0,46,47
EndSplineSet
EndChar

StartChar: Thorn
Encoding: 222 222 153
Width: 1222
Flags: W
LayerCount: 2
Fore
SplineSet
387 272 m 1,0,-1
 387 0 l 1,1,-1
 194 0 l 1,2,-1
 194 1433 l 1,3,-1
 387 1433 l 1,4,-1
 387 1169 l 1,5,-1
 617 1169 l 2,6,7
 753 1169 753 1169 853.5 1137.5 c 128,-1,8
 954 1106 954 1106 1020 1048 c 128,-1,9
 1086 990 1086 990 1118.5 908 c 128,-1,10
 1151 826 1151 826 1151 725 c 0,11,12
 1151 625 1151 625 1116 542 c 128,-1,13
 1081 459 1081 459 1013.5 399 c 128,-1,14
 946 339 946 339 846 305.5 c 128,-1,15
 746 272 746 272 617 272 c 2,16,-1
 387 272 l 1,0,-1
387 426 m 1,17,-1
 617 426 l 2,18,19
 700 426 700 426 763.5 448 c 128,-1,20
 827 470 827 470 870 509.5 c 128,-1,21
 913 549 913 549 935 604 c 128,-1,22
 957 659 957 659 957 725 c 0,23,24
 957 862 957 862 872.5 939 c 128,-1,25
 788 1016 788 1016 617 1016 c 2,26,-1
 387 1016 l 1,27,-1
 387 426 l 1,17,-1
EndSplineSet
EndChar

StartChar: germandbls
Encoding: 223 223 154
Width: 1218
Flags: W
LayerCount: 2
Fore
SplineSet
673 1454 m 0,0,1
 776 1454 776 1454 851.5 1424 c 128,-1,2
 927 1394 927 1394 976 1347.5 c 128,-1,3
 1025 1301 1025 1301 1048.5 1246 c 128,-1,4
 1072 1191 1072 1191 1072 1140 c 0,5,6
 1072 1080 1072 1080 1050.5 1037 c 128,-1,7
 1029 994 1029 994 997 961 c 128,-1,8
 965 928 965 928 927.5 903 c 128,-1,9
 890 878 890 878 858 854 c 128,-1,10
 826 830 826 830 804.5 804.5 c 128,-1,11
 783 779 783 779 783 747 c 0,12,13
 783 708 783 708 809.5 682 c 128,-1,14
 836 656 836 656 876 633.5 c 128,-1,15
 916 611 916 611 962.5 587.5 c 128,-1,16
 1009 564 1009 564 1049 529 c 128,-1,17
 1089 494 1089 494 1115.5 443 c 128,-1,18
 1142 392 1142 392 1142 314 c 256,19,20
 1142 236 1142 236 1113.5 175 c 128,-1,21
 1085 114 1085 114 1035 71.5 c 128,-1,22
 985 29 985 29 917.5 6.5 c 128,-1,23
 850 -16 850 -16 771 -16 c 0,24,25
 674 -16 674 -16 595 18.5 c 128,-1,26
 516 53 516 53 456 107 c 1,27,-1
 497 175 l 2,28,29
 505 188 505 188 516.5 195 c 128,-1,30
 528 202 528 202 545 202 c 0,31,32
 563 202 563 202 583 188 c 128,-1,33
 603 174 603 174 630.5 157 c 128,-1,34
 658 140 658 140 695.5 126 c 128,-1,35
 733 112 733 112 786 112 c 0,36,37
 830 112 830 112 865 125.5 c 128,-1,38
 900 139 900 139 924.5 162 c 128,-1,39
 949 185 949 185 962 217 c 128,-1,40
 975 249 975 249 975 286 c 0,41,42
 975 342 975 342 947 377 c 128,-1,43
 919 412 919 412 877 437.5 c 128,-1,44
 835 463 835 463 786 484 c 128,-1,45
 737 505 737 505 695 534 c 128,-1,46
 653 563 653 563 625 604.5 c 128,-1,47
 597 646 597 646 597 712 c 0,48,49
 597 765 597 765 619.5 804.5 c 128,-1,50
 642 844 642 844 675.5 875.5 c 128,-1,51
 709 907 709 907 748 934 c 128,-1,52
 787 961 787 961 820.5 991 c 128,-1,53
 854 1021 854 1021 876.5 1056.5 c 128,-1,54
 899 1092 899 1092 899 1140 c 0,55,56
 899 1172 899 1172 886.5 1204.5 c 128,-1,57
 874 1237 874 1237 846 1263 c 128,-1,58
 818 1289 818 1289 773.5 1305.5 c 128,-1,59
 729 1322 729 1322 666 1322 c 0,60,61
 598 1322 598 1322 542.5 1301 c 128,-1,62
 487 1280 487 1280 447.5 1238 c 128,-1,63
 408 1196 408 1196 386.5 1133 c 128,-1,64
 365 1070 365 1070 365 986 c 2,65,-1
 365 0 l 1,66,-1
 186 0 l 1,67,-1
 186 992 l 2,68,69
 186 1096 186 1096 220.5 1181 c 128,-1,70
 255 1266 255 1266 319 1327 c 128,-1,71
 383 1388 383 1388 473 1421 c 128,-1,72
 563 1454 563 1454 673 1454 c 0,0,1
EndSplineSet
EndChar

StartChar: ae
Encoding: 230 230 161
Width: 1632
Flags: W
LayerCount: 2
Fore
SplineSet
1166 1029 m 0,0,1
 1248 1029 1248 1029 1318.5 997 c 128,-1,2
 1389 965 1389 965 1440.5 904 c 128,-1,3
 1492 843 1492 843 1521.5 755.5 c 128,-1,4
 1551 668 1551 668 1551 556 c 0,5,6
 1551 515 1551 515 1543 500.5 c 128,-1,7
 1535 486 1535 486 1510 486 c 2,8,-1
 883 486 l 1,9,10
 887 395 887 395 910 327.5 c 128,-1,11
 933 260 933 260 971.5 215 c 128,-1,12
 1010 170 1010 170 1062.5 148 c 128,-1,13
 1115 126 1115 126 1180 126 c 0,14,15
 1249 126 1249 126 1295 140.5 c 128,-1,16
 1341 155 1341 155 1371.5 173 c 128,-1,17
 1402 191 1402 191 1421 205.5 c 128,-1,18
 1440 220 1440 220 1456 220 c 0,19,20
 1470 220 1470 220 1479 215.5 c 128,-1,21
 1488 211 1488 211 1494 203 c 2,22,-1
 1541 142 l 1,23,24
 1508 102 1508 102 1464.5 72.5 c 128,-1,25
 1421 43 1421 43 1371.5 24 c 128,-1,26
 1322 5 1322 5 1269 -4.5 c 128,-1,27
 1216 -14 1216 -14 1164 -14 c 0,28,29
 1047 -14 1047 -14 951.5 42.5 c 128,-1,30
 856 99 856 99 801 215 c 1,31,32
 774 153 774 153 730.5 109 c 128,-1,33
 687 65 687 65 634 37 c 128,-1,34
 581 9 581 9 521.5 -3.5 c 128,-1,35
 462 -16 462 -16 403 -16 c 0,36,37
 334 -16 334 -16 277 1.5 c 128,-1,38
 220 19 220 19 178.5 54 c 128,-1,39
 137 89 137 89 114.5 142 c 128,-1,40
 92 195 92 195 92 267 c 0,41,42
 92 327 92 327 125 385 c 128,-1,43
 158 443 158 443 231.5 489 c 128,-1,44
 305 535 305 535 424 564.5 c 128,-1,45
 543 594 543 594 715 598 c 1,46,-1
 715 648 l 2,47,48
 715 766 715 766 664.5 829 c 128,-1,49
 614 892 614 892 515 892 c 0,50,51
 450 892 450 892 405.5 874.5 c 128,-1,52
 361 857 361 857 328.5 836 c 128,-1,53
 296 815 296 815 272.5 797.5 c 128,-1,54
 249 780 249 780 226 780 c 0,55,56
 208 780 208 780 194.5 789.5 c 128,-1,57
 181 799 181 799 173 813 c 2,58,-1
 141 870 l 1,59,60
 225 951 225 951 315.5 991 c 128,-1,61
 406 1031 406 1031 519 1031 c 0,62,63
 639 1031 639 1031 712 980 c 128,-1,64
 785 929 785 929 818 838 c 1,65,66
 872 926 872 926 958.5 977.5 c 128,-1,67
 1045 1029 1045 1029 1166 1029 c 0,0,1
715 486 m 1,68,69
 592 481 592 481 506 463.5 c 128,-1,70
 420 446 420 446 366 418 c 128,-1,71
 312 390 312 390 287.5 354 c 128,-1,72
 263 318 263 318 263 276 c 0,73,74
 263 189 263 189 313 149 c 128,-1,75
 363 109 363 109 444 109 c 0,76,77
 501 109 501 109 550.5 127 c 128,-1,78
 600 145 600 145 636.5 182 c 128,-1,79
 673 219 673 219 694 274 c 128,-1,80
 715 329 715 329 715 403 c 2,81,-1
 715 486 l 1,68,69
1159 898 m 0,82,83
 1098 898 1098 898 1050 877.5 c 128,-1,84
 1002 857 1002 857 967.5 818 c 128,-1,85
 933 779 933 779 912.5 723 c 128,-1,86
 892 667 892 667 885 597 c 1,87,-1
 1393 597 l 1,88,89
 1393 662 1393 662 1377.5 717.5 c 128,-1,90
 1362 773 1362 773 1332 813 c 128,-1,91
 1302 853 1302 853 1258.5 875.5 c 128,-1,92
 1215 898 1215 898 1159 898 c 0,82,83
EndSplineSet
EndChar

StartChar: ccedilla
Encoding: 231 231 162
Width: 934
Flags: W
LayerCount: 2
Fore
SplineSet
400 -247 m 0,0,1
 406 -247 406 -247 414 -250.5 c 128,-1,2
 422 -254 422 -254 433 -258.5 c 128,-1,3
 444 -263 444 -263 460 -266.5 c 128,-1,4
 476 -270 476 -270 497 -270 c 0,5,6
 539 -270 539 -270 560.5 -253.5 c 128,-1,7
 582 -237 582 -237 582 -211 c 0,8,9
 582 -192 582 -192 571 -179 c 128,-1,10
 560 -166 560 -166 539.5 -157 c 128,-1,11
 519 -148 519 -148 489 -142 c 128,-1,12
 459 -136 459 -136 421 -131 c 1,13,-1
 458 -10 l 1,14,15
 375 1 375 1 304.5 40.5 c 128,-1,16
 234 80 234 80 183 146 c 128,-1,17
 132 212 132 212 103 303 c 128,-1,18
 74 394 74 394 74 507 c 256,19,20
 74 620 74 620 105.5 716 c 128,-1,21
 137 812 137 812 197.5 881.5 c 128,-1,22
 258 951 258 951 347 990 c 128,-1,23
 436 1029 436 1029 551 1029 c 0,24,25
 657 1029 657 1029 739 994.5 c 128,-1,26
 821 960 821 960 884 897 c 1,27,-1
 837 833 l 2,28,29
 829 822 829 822 821 816 c 128,-1,30
 813 810 813 810 798 810 c 256,31,32
 783 810 783 810 765.5 822.5 c 128,-1,33
 748 835 748 835 721 850 c 128,-1,34
 694 865 694 865 655.5 877.5 c 128,-1,35
 617 890 617 890 561 890 c 0,36,37
 487 890 487 890 430 863.5 c 128,-1,38
 373 837 373 837 334.5 787 c 128,-1,39
 296 737 296 737 276.5 666 c 128,-1,40
 257 595 257 595 257 507 c 0,41,42
 257 415 257 415 278 343.5 c 128,-1,43
 299 272 299 272 337 223.5 c 128,-1,44
 375 175 375 175 429.5 149.5 c 128,-1,45
 484 124 484 124 552 124 c 0,46,47
 617 124 617 124 659 139.5 c 128,-1,48
 701 155 701 155 729 174 c 128,-1,49
 757 193 757 193 775 208.5 c 128,-1,50
 793 224 793 224 811 224 c 0,51,52
 822 224 822 224 830.5 219.5 c 128,-1,53
 839 215 839 215 845 207 c 2,54,-1
 895 142 l 1,55,56
 836 70 836 70 751 33 c 128,-1,57
 666 -4 666 -4 569 -12 c 1,58,-1
 552 -70 l 1,59,60
 642 -90 642 -90 682.5 -124.5 c 128,-1,61
 723 -159 723 -159 723 -213 c 0,62,63
 723 -245 723 -245 707 -270.5 c 128,-1,64
 691 -296 691 -296 662.5 -314 c 128,-1,65
 634 -332 634 -332 594 -341.5 c 128,-1,66
 554 -351 554 -351 506 -351 c 0,67,68
 465 -351 465 -351 428 -342.5 c 128,-1,69
 391 -334 391 -334 360 -320 c 1,70,-1
 377 -265 l 2,71,72
 383 -247 383 -247 400 -247 c 0,0,1
EndSplineSet
EndChar

StartChar: eth
Encoding: 240 240 171
Width: 1106
Flags: W
LayerCount: 2
Fore
SplineSet
417 1065 m 2,0,1
 413 1072 413 1072 410.5 1078.5 c 128,-1,2
 408 1085 408 1085 408 1091 c 0,3,4
 408 1113 408 1113 431 1128 c 2,5,-1
 534 1200 l 1,6,7
 489 1220 489 1220 438.5 1237 c 128,-1,8
 388 1254 388 1254 331 1268 c 0,9,10
 313 1273 313 1273 300.5 1286.5 c 128,-1,11
 288 1300 288 1300 288 1323 c 0,12,13
 288 1338 288 1338 293 1352 c 2,14,-1
 313 1414 l 1,15,16
 409 1398 409 1398 499 1368 c 128,-1,17
 589 1338 589 1338 670 1290 c 1,18,-1
 837 1412 l 1,19,-1
 872 1355 l 2,20,21
 880 1342 880 1342 880 1331 c 0,22,23
 880 1310 880 1310 858 1294 c 2,24,-1
 761 1227 l 1,25,26
 821 1178 821 1178 870.5 1116 c 128,-1,27
 920 1054 920 1054 955 976.5 c 128,-1,28
 990 899 990 899 1009.5 806.5 c 128,-1,29
 1029 714 1029 714 1029 604 c 0,30,31
 1029 461 1029 461 998 347 c 128,-1,32
 967 233 967 233 905.5 153 c 128,-1,33
 844 73 844 73 752.5 30 c 128,-1,34
 661 -13 661 -13 541 -13 c 0,35,36
 443 -13 443 -13 358 20 c 128,-1,37
 273 53 273 53 210.5 114.5 c 128,-1,38
 148 176 148 176 112 265 c 128,-1,39
 76 354 76 354 76 466 c 0,40,41
 76 560 76 560 107 643.5 c 128,-1,42
 138 727 138 727 196 790 c 128,-1,43
 254 853 254 853 336.5 890 c 128,-1,44
 419 927 419 927 523 927 c 0,45,46
 623 927 623 927 711.5 884 c 128,-1,47
 800 841 800 841 865 754 c 1,48,49
 845 890 845 890 786.5 985 c 128,-1,50
 728 1080 728 1080 634 1144 c 1,51,-1
 450 1009 l 1,52,-1
 417 1065 l 2,0,1
545 125 m 0,53,54
 616 125 616 125 673.5 152 c 128,-1,55
 731 179 731 179 771.5 233.5 c 128,-1,56
 812 288 812 288 835 370.5 c 128,-1,57
 858 453 858 453 861 564 c 1,58,59
 845 607 845 607 819 647.5 c 128,-1,60
 793 688 793 688 755.5 719.5 c 128,-1,61
 718 751 718 751 668.5 769.5 c 128,-1,62
 619 788 619 788 557 788 c 0,63,64
 482 788 482 788 425.5 763 c 128,-1,65
 369 738 369 738 331 694.5 c 128,-1,66
 293 651 293 651 273.5 591.5 c 128,-1,67
 254 532 254 532 254 464 c 0,68,69
 254 383 254 383 277 319.5 c 128,-1,70
 300 256 300 256 340 213 c 128,-1,71
 380 170 380 170 432.5 147.5 c 128,-1,72
 485 125 485 125 545 125 c 0,53,54
EndSplineSet
EndChar

StartChar: oslash
Encoding: 248 248 178
Width: 1112
Flags: W
LayerCount: 2
Fore
SplineSet
912 884 m 1,0,1
 973 816 973 816 1006 720.5 c 128,-1,2
 1039 625 1039 625 1039 507 c 0,3,4
 1039 387 1039 387 1005.5 291 c 128,-1,5
 972 195 972 195 909.5 127 c 128,-1,6
 847 59 847 59 757.5 22.5 c 128,-1,7
 668 -14 668 -14 557 -14 c 0,8,9
 481 -14 481 -14 415.5 3 c 128,-1,10
 350 20 350 20 296 52 c 1,11,-1
 241 -22 l 2,12,13
 219 -51 219 -51 189.5 -63.5 c 128,-1,14
 160 -76 160 -76 131 -76 c 2,15,-1
 64 -76 l 1,16,-1
 209 120 l 1,17,18
 143 189 143 189 108 286 c 128,-1,19
 73 383 73 383 73 507 c 0,20,21
 73 626 73 626 107 722.5 c 128,-1,22
 141 819 141 819 204 887 c 128,-1,23
 267 955 267 955 356.5 992 c 128,-1,24
 446 1029 446 1029 557 1029 c 0,25,26
 636 1029 636 1029 703.5 1010 c 128,-1,27
 771 991 771 991 827 956 c 1,28,-1
 895 1047 l 2,29,30
 915 1074 915 1074 931 1085.5 c 128,-1,31
 947 1097 947 1097 979 1097 c 2,32,-1
 1069 1097 l 1,33,-1
 912 884 l 1,0,1
246 506 m 0,34,35
 246 346 246 346 305 249 c 1,36,-1
 741 839 l 1,37,38
 668 895 668 895 557 895 c 0,39,40
 481 895 481 895 423 868 c 128,-1,41
 365 841 365 841 325.5 791 c 128,-1,42
 286 741 286 741 266 668.5 c 128,-1,43
 246 596 246 596 246 506 c 0,34,35
557 120 m 0,44,45
 632 120 632 120 689.5 146.5 c 128,-1,46
 747 173 747 173 786.5 223 c 128,-1,47
 826 273 826 273 846 344.5 c 128,-1,48
 866 416 866 416 866 506 c 0,49,50
 866 657 866 657 814 753 c 1,51,-1
 381 168 l 1,52,53
 451 120 451 120 557 120 c 0,44,45
EndSplineSet
EndChar

StartChar: thorn
Encoding: 254 254 184
Width: 1104
Flags: W
LayerCount: 2
Fore
SplineSet
146 -343 m 1,0,-1
 146 1473 l 1,1,-1
 324 1473 l 1,2,-1
 324 866 l 1,3,4
 387 940 387 940 469 984.5 c 128,-1,5
 551 1029 551 1029 656 1029 c 0,6,7
 743 1029 743 1029 814 996 c 128,-1,8
 885 963 885 963 935 897.5 c 128,-1,9
 985 832 985 832 1012 735.5 c 128,-1,10
 1039 639 1039 639 1039 513 c 0,11,12
 1039 401 1039 401 1009 304.5 c 128,-1,13
 979 208 979 208 923 137.5 c 128,-1,14
 867 67 867 67 785.5 26.5 c 128,-1,15
 704 -14 704 -14 602 -14 c 0,16,17
 507 -14 507 -14 441 20.5 c 128,-1,18
 375 55 375 55 324 118 c 1,19,-1
 324 -343 l 1,20,-1
 146 -343 l 1,0,-1
597 887 m 0,21,22
 510 887 510 887 444.5 847 c 128,-1,23
 379 807 379 807 324 734 c 1,24,-1
 324 244 l 1,25,26
 373 178 373 178 431.5 151 c 128,-1,27
 490 124 490 124 562 124 c 0,28,29
 703 124 703 124 779 225 c 128,-1,30
 855 326 855 326 855 513 c 0,31,32
 855 612 855 612 837.5 683 c 128,-1,33
 820 754 820 754 787 799.5 c 128,-1,34
 754 845 754 845 706 866 c 128,-1,35
 658 887 658 887 597 887 c 0,21,22
EndSplineSet
EndChar

StartChar: Aogonek
Encoding: 260 260 186
Width: 1360
Flags: W
LayerCount: 2
Fore
SplineSet
1380 -211 m 0,0,1
 1387 -211 1387 -211 1391.5 -215 c 128,-1,2
 1396 -219 1396 -219 1398 -224 c 2,3,-1
 1426 -290 l 1,4,5
 1396 -313 1396 -313 1349.5 -327.5 c 128,-1,6
 1303 -342 1303 -342 1252 -342 c 0,7,8
 1164 -342 1164 -342 1113.5 -302.5 c 128,-1,9
 1063 -263 1063 -263 1063 -197 c 0,10,11
 1063 -139 1063 -139 1102.5 -88.5 c 128,-1,12
 1142 -38 1142 -38 1202 0 c 1,13,14
 1177 0 1177 0 1161 13 c 128,-1,15
 1145 26 1145 26 1137 46 c 2,16,-1
 1003 392 l 1,17,-1
 360 392 l 1,18,-1
 226 46 l 2,19,20
 219 28 219 28 202 14 c 128,-1,21
 185 0 185 0 160 0 c 2,22,-1
 10 0 l 1,23,-1
 583 1433 l 1,24,-1
 780 1433 l 1,25,-1
 1353 0 l 1,26,-1
 1316 0 l 1,27,28
 1296 -11 1296 -11 1275 -26.5 c 128,-1,29
 1254 -42 1254 -42 1237 -61.5 c 128,-1,30
 1220 -81 1220 -81 1209 -104.5 c 128,-1,31
 1198 -128 1198 -128 1198 -154 c 0,32,33
 1198 -192 1198 -192 1222.5 -213.5 c 128,-1,34
 1247 -235 1247 -235 1289 -235 c 0,35,36
 1312 -235 1312 -235 1327 -231.5 c 128,-1,37
 1342 -228 1342 -228 1352 -223.5 c 128,-1,38
 1362 -219 1362 -219 1368.5 -215 c 128,-1,39
 1375 -211 1375 -211 1380 -211 c 0,0,1
414 532 m 1,40,-1
 949 532 l 1,41,-1
 724 1115 l 2,42,43
 702 1169 702 1169 681 1250 c 1,44,45
 670 1209 670 1209 659.5 1174.5 c 128,-1,46
 649 1140 649 1140 639 1114 c 2,47,-1
 414 532 l 1,40,-1
EndSplineSet
EndChar

StartChar: aogonek
Encoding: 261 261 187
Width: 1014
Flags: W
LayerCount: 2
Fore
SplineSet
890 0 m 1,0,1
 870 -11 870 -11 849 -26.5 c 128,-1,2
 828 -42 828 -42 811 -61.5 c 128,-1,3
 794 -81 794 -81 783 -104.5 c 128,-1,4
 772 -128 772 -128 772 -154 c 0,5,6
 772 -192 772 -192 796.5 -213.5 c 128,-1,7
 821 -235 821 -235 863 -235 c 0,8,9
 886 -235 886 -235 901 -231.5 c 128,-1,10
 916 -228 916 -228 926 -223.5 c 128,-1,11
 936 -219 936 -219 942.5 -215 c 128,-1,12
 949 -211 949 -211 954 -211 c 0,13,14
 961 -211 961 -211 965.5 -215 c 128,-1,15
 970 -219 970 -219 972 -224 c 2,16,-1
 1000 -290 l 1,17,18
 970 -313 970 -313 923.5 -327.5 c 128,-1,19
 877 -342 877 -342 826 -342 c 0,20,21
 738 -342 738 -342 687.5 -302.5 c 128,-1,22
 637 -263 637 -263 637 -197 c 0,23,24
 637 -168 637 -168 648 -140 c 128,-1,25
 659 -112 659 -112 678.5 -86.5 c 128,-1,26
 698 -61 698 -61 724.5 -38.5 c 128,-1,27
 751 -16 751 -16 782 3 c 1,28,29
 758 10 758 10 748 42 c 2,30,-1
 728 136 l 1,31,32
 688 100 688 100 650 71.5 c 128,-1,33
 612 43 612 43 570 23.5 c 128,-1,34
 528 4 528 4 480.5 -6 c 128,-1,35
 433 -16 433 -16 375 -16 c 0,36,37
 316 -16 316 -16 264.5 0.5 c 128,-1,38
 213 17 213 17 175 50 c 128,-1,39
 137 83 137 83 114.5 133.5 c 128,-1,40
 92 184 92 184 92 253 c 0,41,42
 92 313 92 313 125 368.5 c 128,-1,43
 158 424 158 424 231.5 467 c 128,-1,44
 305 510 305 510 424 537.5 c 128,-1,45
 543 565 543 565 715 569 c 1,46,-1
 715 648 l 2,47,48
 715 766 715 766 664.5 826.5 c 128,-1,49
 614 887 614 887 515 887 c 0,50,51
 450 887 450 887 405.5 870.5 c 128,-1,52
 361 854 361 854 328.5 833.5 c 128,-1,53
 296 813 296 813 272.5 796.5 c 128,-1,54
 249 780 249 780 226 780 c 0,55,56
 208 780 208 780 195 789.5 c 128,-1,57
 182 799 182 799 173 813 c 2,58,-1
 141 870 l 1,59,60
 225 951 225 951 322 991 c 128,-1,61
 419 1031 419 1031 537 1031 c 0,62,63
 622 1031 622 1031 688 1003 c 128,-1,64
 754 975 754 975 799 925 c 128,-1,65
 844 875 844 875 867 804 c 128,-1,66
 890 733 890 733 890 648 c 2,67,-1
 890 0 l 1,0,1
428 109 m 0,68,69
 475 109 475 109 514 118.5 c 128,-1,70
 553 128 553 128 587.5 145.5 c 128,-1,71
 622 163 622 163 653.5 188 c 128,-1,72
 685 213 685 213 715 245 c 1,73,-1
 715 456 l 1,74,75
 592 452 592 452 506 436.5 c 128,-1,76
 420 421 420 421 366 396 c 128,-1,77
 312 371 312 371 287.5 337 c 128,-1,78
 263 303 263 303 263 261 c 0,79,80
 263 221 263 221 276 192 c 128,-1,81
 289 163 289 163 311 144.5 c 128,-1,82
 333 126 333 126 363 117.5 c 128,-1,83
 393 109 393 109 428 109 c 0,68,69
EndSplineSet
EndChar

StartChar: Eogonek
Encoding: 280 280 190
Width: 1188
Flags: W
LayerCount: 2
Fore
SplineSet
1030 -211 m 0,0,1
 1037 -211 1037 -211 1041.5 -215 c 128,-1,2
 1046 -219 1046 -219 1048 -224 c 2,3,-1
 1076 -290 l 1,4,5
 1046 -313 1046 -313 999.5 -327.5 c 128,-1,6
 953 -342 953 -342 902 -342 c 0,7,8
 814 -342 814 -342 763.5 -302.5 c 128,-1,9
 713 -263 713 -263 713 -197 c 0,10,11
 713 -139 713 -139 752.5 -88.5 c 128,-1,12
 792 -38 792 -38 852 0 c 1,13,-1
 174 0 l 1,14,-1
 174 1433 l 1,15,-1
 1057 1433 l 1,16,-1
 1057 1275 l 1,17,-1
 369 1275 l 1,18,-1
 369 799 l 1,19,-1
 926 799 l 1,20,-1
 926 647 l 1,21,-1
 369 647 l 1,22,-1
 369 158 l 1,23,-1
 1057 158 l 1,24,-1
 1057 0 l 1,25,-1
 966 0 l 1,26,27
 946 -11 946 -11 925 -26.5 c 128,-1,28
 904 -42 904 -42 887 -61.5 c 128,-1,29
 870 -81 870 -81 859 -104.5 c 128,-1,30
 848 -128 848 -128 848 -154 c 0,31,32
 848 -192 848 -192 872.5 -213.5 c 128,-1,33
 897 -235 897 -235 939 -235 c 0,34,35
 962 -235 962 -235 977 -231.5 c 128,-1,36
 992 -228 992 -228 1002 -223.5 c 128,-1,37
 1012 -219 1012 -219 1018.5 -215 c 128,-1,38
 1025 -211 1025 -211 1030 -211 c 0,0,1
EndSplineSet
EndChar

StartChar: eogonek
Encoding: 281 281 191
Width: 1048
Flags: W
LayerCount: 2
Fore
SplineSet
745 -211 m 0,0,1
 752 -211 752 -211 756.5 -215 c 128,-1,2
 761 -219 761 -219 763 -224 c 2,3,-1
 791 -290 l 1,4,5
 761 -313 761 -313 714.5 -327.5 c 128,-1,6
 668 -342 668 -342 617 -342 c 0,7,8
 529 -342 529 -342 478.5 -302.5 c 128,-1,9
 428 -263 428 -263 428 -197 c 0,10,11
 428 -144 428 -144 461 -97.5 c 128,-1,12
 494 -51 494 -51 546 -14 c 1,13,14
 443 -12 443 -12 356.5 24 c 128,-1,15
 270 60 270 60 207 129 c 128,-1,16
 144 198 144 198 109 298 c 128,-1,17
 74 398 74 398 74 527 c 0,18,19
 74 633 74 633 106.5 725 c 128,-1,20
 139 817 139 817 200 884.5 c 128,-1,21
 261 952 261 952 349 990.5 c 128,-1,22
 437 1029 437 1029 547 1029 c 0,23,24
 638 1029 638 1029 715 998.5 c 128,-1,25
 792 968 792 968 848 910.5 c 128,-1,26
 904 853 904 853 935.5 768.5 c 128,-1,27
 967 684 967 684 967 576 c 0,28,29
 967 534 967 534 958 520 c 128,-1,30
 949 506 949 506 924 506 c 2,31,-1
 250 506 l 1,32,33
 252 410 252 410 276 339 c 128,-1,34
 300 268 300 268 342 220.5 c 128,-1,35
 384 173 384 173 442 149.5 c 128,-1,36
 500 126 500 126 572 126 c 0,37,38
 639 126 639 126 687.5 141.5 c 128,-1,39
 736 157 736 157 771 175 c 128,-1,40
 806 193 806 193 829.5 208.5 c 128,-1,41
 853 224 853 224 870 224 c 0,42,43
 892 224 892 224 904 207 c 2,44,-1
 954 142 l 1,45,46
 904 82 904 82 830.5 46.5 c 128,-1,47
 757 11 757 11 675 -3 c 1,48,49
 655 -14 655 -14 635.5 -29.5 c 128,-1,50
 616 -45 616 -45 599.5 -64 c 128,-1,51
 583 -83 583 -83 573 -106 c 128,-1,52
 563 -129 563 -129 563 -154 c 0,53,54
 563 -192 563 -192 587.5 -213.5 c 128,-1,55
 612 -235 612 -235 654 -235 c 0,56,57
 677 -235 677 -235 692 -231.5 c 128,-1,58
 707 -228 707 -228 717 -223.5 c 128,-1,59
 727 -219 727 -219 733.5 -215 c 128,-1,60
 740 -211 740 -211 745 -211 c 0,0,1
551 898 m 0,61,62
 422 898 422 898 348 823.5 c 128,-1,63
 274 749 274 749 256 617 c 1,64,-1
 807 617 l 1,65,66
 807 679 807 679 790 730.5 c 128,-1,67
 773 782 773 782 740 819.5 c 128,-1,68
 707 857 707 857 659.5 877.5 c 128,-1,69
 612 898 612 898 551 898 c 0,61,62
EndSplineSet
EndChar

StartChar: dotlessi
Encoding: 305 305 192
Width: 512
Flags: W
LayerCount: 2
Fore
SplineSet
344 1013 m 1,0,-1
 344 0 l 1,1,-1
 166 0 l 1,2,-1
 166 1013 l 1,3,-1
 344 1013 l 1,0,-1
EndSplineSet
EndChar

StartChar: Lslash
Encoding: 321 321 193
Width: 1086
Flags: W
LayerCount: 2
Fore
SplineSet
425 805 m 1,0,-1
 809 1001 l 1,1,-1
 809 872 l 2,2,3
 809 843 809 843 782 829 c 2,4,-1
 425 641 l 1,5,-1
 425 163 l 1,6,-1
 1045 163 l 1,7,-1
 1045 0 l 1,8,-1
 231 0 l 1,9,-1
 231 554 l 1,10,-1
 44 459 l 1,11,-1
 44 592 l 2,12,13
 44 618 44 618 69 631 c 2,14,-1
 231 717 l 1,15,-1
 231 1433 l 1,16,-1
 425 1433 l 1,17,-1
 425 805 l 1,0,-1
EndSplineSet
EndChar

StartChar: lslash
Encoding: 322 322 194
Width: 642
Flags: W
LayerCount: 2
Fore
SplineSet
409 1473 m 1,0,-1
 409 899 l 1,1,-1
 587 976 l 1,2,-1
 587 874 l 2,3,4
 587 858 587 858 581 847.5 c 128,-1,5
 575 837 575 837 560 830 c 2,6,-1
 409 763 l 1,7,-1
 409 0 l 1,8,-1
 231 0 l 1,9,-1
 231 697 l 1,10,-1
 54 621 l 1,11,-1
 54 726 l 2,12,13
 54 755 54 755 79 766 c 2,14,-1
 231 834 l 1,15,-1
 231 1473 l 1,16,-1
 409 1473 l 1,0,-1
EndSplineSet
EndChar

StartChar: OE
Encoding: 338 338 197
Width: 2192
Flags: W
LayerCount: 2
Fore
SplineSet
2087 1433 m 1,0,-1
 2087 1275 l 1,1,-1
 1399 1275 l 1,2,-1
 1399 799 l 1,3,-1
 1956 799 l 1,4,-1
 1956 647 l 1,5,-1
 1399 647 l 1,6,-1
 1399 158 l 1,7,-1
 2087 158 l 1,8,-1
 2087 0 l 1,9,-1
 1227 0 l 1,10,-1
 1227 240 l 1,11,12
 1143 120 1143 120 1016 53 c 128,-1,13
 889 -14 889 -14 728 -14 c 0,14,15
 586 -14 586 -14 469 39.5 c 128,-1,16
 352 93 352 93 268 189.5 c 128,-1,17
 184 286 184 286 138 420.5 c 128,-1,18
 92 555 92 555 92 716 c 256,19,20
 92 877 92 877 138 1011.5 c 128,-1,21
 184 1146 184 1146 268 1243.5 c 128,-1,22
 352 1341 352 1341 469 1395 c 128,-1,23
 586 1449 586 1449 728 1449 c 0,24,25
 889 1449 889 1449 1016 1381.5 c 128,-1,26
 1143 1314 1143 1314 1227 1193 c 1,27,-1
 1227 1433 l 1,28,-1
 2087 1433 l 1,0,-1
1204 716 m 256,29,30
 1204 848 1204 848 1172 953.5 c 128,-1,31
 1140 1059 1140 1059 1080.5 1133 c 128,-1,32
 1021 1207 1021 1207 936.5 1246.5 c 128,-1,33
 852 1286 852 1286 748 1286 c 256,34,35
 644 1286 644 1286 559.5 1246.5 c 128,-1,36
 475 1207 475 1207 415 1133 c 128,-1,37
 355 1059 355 1059 322.5 953.5 c 128,-1,38
 290 848 290 848 290 716 c 256,39,40
 290 584 290 584 322.5 478.5 c 128,-1,41
 355 373 355 373 415 299.5 c 128,-1,42
 475 226 475 226 559.5 187 c 128,-1,43
 644 148 644 148 748 148 c 256,44,45
 852 148 852 148 936.5 187 c 128,-1,46
 1021 226 1021 226 1080.5 299.5 c 128,-1,47
 1140 373 1140 373 1172 478.5 c 128,-1,48
 1204 584 1204 584 1204 716 c 256,29,30
EndSplineSet
EndChar

StartChar: oe
Encoding: 339 339 198
Width: 1734
Flags: W
LayerCount: 2
Fore
SplineSet
1268 1029 m 0,0,1
 1350 1029 1350 1029 1420.5 997 c 128,-1,2
 1491 965 1491 965 1542.5 904 c 128,-1,3
 1594 843 1594 843 1623.5 755.5 c 128,-1,4
 1653 668 1653 668 1653 556 c 0,5,6
 1653 515 1653 515 1645 500.5 c 128,-1,7
 1637 486 1637 486 1612 486 c 2,8,-1
 985 486 l 1,9,10
 989 395 989 395 1012 327.5 c 128,-1,11
 1035 260 1035 260 1073.5 215 c 128,-1,12
 1112 170 1112 170 1164.5 148 c 128,-1,13
 1217 126 1217 126 1282 126 c 0,14,15
 1343 126 1343 126 1387.5 141.5 c 128,-1,16
 1432 157 1432 157 1464 175 c 128,-1,17
 1496 193 1496 193 1518.5 208.5 c 128,-1,18
 1541 224 1541 224 1559 224 c 0,19,20
 1580 224 1580 224 1592 207 c 2,21,-1
 1643 142 l 1,22,23
 1610 102 1610 102 1566.5 72.5 c 128,-1,24
 1523 43 1523 43 1473.5 24 c 128,-1,25
 1424 5 1424 5 1371 -4.5 c 128,-1,26
 1318 -14 1318 -14 1266 -14 c 0,27,28
 1147 -14 1147 -14 1051.5 43.5 c 128,-1,29
 956 101 956 101 901 220 c 1,30,31
 847 108 847 108 750.5 47 c 128,-1,32
 654 -14 654 -14 517 -14 c 0,33,34
 417 -14 417 -14 335 22.5 c 128,-1,35
 253 59 253 59 194.5 127 c 128,-1,36
 136 195 136 195 104 291 c 128,-1,37
 72 387 72 387 72 507 c 0,38,39
 72 626 72 626 104 722.5 c 128,-1,40
 136 819 136 819 195.5 887 c 128,-1,41
 255 955 255 955 338.5 992 c 128,-1,42
 422 1029 422 1029 524 1029 c 0,43,44
 655 1029 655 1029 750 968.5 c 128,-1,45
 845 908 845 908 898 798 c 1,46,47
 948 903 948 903 1041.5 966 c 128,-1,48
 1135 1029 1135 1029 1268 1029 c 0,0,1
534 125 m 0,49,50
 673 125 673 125 741 225.5 c 128,-1,51
 809 326 809 326 809 506 c 0,52,53
 809 596 809 596 792 667.5 c 128,-1,54
 775 739 775 739 741 788 c 128,-1,55
 707 837 707 837 655 863 c 128,-1,56
 603 889 603 889 534 889 c 0,57,58
 463 889 463 889 411 863 c 128,-1,59
 359 837 359 837 324.5 788 c 128,-1,60
 290 739 290 739 273 667.5 c 128,-1,61
 256 596 256 596 256 506 c 0,62,63
 256 326 256 326 324.5 225.5 c 128,-1,64
 393 125 393 125 534 125 c 0,49,50
1262 898 m 0,65,66
 1201 898 1201 898 1153 877.5 c 128,-1,67
 1105 857 1105 857 1070.5 818 c 128,-1,68
 1036 779 1036 779 1015 723 c 128,-1,69
 994 667 994 667 987 597 c 1,70,-1
 1495 597 l 1,71,72
 1495 662 1495 662 1479.5 717.5 c 128,-1,73
 1464 773 1464 773 1434 813 c 128,-1,74
 1404 853 1404 853 1360.5 875.5 c 128,-1,75
 1317 898 1317 898 1262 898 c 0,65,66
EndSplineSet
EndChar

StartChar: florin
Encoding: 402 402 210
Width: 1160
Flags: W
LayerCount: 2
Fore
SplineSet
673 768 m 1,0,-1
 584 38 l 2,1,2
 559 -167 559 -167 439.5 -259.5 c 128,-1,3
 320 -352 320 -352 106 -352 c 1,4,-1
 106 -258 l 2,5,6
 106 -201 106 -201 166 -201 c 0,7,8
 211 -201 211 -201 251.5 -188 c 128,-1,9
 292 -175 292 -175 323.5 -146 c 128,-1,10
 355 -117 355 -117 377 -71 c 128,-1,11
 399 -25 399 -25 407 43 c 2,12,-1
 496 763 l 1,13,-1
 341 778 l 2,14,15
 320 780 320 780 309.5 792.5 c 128,-1,16
 299 805 299 805 299 824 c 2,17,-1
 299 897 l 1,18,-1
 512 897 l 1,19,-1
 533 1065 l 2,20,21
 557 1263 557 1263 674.5 1358.5 c 128,-1,22
 792 1454 792 1454 1010 1454 c 1,23,-1
 1010 1356 l 2,24,25
 1010 1327 1010 1327 996 1315.5 c 128,-1,26
 982 1304 982 1304 951 1304 c 0,27,28
 905 1304 905 1304 864.5 1291 c 128,-1,29
 824 1278 824 1278 792 1249 c 128,-1,30
 760 1220 760 1220 737.5 1173.5 c 128,-1,31
 715 1127 715 1127 706 1059 c 2,32,-1
 684 897 l 1,33,-1
 1006 897 l 1,34,-1
 1006 768 l 1,35,-1
 673 768 l 1,0,-1
EndSplineSet
EndChar

StartChar: circumflex
Encoding: 710 710 211
Width: 614
Flags: W
LayerCount: 2
Fore
SplineSet
612 1169 m 1,0,-1
 493 1169 l 2,1,2
 472 1169 472 1169 453 1183 c 2,3,-1
 325 1309 l 1,4,-1
 308 1326 l 1,5,-1
 292 1309 l 1,6,-1
 163 1183 l 2,7,8
 157 1178 157 1178 146 1173.5 c 128,-1,9
 135 1169 135 1169 123 1169 c 2,10,-1
 0 1169 l 1,11,-1
 223 1433 l 1,12,-1
 389 1433 l 1,13,-1
 612 1169 l 1,0,-1
EndSplineSet
Substitution2: "'case' Case-Sensitive Forms in Latin lookup 0 subtable" circumflex.case
EndChar

StartChar: caron
Encoding: 711 711 212
Width: 614
Flags: W
LayerCount: 2
Fore
SplineSet
0 1433 m 1,0,-1
 123 1433 l 2,1,2
 135 1433 135 1433 146 1428 c 128,-1,3
 157 1423 157 1423 163 1418 c 2,4,-1
 291 1293 l 2,5,6
 302 1284 302 1284 308 1274 c 1,7,8
 313 1279 313 1279 316.5 1284 c 128,-1,9
 320 1289 320 1289 325 1293 c 2,10,-1
 453 1418 l 2,11,12
 459 1424 459 1424 470.5 1428.5 c 128,-1,13
 482 1433 482 1433 493 1433 c 2,14,-1
 612 1433 l 1,15,-1
 389 1169 l 1,16,-1
 223 1169 l 1,17,-1
 0 1433 l 1,0,-1
EndSplineSet
Substitution2: "'case' Case-Sensitive Forms in Latin lookup 0 subtable" caron.case
EndChar

StartChar: breve
Encoding: 728 728 214
Width: 614
Flags: W
LayerCount: 2
Fore
SplineSet
306 1164 m 0,0,1
 229 1164 229 1164 177 1185.5 c 128,-1,2
 125 1207 125 1207 92.5 1243.5 c 128,-1,3
 60 1280 60 1280 46 1329 c 128,-1,4
 32 1378 32 1378 32 1433 c 1,5,-1
 158 1433 l 1,6,7
 158 1400 158 1400 165 1371.5 c 128,-1,8
 172 1343 172 1343 189 1323 c 128,-1,9
 206 1303 206 1303 234.5 1291.5 c 128,-1,10
 263 1280 263 1280 306 1280 c 256,11,12
 349 1280 349 1280 377.5 1291.5 c 128,-1,13
 406 1303 406 1303 423 1323 c 128,-1,14
 440 1343 440 1343 447 1371.5 c 128,-1,15
 454 1400 454 1400 454 1433 c 1,16,-1
 580 1433 l 1,17,18
 580 1378 580 1378 566 1329 c 128,-1,19
 552 1280 552 1280 519.5 1243.5 c 128,-1,20
 487 1207 487 1207 434.5 1185.5 c 128,-1,21
 382 1164 382 1164 306 1164 c 0,0,1
EndSplineSet
Substitution2: "'case' Case-Sensitive Forms in Latin lookup 0 subtable" breve.case
EndChar

StartChar: dotaccent
Encoding: 729 729 215
Width: 614
Flags: W
LayerCount: 2
Fore
SplineSet
433 1338 m 256,0,1
 433 1312 433 1312 422.5 1289.5 c 128,-1,2
 412 1267 412 1267 394.5 1250 c 128,-1,3
 377 1233 377 1233 354 1223 c 128,-1,4
 331 1213 331 1213 305 1213 c 256,5,6
 279 1213 279 1213 256.5 1223 c 128,-1,7
 234 1233 234 1233 217 1250 c 128,-1,8
 200 1267 200 1267 190 1289.5 c 128,-1,9
 180 1312 180 1312 180 1338 c 256,10,11
 180 1364 180 1364 190 1387.5 c 128,-1,12
 200 1411 200 1411 217 1428.5 c 128,-1,13
 234 1446 234 1446 256.5 1456 c 128,-1,14
 279 1466 279 1466 305 1466 c 256,15,16
 331 1466 331 1466 354 1456 c 128,-1,17
 377 1446 377 1446 394.5 1428.5 c 128,-1,18
 412 1411 412 1411 422.5 1387.5 c 128,-1,19
 433 1364 433 1364 433 1338 c 256,0,1
EndSplineSet
Substitution2: "'case' Case-Sensitive Forms in Latin lookup 0 subtable" dotaccent.case
EndChar

StartChar: ring
Encoding: 730 730 216
Width: 614
Flags: W
LayerCount: 2
Fore
SplineSet
106 1315 m 0,0,1
 106 1357 106 1357 122 1391 c 128,-1,2
 138 1425 138 1425 165.5 1450 c 128,-1,3
 193 1475 193 1475 229 1488.5 c 128,-1,4
 265 1502 265 1502 305 1502 c 0,5,6
 346 1502 346 1502 382.5 1488.5 c 128,-1,7
 419 1475 419 1475 447 1450 c 128,-1,8
 475 1425 475 1425 491 1391 c 128,-1,9
 507 1357 507 1357 507 1315 c 0,10,11
 507 1274 507 1274 491 1240 c 128,-1,12
 475 1206 475 1206 447 1182 c 128,-1,13
 419 1158 419 1158 382.5 1144.5 c 128,-1,14
 346 1131 346 1131 305 1131 c 0,15,16
 265 1131 265 1131 229 1144.5 c 128,-1,17
 193 1158 193 1158 165.5 1182 c 128,-1,18
 138 1206 138 1206 122 1240 c 128,-1,19
 106 1274 106 1274 106 1315 c 0,0,1
206 1315 m 0,20,21
 206 1271 206 1271 233 1243 c 128,-1,22
 260 1215 260 1215 307 1215 c 0,23,24
 352 1215 352 1215 379.5 1243 c 128,-1,25
 407 1271 407 1271 407 1315 c 0,26,27
 407 1360 407 1360 379.5 1388 c 128,-1,28
 352 1416 352 1416 307 1416 c 0,29,30
 260 1416 260 1416 233 1388 c 128,-1,31
 206 1360 206 1360 206 1315 c 0,20,21
EndSplineSet
Substitution2: "'case' Case-Sensitive Forms in Latin lookup 0 subtable" ring.case
EndChar

StartChar: ogonek
Encoding: 731 731 217
Width: 614
Flags: W
LayerCount: 2
Fore
SplineSet
451 -211 m 0,0,1
 458 -211 458 -211 462.5 -215 c 128,-1,2
 467 -219 467 -219 469 -224 c 2,3,-1
 497 -290 l 1,4,5
 467 -313 467 -313 420.5 -327.5 c 128,-1,6
 374 -342 374 -342 323 -342 c 0,7,8
 235 -342 235 -342 184.5 -302.5 c 128,-1,9
 134 -263 134 -263 134 -197 c 0,10,11
 134 -166 134 -166 146.5 -136.5 c 128,-1,12
 159 -107 159 -107 180.5 -80 c 128,-1,13
 202 -53 202 -53 231.5 -29.5 c 128,-1,14
 261 -6 261 -6 295 13 c 1,15,-1
 387 0 l 1,16,17
 367 -11 367 -11 346 -26.5 c 128,-1,18
 325 -42 325 -42 308 -61.5 c 128,-1,19
 291 -81 291 -81 280 -104.5 c 128,-1,20
 269 -128 269 -128 269 -154 c 0,21,22
 269 -192 269 -192 293.5 -213.5 c 128,-1,23
 318 -235 318 -235 360 -235 c 0,24,25
 383 -235 383 -235 398 -231.5 c 128,-1,26
 413 -228 413 -228 423 -223.5 c 128,-1,27
 433 -219 433 -219 439.5 -215 c 128,-1,28
 446 -211 446 -211 451 -211 c 0,0,1
EndSplineSet
EndChar

StartChar: tilde
Encoding: 732 732 218
Width: 614
Flags: W
LayerCount: 2
Fore
SplineSet
417 1325 m 0,0,1
 453 1325 453 1325 472.5 1346 c 128,-1,2
 492 1367 492 1367 493 1411 c 1,3,-1
 601 1411 l 1,4,5
 601 1364 601 1364 588.5 1324.5 c 128,-1,6
 576 1285 576 1285 552.5 1257 c 128,-1,7
 529 1229 529 1229 496.5 1213.5 c 128,-1,8
 464 1198 464 1198 424 1198 c 0,9,10
 389 1198 389 1198 358.5 1212.5 c 128,-1,11
 328 1227 328 1227 301 1244 c 128,-1,12
 274 1261 274 1261 250 1275.5 c 128,-1,13
 226 1290 226 1290 203 1290 c 0,14,15
 131 1290 131 1290 129 1202 c 1,16,-1
 18 1202 l 1,17,18
 18 1250 18 1250 31 1289.5 c 128,-1,19
 44 1329 44 1329 68 1357.5 c 128,-1,20
 92 1386 92 1386 125 1401.5 c 128,-1,21
 158 1417 158 1417 197 1417 c 0,22,23
 232 1417 232 1417 262.5 1402.5 c 128,-1,24
 293 1388 293 1388 320 1371 c 128,-1,25
 347 1354 347 1354 370.5 1339.5 c 128,-1,26
 394 1325 394 1325 417 1325 c 0,0,1
EndSplineSet
Substitution2: "'case' Case-Sensitive Forms in Latin lookup 0 subtable" tilde.case
EndChar

StartChar: hungarumlaut
Encoding: 733 733 219
Width: 614
Flags: W
LayerCount: 2
Fore
SplineSet
429 1449 m 1,0,-1
 230 1191 l 2,1,2
 218 1175 218 1175 203.5 1169 c 128,-1,3
 189 1163 189 1163 168 1163 c 2,4,-1
 94 1163 l 1,5,-1
 232 1405 l 2,6,7
 245 1428 245 1428 261.5 1438.5 c 128,-1,8
 278 1449 278 1449 311 1449 c 2,9,-1
 429 1449 l 1,0,-1
743 1449 m 1,10,-1
 500 1191 l 2,11,12
 486 1176 486 1176 472.5 1169.5 c 128,-1,13
 459 1163 459 1163 439 1163 c 2,14,-1
 353 1163 l 1,15,-1
 533 1405 l 2,16,17
 549 1427 549 1427 564 1438 c 128,-1,18
 579 1449 579 1449 612 1449 c 2,19,-1
 743 1449 l 1,10,-1
EndSplineSet
Substitution2: "'case' Case-Sensitive Forms in Latin lookup 0 subtable" hungarumlaut.case
EndChar

StartChar: pi
Encoding: 960 960 220
Width: 1236
Flags: W
LayerCount: 2
Fore
SplineSet
1199 1013 m 1,0,-1
 1199 941 l 2,1,2
 1199 918 1199 918 1184 900 c 128,-1,3
 1169 882 1169 882 1140 882 c 2,4,-1
 1004 882 l 1,5,-1
 1004 0 l 1,6,-1
 826 0 l 1,7,-1
 826 882 l 1,8,-1
 429 882 l 1,9,-1
 429 244 l 2,10,11
 429 125 429 125 368.5 56.5 c 128,-1,12
 308 -12 308 -12 179 -12 c 0,13,14
 145 -12 145 -12 112 -6 c 128,-1,15
 79 0 79 0 48 17 c 1,16,-1
 55 92 l 2,17,18
 57 101 57 101 61 106.5 c 128,-1,19
 65 112 65 112 73 114.5 c 128,-1,20
 81 117 81 117 94 117.5 c 128,-1,21
 107 118 107 118 127 118 c 0,22,23
 193 118 193 118 221.5 149 c 128,-1,24
 250 180 250 180 250 246 c 2,25,-1
 250 882 l 1,26,-1
 61 882 l 1,27,-1
 61 946 l 2,28,29
 61 957 61 957 65.5 969 c 128,-1,30
 70 981 70 981 78.5 990.5 c 128,-1,31
 87 1000 87 1000 100 1006.5 c 128,-1,32
 113 1013 113 1013 130 1013 c 2,33,-1
 1199 1013 l 1,0,-1
EndSplineSet
EndChar

StartChar: endash
Encoding: 8211 8211 221
Width: 1112
Flags: W
LayerCount: 2
Fore
SplineSet
156 655 m 1,0,-1
 956 655 l 1,1,-1
 956 525 l 1,2,-1
 156 525 l 1,3,-1
 156 655 l 1,0,-1
EndSplineSet
EndChar

StartChar: emdash
Encoding: 8212 8212 222
Width: 1642
Flags: W
LayerCount: 2
Fore
SplineSet
156 655 m 1,0,-1
 1486 655 l 1,1,-1
 1486 525 l 1,2,-1
 156 525 l 1,3,-1
 156 655 l 1,0,-1
EndSplineSet
EndChar

StartChar: quoteleft
Encoding: 8216 8216 223
Width: 424
Flags: W
LayerCount: 2
Fore
SplineSet
114 1012 m 1,0,1
 85 1060 85 1060 71.5 1108.5 c 128,-1,2
 58 1157 58 1157 58 1205 c 0,3,4
 58 1295 58 1295 102.5 1377.5 c 128,-1,5
 147 1460 147 1460 227 1529 c 1,6,-1
 282 1495 l 2,7,8
 290 1490 290 1490 292.5 1484 c 128,-1,9
 295 1478 295 1478 295 1472 c 0,10,11
 295 1458 295 1458 285 1448 c 0,12,13
 269 1428 269 1428 254 1406 c 128,-1,14
 239 1384 239 1384 227 1359.5 c 128,-1,15
 215 1335 215 1335 208 1308 c 128,-1,16
 201 1281 201 1281 201 1251 c 0,17,18
 201 1219 201 1219 210.5 1185 c 128,-1,19
 220 1151 220 1151 243 1113 c 0,20,21
 250 1102 250 1102 250 1090 c 0,22,23
 250 1066 250 1066 223 1056 c 2,24,-1
 114 1012 l 1,0,1
EndSplineSet
EndChar

StartChar: quoteright
Encoding: 8217 8217 224
Width: 424
Flags: W
LayerCount: 2
Fore
SplineSet
271 1508 m 1,0,1
 300 1460 300 1460 313 1412 c 128,-1,2
 326 1364 326 1364 326 1316 c 0,3,4
 326 1225 326 1225 281.5 1142.5 c 128,-1,5
 237 1060 237 1060 158 991 c 1,6,-1
 103 1025 l 2,7,8
 95 1030 95 1030 92.5 1036 c 128,-1,9
 90 1042 90 1042 90 1048 c 0,10,11
 90 1062 90 1062 100 1072 c 0,12,13
 116 1091 116 1091 131 1113.5 c 128,-1,14
 146 1136 146 1136 158 1160.5 c 128,-1,15
 170 1185 170 1185 177 1212 c 128,-1,16
 184 1239 184 1239 184 1269 c 0,17,18
 184 1301 184 1301 174.5 1335 c 128,-1,19
 165 1369 165 1369 142 1407 c 0,20,21
 135 1418 135 1418 135 1429 c 0,22,23
 135 1453 135 1453 162 1464 c 2,24,-1
 271 1508 l 1,0,1
EndSplineSet
EndChar

StartChar: quotesinglbase
Encoding: 8218 8218 225
Width: 424
Flags: W
LayerCount: 2
Fore
SplineSet
271 241 m 1,0,1
 300 193 300 193 313 145 c 128,-1,2
 326 97 326 97 326 49 c 0,3,4
 326 -42 326 -42 281.5 -124.5 c 128,-1,5
 237 -207 237 -207 158 -276 c 1,6,-1
 103 -242 l 2,7,8
 95 -237 95 -237 92.5 -231 c 128,-1,9
 90 -225 90 -225 90 -219 c 0,10,11
 90 -205 90 -205 100 -195 c 0,12,13
 116 -176 116 -176 131 -153.5 c 128,-1,14
 146 -131 146 -131 158 -106.5 c 128,-1,15
 170 -82 170 -82 177 -55 c 128,-1,16
 184 -28 184 -28 184 2 c 0,17,18
 184 34 184 34 174.5 68 c 128,-1,19
 165 102 165 102 142 140 c 0,20,21
 135 151 135 151 135 162 c 0,22,23
 135 186 135 186 162 197 c 2,24,-1
 271 241 l 1,0,1
EndSplineSet
EndChar

StartChar: quotedblleft
Encoding: 8220 8220 226
Width: 728
Flags: W
LayerCount: 2
Fore
SplineSet
114 1012 m 1,0,1
 85 1060 85 1060 71.5 1108.5 c 128,-1,2
 58 1157 58 1157 58 1205 c 0,3,4
 58 1295 58 1295 102.5 1377.5 c 128,-1,5
 147 1460 147 1460 227 1529 c 1,6,-1
 282 1495 l 2,7,8
 290 1490 290 1490 292.5 1484 c 128,-1,9
 295 1478 295 1478 295 1472 c 0,10,11
 295 1458 295 1458 285 1448 c 0,12,13
 269 1428 269 1428 254 1406 c 128,-1,14
 239 1384 239 1384 227 1359.5 c 128,-1,15
 215 1335 215 1335 208 1308 c 128,-1,16
 201 1281 201 1281 201 1251 c 0,17,18
 201 1219 201 1219 210.5 1185 c 128,-1,19
 220 1151 220 1151 243 1113 c 0,20,21
 250 1102 250 1102 250 1090 c 0,22,23
 250 1066 250 1066 223 1056 c 2,24,-1
 114 1012 l 1,0,1
418 1012 m 1,25,26
 389 1060 389 1060 375.5 1108.5 c 128,-1,27
 362 1157 362 1157 362 1205 c 0,28,29
 362 1295 362 1295 406.5 1377.5 c 128,-1,30
 451 1460 451 1460 531 1529 c 1,31,-1
 586 1495 l 2,32,33
 594 1490 594 1490 596.5 1484 c 128,-1,34
 599 1478 599 1478 599 1472 c 0,35,36
 599 1458 599 1458 589 1448 c 0,37,38
 573 1428 573 1428 558 1406 c 128,-1,39
 543 1384 543 1384 531 1359.5 c 128,-1,40
 519 1335 519 1335 512 1308 c 128,-1,41
 505 1281 505 1281 505 1251 c 0,42,43
 505 1219 505 1219 514.5 1185 c 128,-1,44
 524 1151 524 1151 547 1113 c 0,45,46
 554 1102 554 1102 554 1090 c 0,47,48
 554 1066 554 1066 527 1056 c 2,49,-1
 418 1012 l 1,25,26
EndSplineSet
EndChar

StartChar: quotedblright
Encoding: 8221 8221 227
Width: 728
Flags: W
LayerCount: 2
Fore
SplineSet
271 1508 m 1,0,1
 300 1460 300 1460 313 1412 c 128,-1,2
 326 1364 326 1364 326 1316 c 0,3,4
 326 1225 326 1225 281.5 1142.5 c 128,-1,5
 237 1060 237 1060 158 991 c 1,6,-1
 103 1025 l 2,7,8
 95 1030 95 1030 92.5 1036 c 128,-1,9
 90 1042 90 1042 90 1048 c 0,10,11
 90 1062 90 1062 100 1072 c 0,12,13
 116 1091 116 1091 131 1113.5 c 128,-1,14
 146 1136 146 1136 158 1160.5 c 128,-1,15
 170 1185 170 1185 177 1212 c 128,-1,16
 184 1239 184 1239 184 1269 c 0,17,18
 184 1301 184 1301 174.5 1335 c 128,-1,19
 165 1369 165 1369 142 1407 c 0,20,21
 135 1418 135 1418 135 1429 c 0,22,23
 135 1453 135 1453 162 1464 c 2,24,-1
 271 1508 l 1,0,1
575 1508 m 1,25,26
 604 1460 604 1460 617 1412 c 128,-1,27
 630 1364 630 1364 630 1316 c 0,28,29
 630 1225 630 1225 585.5 1142.5 c 128,-1,30
 541 1060 541 1060 462 991 c 1,31,-1
 407 1025 l 2,32,33
 399 1030 399 1030 396.5 1036 c 128,-1,34
 394 1042 394 1042 394 1048 c 0,35,36
 394 1062 394 1062 404 1072 c 0,37,38
 420 1091 420 1091 435 1113.5 c 128,-1,39
 450 1136 450 1136 462 1160.5 c 128,-1,40
 474 1185 474 1185 481 1212 c 128,-1,41
 488 1239 488 1239 488 1269 c 0,42,43
 488 1301 488 1301 478.5 1335 c 128,-1,44
 469 1369 469 1369 446 1407 c 0,45,46
 439 1418 439 1418 439 1429 c 0,47,48
 439 1453 439 1453 466 1464 c 2,49,-1
 575 1508 l 1,25,26
EndSplineSet
EndChar

StartChar: quotedblbase
Encoding: 8222 8222 228
Width: 728
Flags: W
LayerCount: 2
Fore
SplineSet
271 241 m 1,0,1
 300 193 300 193 313 145 c 128,-1,2
 326 97 326 97 326 49 c 0,3,4
 326 -42 326 -42 281.5 -124.5 c 128,-1,5
 237 -207 237 -207 158 -276 c 1,6,-1
 103 -242 l 2,7,8
 95 -237 95 -237 92.5 -231 c 128,-1,9
 90 -225 90 -225 90 -219 c 0,10,11
 90 -205 90 -205 100 -195 c 0,12,13
 116 -176 116 -176 131 -153.5 c 128,-1,14
 146 -131 146 -131 158 -106.5 c 128,-1,15
 170 -82 170 -82 177 -55 c 128,-1,16
 184 -28 184 -28 184 2 c 0,17,18
 184 34 184 34 174.5 68 c 128,-1,19
 165 102 165 102 142 140 c 0,20,21
 135 151 135 151 135 162 c 0,22,23
 135 186 135 186 162 197 c 2,24,-1
 271 241 l 1,0,1
575 241 m 1,25,26
 604 193 604 193 617 145 c 128,-1,27
 630 97 630 97 630 49 c 0,28,29
 630 -42 630 -42 585.5 -124.5 c 128,-1,30
 541 -207 541 -207 462 -276 c 1,31,-1
 407 -242 l 2,32,33
 399 -237 399 -237 396.5 -231 c 128,-1,34
 394 -225 394 -225 394 -219 c 0,35,36
 394 -205 394 -205 404 -195 c 0,37,38
 420 -176 420 -176 435 -153.5 c 128,-1,39
 450 -131 450 -131 462 -106.5 c 128,-1,40
 474 -82 474 -82 481 -55 c 128,-1,41
 488 -28 488 -28 488 2 c 0,42,43
 488 34 488 34 478.5 68 c 128,-1,44
 469 102 469 102 446 140 c 0,45,46
 439 151 439 151 439 162 c 0,47,48
 439 186 439 186 466 197 c 2,49,-1
 575 241 l 1,25,26
EndSplineSet
EndChar

StartChar: dagger
Encoding: 8224 8224 229
Width: 1160
Flags: W
LayerCount: 2
Fore
SplineSet
118 918 m 2,0,1
 118 949 118 949 138.5 973 c 128,-1,2
 159 997 159 997 202 997 c 0,3,4
 236 997 236 997 274 992.5 c 128,-1,5
 312 988 312 988 352 983 c 128,-1,6
 392 978 392 978 432 972 c 128,-1,7
 472 966 472 966 511 963 c 1,8,-1
 487 1451 l 1,9,10
 527 1474 527 1474 580 1474 c 0,11,12
 635 1474 635 1474 673 1451 c 1,13,-1
 650 963 l 1,14,15
 728 970 728 970 808.5 983 c 128,-1,16
 889 996 889 996 958 997 c 0,17,18
 1002 997 1002 997 1022 973 c 128,-1,19
 1042 949 1042 949 1042 918 c 2,20,-1
 1042 858 l 1,21,-1
 650 858 l 1,22,-1
 650 442 l 1,23,-1
 673 -335 l 1,24,25
 635 -358 635 -358 580 -358 c 0,26,27
 527 -358 527 -358 487 -335 c 1,28,-1
 511 442 l 1,29,-1
 511 858 l 1,30,-1
 118 858 l 1,31,-1
 118 918 l 2,0,1
EndSplineSet
EndChar

StartChar: daggerdbl
Encoding: 8225 8225 230
Width: 1160
Flags: W
LayerCount: 2
Fore
SplineSet
118 918 m 2,0,1
 118 949 118 949 138.5 973 c 128,-1,2
 159 997 159 997 202 997 c 0,3,4
 236 997 236 997 274 992.5 c 128,-1,5
 312 988 312 988 352 983 c 128,-1,6
 392 978 392 978 432 972 c 128,-1,7
 472 966 472 966 511 963 c 1,8,-1
 487 1451 l 1,9,10
 527 1474 527 1474 580 1474 c 0,11,12
 635 1474 635 1474 673 1451 c 1,13,-1
 650 963 l 1,14,15
 728 970 728 970 808.5 983 c 128,-1,16
 889 996 889 996 958 997 c 0,17,18
 1002 997 1002 997 1022 973 c 128,-1,19
 1042 949 1042 949 1042 918 c 2,20,-1
 1042 858 l 1,21,-1
 650 858 l 1,22,-1
 650 258 l 1,23,-1
 1042 258 l 1,24,-1
 1042 198 l 2,25,26
 1042 167 1042 167 1022 143 c 128,-1,27
 1002 119 1002 119 958 119 c 0,28,29
 889 120 889 120 808.5 132.5 c 128,-1,30
 728 145 728 145 650 152 c 1,31,-1
 673 -335 l 1,32,33
 635 -358 635 -358 580 -358 c 0,34,35
 527 -358 527 -358 487 -335 c 1,36,-1
 511 152 l 1,37,38
 433 145 433 145 352 132.5 c 128,-1,39
 271 120 271 120 202 119 c 0,40,41
 159 119 159 119 138.5 143 c 128,-1,42
 118 167 118 167 118 198 c 2,43,-1
 118 258 l 1,44,-1
 511 258 l 1,45,-1
 511 858 l 1,46,-1
 118 858 l 1,47,-1
 118 918 l 2,0,1
EndSplineSet
EndChar

StartChar: bullet
Encoding: 8226 8226 231
Width: 1160
Flags: W
LayerCount: 2
Fore
SplineSet
208 595 m 256,0,1
 208 672 208 672 237.5 740 c 128,-1,2
 267 808 267 808 317 858.5 c 128,-1,3
 367 909 367 909 434.5 938.5 c 128,-1,4
 502 968 502 968 578 968 c 0,5,6
 655 968 655 968 723 938.5 c 128,-1,7
 791 909 791 909 841.5 858.5 c 128,-1,8
 892 808 892 808 921.5 740 c 128,-1,9
 951 672 951 672 951 595 c 256,10,11
 951 518 951 518 921.5 450.5 c 128,-1,12
 892 383 892 383 841.5 333 c 128,-1,13
 791 283 791 283 723 253.5 c 128,-1,14
 655 224 655 224 578 224 c 0,15,16
 502 224 502 224 434.5 253.5 c 128,-1,17
 367 283 367 283 317 333 c 128,-1,18
 267 383 267 383 237.5 450.5 c 128,-1,19
 208 518 208 518 208 595 c 256,0,1
EndSplineSet
EndChar

StartChar: ellipsis
Encoding: 8230 8230 232
Width: 1454
Flags: W
LayerCount: 2
Fore
SplineSet
88 110 m 0,0,1
 88 136 88 136 97.5 159 c 128,-1,2
 107 182 107 182 123.5 199 c 128,-1,3
 140 216 140 216 163 226 c 128,-1,4
 186 236 186 236 212 236 c 256,5,6
 238 236 238 236 261 226 c 128,-1,7
 284 216 284 216 301 199 c 128,-1,8
 318 182 318 182 327.5 159 c 128,-1,9
 337 136 337 136 337 110 c 0,10,11
 337 83 337 83 327.5 60.5 c 128,-1,12
 318 38 318 38 301 21 c 128,-1,13
 284 4 284 4 261 -5.5 c 128,-1,14
 238 -15 238 -15 212 -15 c 256,15,16
 186 -15 186 -15 163 -5.5 c 128,-1,17
 140 4 140 4 123.5 21 c 128,-1,18
 107 38 107 38 97.5 60.5 c 128,-1,19
 88 83 88 83 88 110 c 0,0,1
1117 110 m 0,20,21
 1117 136 1117 136 1126.5 159 c 128,-1,22
 1136 182 1136 182 1152.5 199 c 128,-1,23
 1169 216 1169 216 1192 226 c 128,-1,24
 1215 236 1215 236 1241 236 c 256,25,26
 1267 236 1267 236 1290 226 c 128,-1,27
 1313 216 1313 216 1330 199 c 128,-1,28
 1347 182 1347 182 1356.5 159 c 128,-1,29
 1366 136 1366 136 1366 110 c 0,30,31
 1366 83 1366 83 1356.5 60.5 c 128,-1,32
 1347 38 1347 38 1330 21 c 128,-1,33
 1313 4 1313 4 1290 -5.5 c 128,-1,34
 1267 -15 1267 -15 1241 -15 c 256,35,36
 1215 -15 1215 -15 1192 -5.5 c 128,-1,37
 1169 4 1169 4 1152.5 21 c 128,-1,38
 1136 38 1136 38 1126.5 60.5 c 128,-1,39
 1117 83 1117 83 1117 110 c 0,20,21
602 110 m 0,40,41
 602 136 602 136 611.5 159 c 128,-1,42
 621 182 621 182 637.5 199 c 128,-1,43
 654 216 654 216 677 226 c 128,-1,44
 700 236 700 236 726 236 c 256,45,46
 752 236 752 236 775 226 c 128,-1,47
 798 216 798 216 815 199 c 128,-1,48
 832 182 832 182 841.5 159 c 128,-1,49
 851 136 851 136 851 110 c 0,50,51
 851 83 851 83 841.5 60.5 c 128,-1,52
 832 38 832 38 815 21 c 128,-1,53
 798 4 798 4 775 -5.5 c 128,-1,54
 752 -15 752 -15 726 -15 c 256,55,56
 700 -15 700 -15 677 -5.5 c 128,-1,57
 654 4 654 4 637.5 21 c 128,-1,58
 621 38 621 38 611.5 60.5 c 128,-1,59
 602 83 602 83 602 110 c 0,40,41
EndSplineSet
EndChar

StartChar: perthousand
Encoding: 8240 8240 233
Width: 2306
Flags: W
LayerCount: 2
Fore
SplineSet
707 1087 m 0,0,1
 707 1003 707 1003 681 936.5 c 128,-1,2
 655 870 655 870 611.5 824.5 c 128,-1,3
 568 779 568 779 510 755 c 128,-1,4
 452 731 452 731 389 731 c 0,5,6
 321 731 321 731 263.5 755 c 128,-1,7
 206 779 206 779 163 824.5 c 128,-1,8
 120 870 120 870 96 936.5 c 128,-1,9
 72 1003 72 1003 72 1087 c 0,10,11
 72 1173 72 1173 96 1240 c 128,-1,12
 120 1307 120 1307 163 1353 c 128,-1,13
 206 1399 206 1399 263.5 1423 c 128,-1,14
 321 1447 321 1447 389 1447 c 0,15,16
 456 1447 456 1447 514.5 1423 c 128,-1,17
 573 1399 573 1399 615.5 1353 c 128,-1,18
 658 1307 658 1307 682.5 1240 c 128,-1,19
 707 1173 707 1173 707 1087 c 0,0,1
568 1087 m 0,20,21
 568 1153 568 1153 554 1199 c 128,-1,22
 540 1245 540 1245 515.5 1274.5 c 128,-1,23
 491 1304 491 1304 458.5 1317 c 128,-1,24
 426 1330 426 1330 389 1330 c 256,25,26
 352 1330 352 1330 319.5 1317 c 128,-1,27
 287 1304 287 1304 263 1274.5 c 128,-1,28
 239 1245 239 1245 225.5 1199 c 128,-1,29
 212 1153 212 1153 212 1087 c 0,30,31
 212 1022 212 1022 225.5 976.5 c 128,-1,32
 239 931 239 931 263 902.5 c 128,-1,33
 287 874 287 874 319.5 861.5 c 128,-1,34
 352 849 352 849 389 849 c 256,35,36
 426 849 426 849 458.5 861.5 c 128,-1,37
 491 874 491 874 515.5 902.5 c 128,-1,38
 540 931 540 931 554 976.5 c 128,-1,39
 568 1022 568 1022 568 1087 c 0,20,21
1213 1403 m 2,40,41
 1222 1416 1222 1416 1236 1424.5 c 128,-1,42
 1250 1433 1250 1433 1274 1433 c 2,43,-1
 1402 1433 l 1,44,-1
 355 29 l 2,45,46
 345 16 345 16 331 8 c 128,-1,47
 317 0 317 0 298 0 c 2,48,-1
 166 0 l 1,49,-1
 1213 1403 l 2,40,41
1499 338 m 0,50,51
 1499 254 1499 254 1473 188 c 128,-1,52
 1447 122 1447 122 1403.5 76.5 c 128,-1,53
 1360 31 1360 31 1302.5 7 c 128,-1,54
 1245 -17 1245 -17 1182 -17 c 0,55,56
 1114 -17 1114 -17 1056.5 7 c 128,-1,57
 999 31 999 31 956 76.5 c 128,-1,58
 913 122 913 122 889 188 c 128,-1,59
 865 254 865 254 865 338 c 0,60,61
 865 424 865 424 889 491.5 c 128,-1,62
 913 559 913 559 956 605 c 128,-1,63
 999 651 999 651 1056.5 675 c 128,-1,64
 1114 699 1114 699 1182 699 c 0,65,66
 1249 699 1249 699 1307 675 c 128,-1,67
 1365 651 1365 651 1408 605 c 128,-1,68
 1451 559 1451 559 1475 491.5 c 128,-1,69
 1499 424 1499 424 1499 338 c 0,50,51
1361 338 m 0,70,71
 1361 404 1361 404 1347 450.5 c 128,-1,72
 1333 497 1333 497 1308.5 526 c 128,-1,73
 1284 555 1284 555 1251.5 568 c 128,-1,74
 1219 581 1219 581 1182 581 c 256,75,76
 1145 581 1145 581 1112.5 568 c 128,-1,77
 1080 555 1080 555 1056 526 c 128,-1,78
 1032 497 1032 497 1018.5 450.5 c 128,-1,79
 1005 404 1005 404 1005 338 c 0,80,81
 1005 273 1005 273 1018.5 228 c 128,-1,82
 1032 183 1032 183 1056 154.5 c 128,-1,83
 1080 126 1080 126 1112.5 113.5 c 128,-1,84
 1145 101 1145 101 1182 101 c 256,85,86
 1219 101 1219 101 1251.5 113.5 c 128,-1,87
 1284 126 1284 126 1308.5 154.5 c 128,-1,88
 1333 183 1333 183 1347 228 c 128,-1,89
 1361 273 1361 273 1361 338 c 0,70,71
2233 338 m 0,90,91
 2233 254 2233 254 2207 188 c 128,-1,92
 2181 122 2181 122 2137.5 76.5 c 128,-1,93
 2094 31 2094 31 2036 7 c 128,-1,94
 1978 -17 1978 -17 1915 -17 c 0,95,96
 1847 -17 1847 -17 1789.5 7 c 128,-1,97
 1732 31 1732 31 1689 76.5 c 128,-1,98
 1646 122 1646 122 1622 188 c 128,-1,99
 1598 254 1598 254 1598 338 c 0,100,101
 1598 424 1598 424 1622 491.5 c 128,-1,102
 1646 559 1646 559 1689 605 c 128,-1,103
 1732 651 1732 651 1789.5 675 c 128,-1,104
 1847 699 1847 699 1915 699 c 0,105,106
 1982 699 1982 699 2040.5 675 c 128,-1,107
 2099 651 2099 651 2141.5 605 c 128,-1,108
 2184 559 2184 559 2208.5 491.5 c 128,-1,109
 2233 424 2233 424 2233 338 c 0,90,91
2094 338 m 0,110,111
 2094 404 2094 404 2080 450.5 c 128,-1,112
 2066 497 2066 497 2041.5 526 c 128,-1,113
 2017 555 2017 555 1984.5 568 c 128,-1,114
 1952 581 1952 581 1915 581 c 256,115,116
 1878 581 1878 581 1845.5 568 c 128,-1,117
 1813 555 1813 555 1789 526 c 128,-1,118
 1765 497 1765 497 1751.5 450.5 c 128,-1,119
 1738 404 1738 404 1738 338 c 0,120,121
 1738 273 1738 273 1751.5 228 c 128,-1,122
 1765 183 1765 183 1789 154.5 c 128,-1,123
 1813 126 1813 126 1845.5 113.5 c 128,-1,124
 1878 101 1878 101 1915 101 c 256,125,126
 1952 101 1952 101 1984.5 113.5 c 128,-1,127
 2017 126 2017 126 2041.5 154.5 c 128,-1,128
 2066 183 2066 183 2080 228 c 128,-1,129
 2094 273 2094 273 2094 338 c 0,110,111
EndSplineSet
EndChar

StartChar: guilsinglleft
Encoding: 8249 8249 234
Width: 632
Flags: W
LayerCount: 2
Fore
SplineSet
138 518 m 1,0,-1
 138 541 l 1,1,-1
 387 930 l 1,2,-1
 445 902 l 2,3,4
 459 895 459 895 466 884 c 128,-1,5
 473 873 473 873 473 860 c 0,6,7
 473 843 473 843 463 827 c 2,8,-1
 304 566 l 2,9,10
 290 542 290 542 276 529 c 1,11,12
 291 515 291 515 304 493 c 2,13,-1
 463 232 l 2,14,15
 468 224 468 224 470.5 215 c 128,-1,16
 473 206 473 206 473 198 c 0,17,18
 473 170 473 170 445 157 c 2,19,-1
 387 129 l 1,20,-1
 138 518 l 1,0,-1
EndSplineSet
EndChar

StartChar: guilsinglright
Encoding: 8250 8250 235
Width: 632
Flags: W
LayerCount: 2
Fore
SplineSet
485 541 m 1,0,-1
 485 518 l 1,1,-1
 236 129 l 1,2,-1
 178 157 l 2,3,4
 150 170 150 170 150 198 c 0,5,6
 150 215 150 215 160 232 c 2,7,-1
 319 493 l 2,8,9
 332 517 332 517 346 529 c 1,10,11
 334 540 334 540 319 566 c 2,12,-1
 160 827 l 2,13,14
 150 844 150 844 150 861 c 0,15,16
 150 889 150 889 178 902 c 2,17,-1
 236 930 l 1,18,-1
 485 541 l 1,0,-1
EndSplineSet
EndChar

StartChar: fraction
Encoding: 8260 8260 236
Width: 614
Flags: W
LayerCount: 2
Fore
SplineSet
-20 53 m 2,0,1
 -39 22 -39 22 -61 11 c 128,-1,2
 -83 0 -83 0 -112 0 c 2,3,-1
 -188 0 l 1,4,-1
 630 1372 l 2,5,6
 648 1401 648 1401 671 1417 c 128,-1,7
 694 1433 694 1433 726 1433 c 2,8,-1
 803 1433 l 1,9,-1
 -20 53 l 2,0,1
EndSplineSet
EndChar

StartChar: Euro
Encoding: 8364 8364 237
Width: 1160
Flags: W
LayerCount: 2
Fore
SplineSet
34 899 m 1,0,-1
 181 899 l 1,1,2
 201 1025 201 1025 248.5 1126.5 c 128,-1,3
 296 1228 296 1228 366.5 1299.5 c 128,-1,4
 437 1371 437 1371 529 1409 c 128,-1,5
 621 1447 621 1447 729 1447 c 0,6,7
 863 1447 863 1447 958 1397 c 128,-1,8
 1053 1347 1053 1347 1123 1259 c 1,9,-1
 1062 1191 l 2,10,11
 1054 1182 1054 1182 1046 1175.5 c 128,-1,12
 1038 1169 1038 1169 1024 1169 c 0,13,14
 1007 1169 1007 1169 988.5 1188 c 128,-1,15
 970 1207 970 1207 939 1230 c 128,-1,16
 908 1253 908 1253 859.5 1272 c 128,-1,17
 811 1291 811 1291 736 1291 c 0,18,19
 590 1291 590 1291 493.5 1191 c 128,-1,20
 397 1091 397 1091 365 899 c 1,21,-1
 912 899 l 1,22,-1
 912 844 l 2,23,24
 912 826 912 826 898.5 811.5 c 128,-1,25
 885 797 885 797 861 797 c 2,26,-1
 353 797 l 1,27,28
 352 777 352 777 351.5 757 c 128,-1,29
 351 737 351 737 351 716 c 0,30,31
 351 700 351 700 351 685 c 128,-1,32
 351 670 351 670 352 655 c 1,33,-1
 819 655 l 1,34,-1
 819 599 l 2,35,36
 819 582 819 582 805 567.5 c 128,-1,37
 791 553 791 553 767 553 c 2,38,-1
 361 553 l 1,39,40
 389 347 389 347 485 244 c 128,-1,41
 581 141 581 141 727 141 c 0,42,43
 781 141 781 141 822 151.5 c 128,-1,44
 863 162 863 162 893 178 c 128,-1,45
 923 194 923 194 944.5 212.5 c 128,-1,46
 966 231 966 231 982 247 c 128,-1,47
 998 263 998 263 1010.5 273.5 c 128,-1,48
 1023 284 1023 284 1035 284 c 0,49,50
 1043 284 1043 284 1049 280.5 c 128,-1,51
 1055 277 1055 277 1063 270 c 2,52,-1
 1138 200 l 1,53,54
 1068 98 1068 98 964 41.5 c 128,-1,55
 860 -15 860 -15 717 -15 c 0,56,57
 601 -15 601 -15 508 24.5 c 128,-1,58
 415 64 415 64 347 137.5 c 128,-1,59
 279 211 279 211 235.5 316.5 c 128,-1,60
 192 422 192 422 176 553 c 1,61,-1
 34 553 l 1,62,-1
 34 655 l 1,63,-1
 168 655 l 1,64,65
 167 670 167 670 167 685 c 128,-1,66
 167 700 167 700 167 716 c 0,67,68
 167 736 167 736 167.5 756.5 c 128,-1,69
 168 777 168 777 169 797 c 1,70,-1
 34 797 l 1,71,-1
 34 899 l 1,0,-1
EndSplineSet
EndChar

StartChar: trademark
Encoding: 8482 8482 238
Width: 1440
Flags: W
LayerCount: 2
Fore
SplineSet
963 1109 m 2,0,1
 969 1095 969 1095 974.5 1082.5 c 128,-1,2
 980 1070 980 1070 984 1056 c 1,3,4
 989 1070 989 1070 993 1082.5 c 128,-1,5
 997 1095 997 1095 1005 1109 c 2,6,-1
 1174 1412 l 2,7,8
 1183 1425 1183 1425 1191 1429 c 128,-1,9
 1199 1433 1199 1433 1215 1433 c 2,10,-1
 1321 1433 l 1,11,-1
 1321 841 l 1,12,-1
 1211 841 l 1,13,-1
 1211 1206 l 1,14,-1
 1220 1281 l 1,15,-1
 1037 945 l 2,16,17
 1024 917 1024 917 993 917 c 2,18,-1
 975 917 l 2,19,20
 944 917 944 917 932 945 c 2,21,-1
 748 1278 l 1,22,-1
 756 1206 l 1,23,-1
 756 841 l 1,24,-1
 646 841 l 1,25,-1
 646 1433 l 1,26,-1
 752 1433 l 2,27,28
 769 1433 769 1433 776 1429 c 128,-1,29
 783 1425 783 1425 794 1412 c 2,30,-1
 963 1109 l 2,0,1
550 1433 m 1,31,-1
 550 1328 l 1,32,-1
 370 1328 l 1,33,-1
 370 841 l 1,34,-1
 244 841 l 1,35,-1
 244 1328 l 1,36,-1
 64 1328 l 1,37,-1
 64 1433 l 1,38,-1
 550 1433 l 1,31,-1
EndSplineSet
EndChar

